# Blender 3.6.2
# www.blender.org
mtllib body_2.mtl
o polySurface83_1008.002
v 19.458630 62.918686 1.489633
v 19.458630 42.454899 1.489633
v 19.458630 42.454899 11.392901
v 19.458630 62.918686 11.392901
v 21.212948 62.918686 1.489649
v 21.212948 62.918686 11.392910
v 21.212948 42.454899 11.392910
v 21.212948 42.454899 1.489649
v 19.458630 21.991055 1.489633
v 19.458630 21.991055 11.392901
v 21.212948 21.991055 11.392910
v 21.212948 21.991055 1.489649
v 19.458630 1.527256 1.489633
v 19.458630 1.527256 11.392901
v 21.212948 1.527256 11.392910
v 21.212948 1.527256 1.489649
v 19.458630 -18.936546 1.489633
v 19.458630 -18.936546 11.392901
v 21.212948 -18.936546 11.392910
v 21.212948 -18.936546 1.489649
v 19.458630 -39.400318 1.489633
v 19.458630 -39.400318 11.392901
v 21.212948 -39.400318 11.392910
v 21.212948 -39.400318 1.489649
v 19.458630 -59.864136 1.489633
v 19.458630 -59.864136 11.392901
v 21.212948 -59.864136 11.392910
v 21.212948 -59.864136 1.489649
v 21.212950 62.918686 21.296179
v 21.212950 42.454899 21.296179
v 21.212950 21.991055 21.296179
v 21.212950 1.527256 21.296179
v 21.212950 -18.936546 21.296179
v 21.212950 -39.400318 21.296179
v 21.212950 -59.864136 21.296179
v 19.458632 -39.400318 21.296175
v 19.458632 -59.864136 21.296175
v 19.458632 -18.936546 21.296175
v 19.458632 1.527256 21.296175
v 19.458632 21.991055 21.296175
v 19.458632 42.454899 21.296175
v 19.458632 62.918686 21.296175
v 19.458632 83.263206 21.296175
v 19.458632 83.263206 31.139790
v 19.476095 83.347549 31.139790
v 19.476095 83.347549 21.296175
v 19.476095 83.347549 21.296175
v 19.476095 83.347549 31.139790
v 19.518270 83.382484 31.139790
v 19.518270 83.382484 21.296175
v 21.153311 83.382484 31.139790
v 19.518270 83.347549 31.181961
v 21.153311 83.347549 31.181961
v 21.153311 83.347549 31.181961
v 19.518270 83.347549 31.181961
v 19.518270 83.263206 31.199429
v 21.153311 83.263206 31.199429
v 21.212948 83.263206 1.489649
v 21.212948 83.263206 0.059638
v 21.195477 83.347549 0.059638
v 21.195477 83.347549 1.489649
v 21.195477 83.347549 1.489649
v 21.195477 83.347549 0.059638
v 21.153309 83.382484 0.059638
v 21.153309 83.382484 1.489648
v 21.153309 62.918686 -0.000004
v 21.153309 83.263206 -0.000004
v 21.195477 83.263206 0.017465
v 21.195477 62.918686 0.017465
v 21.195477 62.918686 0.017465
v 21.195477 83.263206 0.017465
v 21.212948 62.918686 0.059638
v 19.518269 83.382484 0.059639
v 21.153309 83.347549 0.017465
v 19.518269 83.347549 0.017466
v 19.518269 83.347549 0.017466
v 21.153309 83.347549 0.017465
v 19.518269 83.263206 -0.000003
v 19.458630 62.918686 0.059639
v 19.458630 83.263206 0.059639
v 19.476093 83.263206 0.017466
v 19.476093 62.918686 0.017466
v 19.476093 62.918686 0.017466
v 19.476093 83.263206 0.017466
v 19.518269 62.918686 -0.000003
v 21.153309 -80.327942 0.059638
v 19.518269 -80.327942 0.059639
v 19.518269 -80.293007 0.017466
v 21.153309 -80.293007 0.017465
v 21.153309 -80.293007 0.017465
v 19.518269 -80.293007 0.017466
v 19.518269 -80.208664 -0.000003
v 21.153309 -80.208664 -0.000004
v 19.518270 -80.327942 21.296175
v 19.518270 -80.327942 31.139790
v 19.476095 -80.293007 31.139790
v 19.476095 -80.293007 21.296175
v 19.476095 -80.293007 21.296175
v 19.476095 -80.293007 31.139790
v 19.458632 -80.208664 31.139790
v 19.458632 -80.208664 21.296175
v 21.153311 -80.208664 31.199429
v 19.518270 -80.208664 31.199429
v 19.518270 -80.293007 31.181961
v 21.153311 -80.293007 31.181961
v 21.153311 -80.293007 31.181961
v 19.518270 -80.293007 31.181961
v 21.153311 -80.327942 31.139790
v 19.458632 -59.864136 31.139790
v 19.476095 -80.208664 31.181961
v 19.476095 -59.864136 31.181961
v 19.476095 -59.864136 31.181961
v 19.476095 -80.208664 31.181961
v 19.518270 -59.864136 31.199429
v 21.153311 -59.864136 31.199429
v 21.195478 -80.208664 31.181961
v 21.195478 -59.864136 31.181961
v 21.195478 -59.864136 31.181961
v 21.195478 -80.208664 31.181961
v 21.212950 -80.208664 31.139790
v 21.212950 -59.864136 31.139790
v 21.212950 -80.208664 21.296179
v 21.195478 -80.293007 31.139790
v 21.195478 -80.293007 21.296179
v 21.195478 -80.293007 21.296179
v 21.195478 -80.293007 31.139790
v 21.153311 -80.327942 21.296179
v 21.153309 -80.327942 1.489648
v 21.195477 -80.293007 0.059638
v 21.195477 -80.293007 1.489649
v 21.195477 -80.293007 1.489649
v 21.195477 -80.293007 0.059638
v 21.212948 -80.208664 0.059638
v 21.212948 -80.208664 1.489649
v 19.458630 -80.208664 1.489633
v 19.458630 -80.208664 11.392901
v 21.212948 -80.208664 11.392910
v 21.153309 -59.864136 0.000001
v 19.518269 -59.864136 0.000002
v 19.518269 -80.327942 11.392901
v 19.518269 -80.327942 1.489633
v 21.153309 -80.327942 11.392910
v 21.153309 83.382484 11.392910
v 19.518269 83.382484 1.489633
v 19.518269 83.382484 11.392901
v 19.458630 -59.864136 0.059642
v 19.458630 -80.208664 0.059639
v 21.212948 -59.864136 0.059641
v 19.458630 83.263206 1.489633
v 19.458630 83.263206 11.392901
v 21.212948 83.263206 11.392910
v 19.518270 62.918686 31.199429
v 21.153311 62.918686 31.199429
v 19.458630 42.454899 0.059639
v 21.153309 42.454899 -0.000004
v 19.518269 42.454899 -0.000003
v 21.212948 42.454899 0.059638
v 19.518270 42.454899 31.199429
v 21.153311 42.454899 31.199429
v 19.458630 21.991055 0.059639
v 21.153309 21.991055 -0.000004
v 19.518269 21.991055 -0.000003
v 21.212948 21.991055 0.059638
v 19.518270 21.991055 31.199429
v 21.153311 21.991055 31.199429
v 19.458630 1.527256 0.059639
v 21.153309 1.527256 -0.000004
v 19.518269 1.527256 -0.000003
v 21.212948 1.527256 0.059638
v 19.518270 1.527256 31.199429
v 21.153311 1.527256 31.199429
v 19.458630 -18.936546 0.059639
v 21.153309 -18.936546 -0.000004
v 19.518269 -18.936546 -0.000003
v 21.212948 -18.936546 0.059638
v 19.518270 -18.936546 31.199429
v 21.153311 -18.936546 31.199429
v 19.458630 -39.400318 0.059642
v 21.153309 -39.400318 0.000001
v 19.518269 -39.400318 0.000002
v 21.212948 -39.400318 0.059641
v 19.518270 -39.400318 31.199429
v 21.153311 -39.400318 31.199429
v 21.212950 83.263206 31.139790
v 21.212950 62.918686 31.139790
v 21.212950 83.263206 21.296179
v 21.212950 42.454899 31.139790
v 21.212950 21.991055 31.139790
v 21.212950 1.527256 31.139790
v 21.212950 -18.936546 31.139790
v 21.212950 -39.400318 31.139790
v 19.458632 -39.400318 31.139790
v 19.458632 -18.936546 31.139790
v 19.458632 1.527256 31.139790
v 19.458632 21.991055 31.139790
v 19.458632 42.454899 31.139790
v 19.458632 62.918686 31.139790
v 21.153311 83.382484 21.296179
v 19.476095 83.263206 31.181961
v 19.476095 62.918686 31.181961
v 19.476095 62.918686 31.181961
v 19.476095 83.263206 31.181961
v 21.195478 83.263206 31.181961
v 21.195478 62.918686 31.181961
v 21.195478 62.918686 31.181961
v 21.195478 83.263206 31.181961
v 21.195477 42.454899 0.017465
v 21.195477 42.454899 0.017465
v 19.476093 83.347549 0.059639
v 19.476093 83.347549 1.489633
v 19.476093 83.347549 1.489633
v 19.476093 83.347549 0.059639
v 19.476093 -80.293007 0.059639
v 19.476093 -80.293007 1.489633
v 19.476093 -80.293007 1.489633
v 19.476093 -80.293007 0.059639
v 21.195478 83.347549 31.139790
v 21.195478 83.347549 21.296179
v 21.195478 83.347549 21.296179
v 21.195478 83.347549 31.139790
v 21.195477 -80.293007 11.392910
v 21.195477 -80.293007 11.392910
v 19.476093 83.347549 11.392901
v 19.476093 83.347549 11.392901
v 19.476093 -80.293007 11.392901
v 19.476093 -80.293007 11.392901
v 21.195477 83.347549 11.392910
v 21.195477 83.347549 11.392910
v 19.476093 42.454899 0.017466
v 19.476093 42.454899 0.017466
v 19.476095 42.454899 31.181961
v 19.476095 42.454899 31.181961
v 19.476093 21.991055 0.017466
v 19.476093 21.991055 0.017466
v 21.195477 21.991055 0.017465
v 21.195477 21.991055 0.017465
v 21.195478 42.454899 31.181961
v 21.195478 42.454899 31.181961
v 19.476095 21.991055 31.181961
v 19.476095 21.991055 31.181961
v 19.476093 1.527256 0.017466
v 19.476093 1.527256 0.017466
v 21.195477 1.527256 0.017465
v 21.195477 1.527256 0.017465
v 21.195478 21.991055 31.181961
v 21.195478 21.991055 31.181961
v 19.476095 1.527256 31.181961
v 19.476095 1.527256 31.181961
v 19.476093 -18.936546 0.017466
v 19.476093 -18.936546 0.017466
v 21.195477 -18.936546 0.017465
v 21.195477 -18.936546 0.017465
v 21.195478 1.527256 31.181961
v 21.195478 1.527256 31.181961
v 19.476095 -18.936546 31.181961
v 19.476095 -18.936546 31.181961
v 19.476093 -39.400318 0.017468
v 19.476093 -39.400318 0.017468
v 21.195477 -39.400318 0.017467
v 21.195477 -39.400318 0.017467
v 21.195478 -18.936546 31.181961
v 21.195478 -18.936546 31.181961
v 19.476095 -39.400318 31.181961
v 19.476095 -39.400318 31.181961
v 19.476093 -59.864136 0.017468
v 19.476093 -59.864136 0.017468
v 21.195477 -59.864136 0.017467
v 21.195477 -59.864136 0.017467
v 21.195478 -39.400318 31.181961
v 21.195478 -39.400318 31.181961
v 19.476093 -80.208664 0.017466
v 19.476093 -80.208664 0.017466
v 21.195477 -80.208664 0.017465
v 21.195477 -80.208664 0.017465
v 19.483847 83.332054 31.174212
v 19.483847 83.332054 31.174212
v 19.483847 83.332054 31.174212
v 21.187731 83.332054 31.174212
v 21.187731 83.332054 31.174212
v 21.187731 83.332054 31.174212
v 21.187729 83.332054 0.025215
v 21.187729 83.332054 0.025215
v 21.187729 83.332054 0.025215
v 19.483845 83.332054 0.025216
v 19.483845 83.332054 0.025216
v 19.483845 83.332054 0.025216
v 19.483845 -80.277504 0.025216
v 19.483845 -80.277504 0.025216
v 19.483845 -80.277504 0.025216
v 19.483847 -80.277504 31.174212
v 19.483847 -80.277504 31.174212
v 19.483847 -80.277504 31.174212
v 21.187731 -80.277504 31.174212
v 21.187731 -80.277504 31.174212
v 21.187731 -80.277504 31.174212
v 21.187729 -80.277504 0.025215
v 21.187729 -80.277504 0.025215
v 21.187729 -80.277504 0.025215
v 19.326420 83.263206 1.137112
v 19.326420 83.263206 0.357977
v 19.326420 62.918686 0.357977
v 19.326420 62.918686 1.137112
v 19.326420 42.454899 0.357977
v 19.326420 42.454899 1.137112
v 19.326420 21.991055 0.357977
v 19.326420 21.991055 1.137112
v 19.326420 1.527256 0.357977
v 19.326420 1.527256 1.137112
v 19.326420 -18.936546 0.357977
v 19.326420 -18.936546 1.137112
v 19.326420 1.527256 1.137112
v 19.326420 1.527256 0.357977
v 19.326420 -39.400318 0.357977
v 19.326420 -39.400318 1.137112
v 19.326420 -59.864136 0.357977
v 19.326420 -59.864136 1.137112
v 19.326420 -80.208664 0.357977
v 19.326420 -80.208664 1.137112
v 19.526249 -80.208664 0.357977
v 19.401524 -80.208664 0.357977
v 19.401524 -59.864136 0.357977
v 19.526249 -59.864136 0.357977
v 19.526249 -59.864136 1.514970
v 19.401524 -59.864136 1.514970
v 19.401524 -80.208664 1.514970
v 19.526249 -80.208664 1.514970
v 19.526249 62.918686 0.357977
v 19.401524 62.918686 0.357977
v 19.401524 83.263206 0.357977
v 19.526249 83.263206 0.357977
v 19.526249 83.263206 1.514970
v 19.401524 83.263206 1.514970
v 19.401524 62.918686 1.514970
v 19.526249 62.918686 1.514970
v 19.526249 83.263206 0.357977
v 19.401524 83.263206 0.357977
v 19.401524 83.263206 1.149746
v 19.526249 83.263206 1.149746
v 19.526249 42.454899 0.357977
v 19.401524 42.454899 0.357977
v 19.401524 42.454899 1.514970
v 19.526249 42.454899 1.514970
v 19.526249 21.991055 0.357977
v 19.401524 21.991055 0.357977
v 19.401524 21.991055 1.514970
v 19.526249 21.991055 1.514970
v 19.526249 1.527256 0.357977
v 19.401524 1.527256 0.357977
v 19.401524 1.527256 1.514970
v 19.526249 1.527256 1.514970
v 19.526249 -18.936546 0.357977
v 19.401524 -18.936546 0.357977
v 19.401524 1.527256 0.357977
v 19.526249 1.527256 0.357977
v 19.526249 1.527256 1.514970
v 19.401524 1.527256 1.514970
v 19.401524 -18.936546 1.514970
v 19.526249 -18.936546 1.514970
v 19.526249 -39.400318 0.357977
v 19.401524 -39.400318 0.357977
v 19.401524 -39.400318 1.514970
v 19.526249 -39.400318 1.514970
v 19.526249 -59.864136 0.357977
v 19.526249 -80.208664 1.149746
v 19.401524 -80.208664 1.149746
v 19.401524 -80.208664 0.357977
v 19.526249 -80.208664 0.357977
v 19.526249 -80.208664 1.201317
v 19.526249 -80.208664 1.276838
v 19.401524 -80.208664 1.276838
v 19.401524 -80.208664 1.191373
v 19.362751 -59.905884 1.223140
v 19.362751 -80.250412 1.223140
v 19.334270 -80.250412 1.276838
v 19.334270 -59.905884 1.276838
v 19.362751 -39.442074 1.223140
v 19.334270 -39.442074 1.276838
v 19.362751 -18.978292 1.223140
v 19.334270 -18.978292 1.276838
v 19.362751 1.485508 1.223140
v 19.334270 1.485508 1.276838
v 19.362751 21.949310 1.223140
v 19.362751 1.485508 1.223140
v 19.334270 1.485508 1.276838
v 19.334270 21.949310 1.276838
v 19.362751 42.413155 1.223140
v 19.334270 42.413155 1.276838
v 19.362751 62.876938 1.223140
v 19.334270 62.876938 1.276838
v 19.362751 83.221458 1.223140
v 19.334270 83.221458 1.276838
v 19.526249 83.263206 1.201317
v 19.401524 83.263206 1.191373
v 19.401524 83.263206 1.276838
v 19.526249 83.263206 1.276838
v 19.401524 -80.208664 1.149746
v 19.401524 -80.208664 1.191373
v 19.401524 -59.864136 1.191373
v 19.401524 -59.864136 1.149746
v 19.401524 83.263206 1.191373
v 19.401524 83.263206 1.149746
v 19.401524 62.918686 1.149746
v 19.401524 62.918686 1.191373
v 19.401524 42.454899 1.149746
v 19.401524 42.454899 1.191373
v 19.401524 21.991055 1.149746
v 19.401524 21.991055 1.191373
v 19.401524 1.527256 1.149746
v 19.401524 1.527256 1.191373
v 19.401524 -18.936546 1.149746
v 19.401524 -18.936546 1.191373
v 19.401524 1.527256 1.191373
v 19.401524 1.527256 1.149746
v 19.401524 -39.400318 1.149746
v 19.401524 -39.400318 1.191373
v 19.401524 -80.208664 1.514970
v 19.401524 -59.864136 1.514970
v 19.401524 -59.864136 1.362300
v 19.401524 -80.208664 1.362300
v 19.401524 -39.400318 1.514970
v 19.401524 -39.400318 1.362300
v 19.401524 -18.936546 1.514970
v 19.401524 -18.936546 1.362300
v 19.401524 1.527256 1.514970
v 19.401524 1.527256 1.362300
v 19.401524 1.527256 1.514970
v 19.401524 21.991055 1.514970
v 19.401524 21.991055 1.362300
v 19.401524 1.527256 1.362300
v 19.401524 42.454899 1.514970
v 19.401524 42.454899 1.362300
v 19.401524 62.918686 1.514970
v 19.401524 62.918686 1.362300
v 19.401524 83.263206 1.514970
v 19.401524 83.263206 1.362300
v 19.526249 -80.208664 1.514970
v 19.401524 -80.208664 1.514970
v 19.401524 -80.208664 1.362300
v 19.526249 -80.208664 1.352357
v 19.526249 83.263206 1.352357
v 19.401524 83.263206 1.362300
v 19.401524 83.263206 1.514970
v 19.526249 83.263206 1.514970
v 19.326420 83.263206 0.357977
v 19.326420 62.918686 0.357977
v 19.326420 62.918686 1.137112
v 19.401524 62.918686 1.149746
v 19.401524 83.263206 1.149746
v 19.326420 83.263206 1.137112
v 19.326420 83.263206 1.137112
v 19.326420 83.263206 0.357977
v 19.326420 42.454899 1.137112
v 19.401524 42.454899 1.149746
v 19.326420 42.454899 0.357977
v 19.326420 21.991055 1.137112
v 19.401524 21.991055 1.149746
v 19.326420 21.991055 0.357977
v 19.326420 1.527256 1.137112
v 19.401524 1.527256 1.149746
v 19.326420 1.527256 0.357977
v 19.326420 -18.936546 1.137112
v 19.401524 -18.936546 1.149746
v 19.401524 1.527256 1.149746
v 19.326420 1.527256 1.137112
v 19.326420 1.527256 0.357977
v 19.326420 -18.936546 0.357977
v 19.326420 -39.400318 1.137112
v 19.401524 -39.400318 1.149746
v 19.326420 -39.400318 0.357977
v 19.326420 -59.864136 1.137112
v 19.401524 -59.864136 1.149746
v 19.326420 -59.864136 0.357977
v 19.326420 -80.208664 1.137112
v 19.401524 -80.208664 1.149746
v 19.326420 -80.208664 0.357977
v 19.326420 -80.208664 0.357977
v 19.326420 -80.208664 1.137112
v 19.362751 -80.250412 1.223140
v 19.401524 -80.208664 1.191373
v 19.401524 -80.208664 1.276838
v 19.401524 -80.208664 1.276838
v 19.334270 -80.250412 1.276838
v 19.362751 -80.250412 1.223140
v 19.362751 -80.250412 1.330536
v 19.401524 -80.208664 1.362300
v 19.401524 -59.864136 1.362300
v 19.362751 -59.905884 1.330536
v 19.362751 -59.905884 1.223140
v 19.401524 -59.864136 1.191373
v 19.401524 -80.208664 1.191373
v 19.362751 -80.250412 1.223140
v 19.401524 -39.400318 1.362300
v 19.362751 -39.442074 1.330536
v 19.362751 -39.442074 1.223140
v 19.401524 -39.400318 1.191373
v 19.401524 -18.936546 1.362300
v 19.362751 -18.978292 1.330536
v 19.362751 -18.978292 1.223140
v 19.401524 -18.936546 1.191373
v 19.401524 1.527256 1.362300
v 19.362751 1.485508 1.330536
v 19.362751 1.485508 1.223140
v 19.401524 1.527256 1.191373
v 19.362751 1.485508 1.330536
v 19.401524 1.527256 1.362300
v 19.401524 21.991055 1.362300
v 19.362751 21.949310 1.330536
v 19.362751 21.949310 1.223140
v 19.401524 21.991055 1.191373
v 19.401524 1.527256 1.191373
v 19.362751 1.485508 1.223140
v 19.401524 42.454899 1.362300
v 19.362751 42.413155 1.330536
v 19.362751 42.413155 1.223140
v 19.401524 42.454899 1.191373
v 19.401524 62.918686 1.362300
v 19.362751 62.876938 1.330536
v 19.362751 62.876938 1.223140
v 19.401524 62.918686 1.191373
v 19.401524 83.263206 1.362300
v 19.362751 83.221458 1.330536
v 19.362751 83.221458 1.223140
v 19.334270 83.221458 1.276838
v 19.362751 83.221458 1.223140
v 19.401524 83.263206 1.191373
v 19.362751 -80.250412 1.330536
v 19.401524 -80.208664 1.276838
v 19.401524 -80.208664 1.362300
v 19.362751 -80.250412 1.330536
v 19.362751 -59.905884 1.330536
v 19.362751 -80.250412 1.330536
v 19.362751 -39.442074 1.330536
v 19.362751 -18.978292 1.330536
v 19.362751 1.485508 1.330536
v 19.362751 21.949310 1.330536
v 19.362751 1.485508 1.330536
v 19.362751 42.413155 1.330536
v 19.362751 62.876938 1.330536
v 19.362751 83.221458 1.330536
v 19.362751 83.221458 1.330536
v -27.669682 83.382492 0.357980
v -18.269451 83.382492 0.357979
v -18.269451 83.382492 0.000001
v -27.669682 83.382492 0.000002
v -18.269451 83.382492 0.357979
v -27.669682 83.382492 0.357980
v -27.669682 64.765152 0.357980
v -18.269451 64.765152 0.357979
v 19.458626 83.382492 0.357977
v 19.458626 64.765152 0.357977
v 19.458626 64.765152 -0.000001
v 19.458626 83.382492 -0.000001
v -18.269451 64.765152 0.000001
v -27.669682 64.765152 0.000002
v -27.669682 83.382492 0.000002
v -18.269451 83.382492 0.000001
v -27.669682 64.765152 0.357980
v -27.669682 83.382492 0.357980
v -27.669682 83.382492 0.000002
v -27.669682 64.765152 0.000002
v -18.269451 28.299587 0.000001
v -27.669682 28.299587 0.000002
v -27.669682 46.147816 0.000002
v -18.269451 46.147816 0.000001
v -18.269451 -80.327942 0.357979
v -27.669682 -80.327942 0.357980
v -27.669704 -80.327942 -0.000003
v -18.269474 -80.327942 -0.000004
v -27.669682 46.147816 0.357980
v -27.669682 46.147816 0.000002
v -27.669682 28.299587 0.000002
v -27.669682 28.299587 0.357980
v -18.269451 46.147816 0.357979
v -27.669682 46.147816 0.357980
v -27.669682 28.299587 0.357980
v -18.269451 28.299587 0.357979
v -18.269451 -43.093254 0.357979
v -27.669682 -43.093254 0.357980
v -27.669682 -61.710598 0.357980
v -18.269451 -61.710598 0.357979
v 19.458626 -61.710598 -0.000001
v 19.458626 -43.093254 -0.000001
v 19.458626 -43.093254 0.357977
v 19.458626 -61.710598 0.357977
v -18.269474 -61.710598 -0.000004
v -27.669704 -61.710598 -0.000003
v -27.669682 -43.093254 0.000002
v -18.269451 -43.093254 0.000001
v -27.669682 -43.093254 0.000002
v -27.669704 -61.710598 -0.000003
v -27.669682 -61.710598 0.357980
v -27.669682 -43.093254 0.357980
v 19.458626 46.147816 0.357977
v 19.458626 28.299587 0.357977
v 19.458626 28.299587 -0.000001
v 19.458626 46.147816 -0.000001
v 19.458626 -25.245045 -0.000001
v 19.458626 -25.245045 0.357977
v -27.669682 -25.245045 0.000002
v -18.269451 -25.245045 0.000001
v -27.669682 -25.245045 0.357980
v -27.669682 -25.245045 0.000002
v -18.269451 -25.245045 0.357979
v -27.669682 -25.245045 0.357980
v 19.458626 -7.396826 0.357977
v 19.458626 -7.396826 -0.000001
v -27.669682 -7.396826 0.000002
v -18.269451 -7.396826 0.000001
v -27.669682 -7.396826 0.357980
v -27.669682 -7.396826 0.000002
v -18.269451 -7.396826 0.357979
v -27.669682 -7.396826 0.357980
v 19.458626 10.451360 0.357977
v 19.458626 10.451360 -0.000001
v -27.669682 10.451360 0.000002
v -18.269451 10.451360 0.000001
v -27.669682 10.451360 0.357980
v -27.669682 10.451360 0.000002
v -18.269451 10.451360 0.357979
v -27.669682 10.451360 0.357980
v -27.669682 -80.327942 0.357980
v -18.269451 -80.327942 0.357979
v 19.458626 -80.327942 -0.000001
v 19.458626 -80.327942 0.357977
v -18.269474 -80.327942 -0.000004
v -27.669704 -80.327942 -0.000003
v -27.669704 -80.327942 -0.000003
v -27.669682 -80.327942 0.357980
v 19.458626 28.299587 -0.000001
v 9.931219 28.299587 -0.000001
v 9.931219 46.147816 -0.000001
v 19.458626 46.147816 -0.000001
v 19.458626 10.451360 -0.000001
v 9.931219 10.451360 -0.000001
v 19.458626 -7.396826 -0.000001
v 9.931219 -7.396826 -0.000001
v 19.458626 -25.245045 -0.000001
v 9.931219 -25.245045 -0.000001
v 19.458626 -43.093254 -0.000001
v 9.931219 -43.093254 -0.000001
v 19.458626 -61.710598 -0.000001
v 9.931219 -61.710598 -0.000001
v 19.458626 -80.327942 -0.000001
v 9.931219 -80.327942 -0.000001
v 19.458626 -80.327942 0.357977
v 9.931219 -80.327942 0.357977
v 9.931219 -80.327942 -0.000001
v 19.458626 -80.327942 -0.000001
v 19.458626 -61.710598 0.357977
v 9.931223 -61.710598 0.357977
v 9.931219 -80.327942 0.357977
v 19.458626 -80.327942 0.357977
v 19.458626 -43.093254 0.357977
v 9.931223 -43.093254 0.357977
v 19.458626 -25.245045 0.357977
v 9.931223 -25.245045 0.357977
v 19.458626 -7.396826 0.357977
v 9.931223 -7.396826 0.357977
v 19.458626 10.451360 0.357977
v 9.931223 10.451360 0.357977
v 19.458626 28.299587 0.357977
v 9.931223 28.299587 0.357977
v 19.458626 46.147816 0.357977
v 9.931223 46.147816 0.357977
v 19.458626 64.765152 0.357977
v 9.931223 64.765152 0.357977
v 19.458626 83.382492 0.357977
v 9.931219 83.382492 0.357977
v 19.458626 83.382492 0.357977
v 19.458626 83.382492 -0.000001
v 9.931219 83.382492 -0.000001
v 9.931219 83.382492 0.357977
v 19.458626 64.765152 -0.000001
v 9.931219 64.765152 -0.000001
v 9.931219 83.382492 -0.000001
v 19.458626 83.382492 -0.000001
v 0.530994 28.299587 -0.000000
v 0.530994 46.147816 -0.000000
v 0.530994 10.451360 -0.000000
v 0.530994 -7.396826 -0.000000
v 0.530994 -25.245045 -0.000000
v 0.530994 -43.093254 -0.000000
v 0.530994 -61.710598 -0.000000
v 0.530994 -80.327942 -0.000000
v 0.530994 -80.327942 0.357978
v 0.530994 -80.327942 -0.000000
v 0.530994 -61.710598 0.357978
v 0.530994 -80.327942 0.357978
v 0.530994 -43.093254 0.357978
v 0.530994 -25.245045 0.357978
v 0.530994 -7.396826 0.357978
v 0.530994 10.451360 0.357978
v 0.530994 28.299587 0.357978
v 0.530994 46.147816 0.357978
v 0.530994 64.765152 0.357978
v 0.530994 83.382492 0.357978
v 0.530994 83.382492 0.357978
v 0.530994 83.382492 -0.000000
v 0.530994 64.765152 -0.000000
v 0.530994 83.382492 -0.000000
v -8.869222 28.299587 0.000001
v -8.869222 46.147816 0.000001
v -8.869222 10.451360 0.000001
v -8.869222 -7.396826 0.000001
v -8.869222 -25.245045 0.000001
v -8.869222 -43.093254 0.000001
v -8.869222 -61.710598 0.000001
v -8.869222 -80.327942 0.000001
v -8.869222 -80.327942 0.357979
v -8.869222 -80.327942 0.000001
v -8.869222 -61.710598 0.357979
v -8.869222 -80.327942 0.357979
v -8.869222 -43.093254 0.357979
v -8.869222 -25.245045 0.357979
v -8.869222 -7.396826 0.357979
v -8.869222 10.451360 0.357979
v -8.869222 28.299587 0.357979
v -8.869222 46.147816 0.357979
v -8.869222 64.765152 0.357979
v -8.869222 83.382492 0.357979
v -8.869222 83.382492 0.357979
v -8.869222 83.382492 0.000001
v -8.869222 64.765152 0.000001
v -8.869222 83.382492 0.000001
vn -1.0000 -0.0000 -0.0000
vn 1.0000 -0.0000 -0.0000
vn -1.0000 0.0009 -0.0000
vn -1.0000 0.0008 0.0018
vn -0.9792 0.2028 0.0012
vn -0.9792 0.2028 -0.0000
vn -0.6379 0.7701 -0.0000
vn -0.6378 0.7702 0.0018
vn -0.0208 0.9998 0.0036
vn -0.0208 0.9998 -0.0000
vn 0.0208 0.9998 0.0036
vn -0.0110 0.7699 0.6380
vn 0.0110 0.7708 0.6370
vn 0.0068 0.2028 0.9792
vn -0.0068 0.2023 0.9793
vn -0.0104 0.0009 0.9999
vn 0.0104 0.0008 0.9999
vn 1.0000 0.0008 -0.0000
vn 0.9999 0.0008 -0.0118
vn 0.9792 0.2028 -0.0077
vn 0.9792 0.2028 -0.0000
vn 0.6380 0.7701 -0.0000
vn 0.6369 0.7709 -0.0122
vn 0.0206 0.9995 -0.0234
vn 0.0207 0.9998 0.0002
vn 0.0104 -0.0000 -0.9999
vn 0.0104 0.0009 -0.9999
vn 0.3827 0.0005 -0.9239
vn 0.3827 -0.0000 -0.9239
vn 0.9239 -0.0000 -0.3827
vn 0.9239 0.0005 -0.3826
vn 0.9999 0.0001 -0.0119
vn -0.0206 0.9995 -0.0236
vn 0.0110 0.7700 -0.6379
vn -0.0110 0.7708 -0.6370
vn -0.0067 0.2028 -0.9792
vn 0.0068 0.2024 -0.9793
vn -0.0104 0.0009 -0.9999
vn -0.9999 -0.0000 -0.0119
vn -0.9999 0.0008 -0.0118
vn -0.9239 0.0005 -0.3826
vn -0.9239 -0.0000 -0.3826
vn -0.3827 -0.0000 -0.9239
vn -0.3826 0.0005 -0.9239
vn -0.0104 -0.0000 -0.9999
vn 0.0206 -0.9995 -0.0236
vn -0.0206 -0.9995 -0.0236
vn -0.0110 -0.7700 -0.6379
vn 0.0110 -0.7708 -0.6370
vn 0.0068 -0.2028 -0.9792
vn -0.0068 -0.2024 -0.9793
vn -0.0104 -0.0009 -0.9999
vn 0.0104 -0.0009 -0.9999
vn -0.0208 -0.9998 -0.0000
vn -0.0208 -0.9998 0.0036
vn -0.6379 -0.7701 0.0018
vn -0.6379 -0.7701 -0.0000
vn -0.9792 -0.2028 -0.0000
vn -0.9792 -0.2027 0.0011
vn -1.0000 -0.0008 0.0018
vn -1.0000 -0.0009 0.0001
vn 0.0104 -0.0009 0.9999
vn -0.0104 -0.0008 0.9999
vn -0.0068 -0.2028 0.9792
vn 0.0068 -0.2023 0.9793
vn 0.0110 -0.7701 0.6379
vn -0.0110 -0.7708 0.6370
vn 0.0208 -0.9998 0.0036
vn -1.0000 -0.0000 0.0018
vn -0.9239 -0.0005 0.3826
vn -0.9239 -0.0000 0.3826
vn -0.3826 -0.0000 0.9239
vn -0.3825 -0.0005 0.9239
vn -0.0104 -0.0000 0.9999
vn 0.0104 -0.0000 0.9999
vn 0.3826 -0.0005 0.9239
vn 0.3827 -0.0000 0.9239
vn 0.9239 -0.0000 0.3827
vn 0.9239 -0.0006 0.3826
vn 1.0000 -0.0009 0.0018
vn 1.0000 -0.0000 0.0017
vn 1.0000 -0.0009 -0.0000
vn 0.9792 -0.2028 0.0012
vn 0.9792 -0.2029 -0.0000
vn 0.6380 -0.7700 -0.0000
vn 0.6379 -0.7702 0.0018
vn 0.0208 -0.9998 -0.0000
vn 0.6379 -0.7700 -0.0122
vn 0.6380 -0.7701 -0.0000
vn 0.9792 -0.2028 -0.0000
vn 0.9793 -0.2023 -0.0077
vn 0.9999 -0.0009 -0.0119
vn 1.0000 -0.0008 -0.0000
vn -1.0000 -0.0008 -0.0000
vn 0.0208 0.9998 -0.0000
vn -0.0210 0.9998 -0.0000
vn -1.0000 -0.0009 -0.0000
vn -0.9999 -0.0009 -0.0118
vn 0.9999 -0.0000 -0.0119
vn -1.0000 0.0008 -0.0000
vn -0.9999 -0.0000 -0.0118
vn 1.0000 0.0008 0.0018
vn 1.0000 0.0009 -0.0000
vn -1.0000 -0.0008 0.0001
vn -1.0000 -0.0000 0.0017
vn -0.3826 0.0005 0.9239
vn -0.9237 -0.0000 0.3830
vn -0.9239 0.0005 0.3825
vn 1.0000 -0.0000 0.0018
vn 1.0000 0.0009 0.0018
vn 0.9239 0.0006 0.3827
vn 0.3825 0.0005 0.9239
vn -0.6379 0.7701 -0.0122
vn -0.9792 0.2027 -0.0000
vn -0.9793 0.2023 -0.0077
vn -0.9792 -0.2027 -0.0077
vn -0.6369 -0.7708 -0.0122
vn 0.6380 0.7701 0.0018
vn 0.9792 0.2028 0.0011
vn -0.9792 -0.2027 -0.0000
vn 0.6380 0.7700 -0.0000
vn 0.9239 -0.0000 0.3828
vn -0.3827 -0.0000 0.9239
vn -0.3826 -0.0000 -0.9239
vn 0.9238 -0.0000 0.3828
vn -0.3827 -0.0005 -0.9239
vn -0.9239 -0.0006 -0.3825
vn 0.9239 -0.0005 -0.3827
vn 0.3826 -0.0005 -0.9239
vn -0.5087 0.6947 0.5086
vn -0.9254 0.1695 0.3389
vn -0.3390 0.1695 0.9254
vn 0.9254 0.1695 0.3389
vn 0.5087 0.6948 0.5084
vn 0.3390 0.1695 0.9254
vn 0.5087 0.6944 -0.5088
vn 0.9254 0.1695 -0.3389
vn 0.3390 0.1695 -0.9254
vn -0.3390 0.1695 -0.9254
vn -0.9254 0.1695 -0.3389
vn -0.5087 0.6945 -0.5089
vn -0.9254 -0.1695 -0.3390
vn -0.3390 -0.1695 -0.9254
vn -0.5088 -0.6945 -0.5088
vn -0.9254 -0.1695 0.3390
vn -0.5088 -0.6945 0.5088
vn -0.3389 -0.1695 0.9254
vn 0.9254 -0.1695 0.3390
vn 0.3389 -0.1695 0.9254
vn 0.5088 -0.6945 0.5087
vn 0.3390 -0.1695 -0.9254
vn 0.9254 -0.1695 -0.3390
vn 0.5089 -0.6945 -0.5087
vn -0.0000 -0.0000 -1.0000
vn -0.0000 -0.0000 1.0000
vn -0.0000 1.0000 -0.0000
vn -0.0000 -1.0000 -0.0000
vn 0.2104 -0.9776 -0.0000
vn 0.1029 -0.9945 0.0211
vn -0.8834 -0.0000 -0.4686
vn -0.1030 0.9945 -0.0211
vn -0.2104 0.9776 -0.0000
vn 0.0571 -0.9983 -0.0118
vn -0.0571 0.9983 0.0116
vn -0.1659 -0.0000 0.9861
vn 0.6372 -0.7596 0.1305
vn 0.1030 -0.9945 0.0211
vn 0.2102 -0.9777 -0.0000
vn 0.6427 -0.7661 -0.0000
vn 0.6372 -0.7596 0.1306
vn -0.6337 -0.0000 0.7736
vn -0.6338 -0.0000 -0.7735
vn -0.6372 0.7596 -0.1304
vn -0.6427 0.7661 -0.0000
vn 0.6372 -0.7596 -0.1304
vn 0.0572 -0.9983 -0.0117
vn 0.6372 -0.7596 -0.1305
vn -0.8834 -0.0000 0.4686
vn -0.6372 0.7596 0.1304
vn -1.0000 -0.0000 0.0001
vt 0.137174 0.254329
vt 0.228487 0.254109
vt 0.228657 0.332799
vt 0.137396 0.332799
vt 0.143299 0.173060
vt 0.143324 0.124721
vt 0.199448 0.124721
vt 0.199427 0.173086
vt 0.319753 0.254088
vt 0.319798 0.332799
vt 0.255565 0.124721
vt 0.255560 0.173086
vt 0.410952 0.254101
vt 0.410945 0.332799
vt 0.311680 0.124721
vt 0.311685 0.173080
vt 0.502155 0.254103
vt 0.502110 0.332799
vt 0.367795 0.124721
vt 0.367806 0.173074
vt 0.593410 0.254132
vt 0.593296 0.332798
vt 0.423910 0.124721
vt 0.423927 0.173066
vt 0.684663 0.254292
vt 0.684550 0.332798
vt 0.480033 0.124721
vt 0.480039 0.173048
vt 0.143344 0.076432
vt 0.199444 0.076412
vt 0.255558 0.076408
vt 0.311674 0.076409
vt 0.367791 0.076409
vt 0.423906 0.076410
vt 0.480020 0.076405
vt 0.593372 0.411302
vt 0.684573 0.411258
vt 0.502157 0.411346
vt 0.410954 0.411367
vt 0.319744 0.411351
vt 0.228511 0.411301
vt 0.137302 0.411183
vt 0.046761 0.411252
vt 0.046961 0.488505
vt 0.046561 0.488508
vt 0.046356 0.411254
vt 0.046160 0.488507
vt 0.045951 0.411256
vt 0.031769 0.488566
vt 0.046165 0.488859
vt 0.031766 0.488926
vt 0.046482 0.503722
vt 0.046556 0.489280
vt 0.046956 0.489260
vt 0.046874 0.503723
vt 0.087514 0.173051
vt 0.087517 0.180023
vt 0.087268 0.180025
vt 0.087263 0.173051
vt 0.030885 0.254492
vt 0.031106 0.243047
vt 0.031513 0.243068
vt 0.031291 0.254494
vt 0.137061 0.227659
vt 0.046583 0.228232
vt 0.046580 0.227833
vt 0.137059 0.227259
vt 0.143295 0.180265
vt 0.087517 0.180250
vt 0.143295 0.180038
vt 0.045875 0.243443
vt 0.031523 0.242721
vt 0.045887 0.243082
vt 0.046248 0.242682
vt 0.046190 0.228236
vt 0.046647 0.242671
vt 0.137130 0.243003
vt 0.046650 0.243435
vt 0.046649 0.243068
vt 0.137128 0.242636
vt 0.137126 0.242236
vt 0.790383 0.242808
vt 0.775925 0.243194
vt 0.775914 0.242830
vt 0.790373 0.242452
vt 0.775578 0.227973
vt 0.775547 0.242436
vt 0.775147 0.242426
vt 0.775183 0.227971
vt 0.775976 0.411291
vt 0.775833 0.488969
vt 0.775430 0.488968
vt 0.775570 0.411290
vt 0.775027 0.488965
vt 0.775164 0.411290
vt 0.775063 0.504234
vt 0.775029 0.489724
vt 0.775431 0.489741
vt 0.775459 0.504237
vt 0.790323 0.489402
vt 0.775828 0.489328
vt 0.790319 0.489038
vt 0.684653 0.489208
vt 0.775028 0.489328
vt 0.684654 0.489576
vt 0.684655 0.489975
vt 0.684695 0.504529
vt 0.775065 0.504634
vt 0.684696 0.504928
vt 0.480003 0.028167
vt 0.535771 0.028137
vt 0.535771 0.028363
vt 0.480003 0.028394
vt 0.535811 0.076380
vt 0.536021 0.028363
vt 0.536061 0.076380
vt 0.790925 0.411353
vt 0.790723 0.489037
vt 0.790520 0.411352
vt 0.790560 0.254324
vt 0.790795 0.242793
vt 0.790967 0.254322
vt 0.536069 0.173067
vt 0.536061 0.180047
vt 0.535812 0.180044
vt 0.535819 0.173067
vt 0.775185 0.254469
vt 0.775457 0.332798
vt 0.535850 0.124721
vt 0.684735 0.227625
vt 0.684693 0.242195
vt 0.776276 0.332798
vt 0.775997 0.254461
vt 0.790882 0.332798
vt 0.030702 0.332799
vt 0.045808 0.254657
vt 0.045321 0.332799
vt 0.684691 0.242963
vt 0.775145 0.243192
vt 0.480040 0.180026
vt 0.046618 0.254667
vt 0.046138 0.332799
vt 0.087482 0.124721
vt 0.137102 0.489851
vt 0.137018 0.504382
vt 0.228467 0.242757
vt 0.228442 0.227372
vt 0.228465 0.241985
vt 0.199424 0.180070
vt 0.228346 0.490260
vt 0.228306 0.504871
vt 0.319752 0.242743
vt 0.319753 0.227373
vt 0.319752 0.241972
vt 0.255560 0.180070
vt 0.319708 0.490308
vt 0.319709 0.504901
vt 0.410953 0.242761
vt 0.410955 0.227400
vt 0.410953 0.241991
vt 0.311686 0.180062
vt 0.410969 0.490263
vt 0.410974 0.504843
vt 0.502158 0.242758
vt 0.502160 0.227392
vt 0.502158 0.241988
vt 0.367807 0.180055
vt 0.502199 0.490236
vt 0.502205 0.504816
vt 0.593425 0.242782
vt 0.593446 0.227410
vt 0.593427 0.242011
vt 0.423930 0.180044
vt 0.593461 0.490188
vt 0.593483 0.504771
vt 0.087671 0.028466
vt 0.143346 0.028465
vt 0.087597 0.076387
vt 0.199428 0.028409
vt 0.255550 0.028399
vt 0.311669 0.028394
vt 0.367790 0.028392
vt 0.423903 0.028396
vt 0.593459 0.489417
vt 0.502199 0.489466
vt 0.410969 0.489493
vt 0.319708 0.489538
vt 0.228348 0.489489
vt 0.137106 0.489084
vt 0.031449 0.411364
vt 0.046959 0.488865
vt 0.137104 0.489451
vt 0.087671 0.028240
vt 0.143346 0.028238
vt 0.137015 0.504781
vt 0.046871 0.504120
vt 0.228441 0.226970
vt 0.199424 0.180297
vt 0.046264 0.243440
vt 0.046213 0.254664
vt 0.775535 0.243193
vt 0.775591 0.254468
vt 0.031367 0.488566
vt 0.031045 0.411366
vt 0.087347 0.076387
vt 0.087421 0.028465
vt 0.536101 0.124721
vt 0.791289 0.332798
vt 0.045729 0.332799
vt 0.775866 0.332798
vt 0.087232 0.124721
vt 0.030295 0.332799
vt 0.228466 0.242388
vt 0.228347 0.489859
vt 0.319752 0.242374
vt 0.319753 0.226972
vt 0.255560 0.180297
vt 0.199428 0.028183
vt 0.228305 0.505273
vt 0.319708 0.489907
vt 0.410953 0.242392
vt 0.410955 0.226999
vt 0.311686 0.180289
vt 0.255550 0.028172
vt 0.319709 0.505302
vt 0.410969 0.489862
vt 0.502158 0.242389
vt 0.502160 0.226991
vt 0.367807 0.180282
vt 0.311669 0.028167
vt 0.410974 0.505244
vt 0.502199 0.489834
vt 0.593426 0.242413
vt 0.593447 0.227008
vt 0.423930 0.180271
vt 0.367790 0.028165
vt 0.502205 0.505217
vt 0.593460 0.489787
vt 0.684692 0.242594
vt 0.684736 0.227224
vt 0.480040 0.180253
vt 0.423903 0.028170
vt 0.593484 0.505172
vt 0.775146 0.242823
vt 0.535812 0.180271
vt 0.775185 0.227573
vt 0.046582 0.488823
vt 0.087468 0.028292
vt 0.031437 0.488710
vt 0.046550 0.503934
vt 0.031201 0.242745
vt 0.087308 0.180211
vt 0.046255 0.228027
vt 0.046284 0.243100
vt 0.775514 0.242850
vt 0.775408 0.489293
vt 0.535982 0.028167
vt 0.775391 0.504510
vt 0.790658 0.489158
vt 0.775512 0.227704
vt 0.536020 0.180241
vt 0.790708 0.242456
vt 0.865707 0.982192
vt 0.853418 0.982771
vt 0.846812 0.799100
vt 0.859466 0.798886
vt 0.846894 0.612782
vt 0.859497 0.612787
vt 0.847038 0.426760
vt 0.859641 0.426767
vt 0.847118 0.240742
vt 0.859721 0.240748
vt 0.919680 0.794029
vt 0.932281 0.794035
vt 0.932202 0.980055
vt 0.919600 0.980049
vt 0.919755 0.608006
vt 0.932357 0.608015
vt 0.919878 0.421713
vt 0.932460 0.421914
vt 0.925823 0.238224
vt 0.938274 0.238761
vt 0.922189 0.238108
vt 0.924456 0.238180
vt 0.918513 0.421692
vt 0.916245 0.421655
vt 0.943029 0.422075
vt 0.940763 0.422040
vt 0.946263 0.238936
vt 0.948529 0.239004
vt 0.843181 0.799165
vt 0.845447 0.799123
vt 0.852051 0.982820
vt 0.849783 0.982902
vt 0.876048 0.981922
vt 0.873782 0.981994
vt 0.867765 0.798747
vt 0.870035 0.798710
vt 0.854695 0.986609
vt 0.853920 0.984273
vt 0.866995 0.982228
vt 0.867467 0.984578
vt 0.843261 0.612780
vt 0.845528 0.612781
vt 0.867787 0.612793
vt 0.870054 0.612795
vt 0.843404 0.426758
vt 0.845673 0.426759
vt 0.867930 0.426773
vt 0.870197 0.426774
vt 0.843486 0.240741
vt 0.845753 0.240742
vt 0.868012 0.240752
vt 0.870279 0.240753
vt 0.916047 0.794029
vt 0.918314 0.794029
vt 0.918235 0.980049
vt 0.915967 0.980048
vt 0.942760 0.980059
vt 0.940493 0.980059
vt 0.940573 0.794039
vt 0.942840 0.794039
vt 0.916122 0.608004
vt 0.918389 0.608005
vt 0.940647 0.608019
vt 0.942915 0.608020
vt 0.939976 0.236329
vt 0.939553 0.238722
vt 0.926289 0.236716
vt 0.927008 0.234353
vt 0.940798 0.236228
vt 0.942230 0.236104
vt 0.942044 0.238236
vt 0.940224 0.238747
vt 0.935398 0.421580
vt 0.941029 0.238411
vt 0.942013 0.238451
vt 0.936411 0.421597
vt 0.935284 0.607636
vt 0.936295 0.607638
vt 0.935209 0.793656
vt 0.936220 0.793657
vt 0.935129 0.979677
vt 0.936140 0.979678
vt 0.862566 0.426390
vt 0.862648 0.240370
vt 0.863659 0.240372
vt 0.863578 0.426390
vt 0.862423 0.612409
vt 0.863434 0.612410
vt 0.862387 0.798458
vt 0.863401 0.798442
vt 0.868484 0.981789
vt 0.869469 0.981749
vt 0.868308 0.984644
vt 0.867665 0.982202
vt 0.869504 0.982391
vt 0.869704 0.984700
vt 0.934517 0.421944
vt 0.933843 0.421935
vt 0.860847 0.798862
vt 0.861523 0.798850
vt 0.860877 0.612790
vt 0.861551 0.612790
vt 0.861020 0.426768
vt 0.861694 0.426768
vt 0.861102 0.240749
vt 0.861775 0.240749
vt 0.933663 0.794037
vt 0.934337 0.794036
vt 0.934256 0.980055
vt 0.933584 0.980056
vt 0.933739 0.608015
vt 0.934412 0.608016
vt 0.938293 0.422003
vt 0.943797 0.238866
vt 0.938177 0.608018
vt 0.938103 0.794038
vt 0.938024 0.980058
vt 0.865461 0.426771
vt 0.865542 0.240751
vt 0.865317 0.612792
vt 0.865295 0.798787
vt 0.871316 0.982071
vt 0.946355 0.236557
vt 0.943685 0.236296
vt 0.871120 0.984581
vt 0.873823 0.984398
vt 0.943004 0.238476
vt 0.937424 0.421613
vt 0.937306 0.607638
vt 0.937231 0.793657
vt 0.937151 0.979678
vt 0.864670 0.240371
vt 0.864588 0.426390
vt 0.864446 0.612410
vt 0.864414 0.798425
vt 0.870460 0.981719
vt 0.020639 0.547698
vt 0.018972 0.632864
vt 0.015640 0.632772
vt 0.018981 0.546053
vt 0.104982 0.546377
vt 0.105437 0.633596
vt 0.020486 0.984585
vt 0.105016 0.985594
vt 0.104952 0.988926
vt 0.018831 0.986246
vt 0.632344 0.171708
vt 0.632344 0.212731
vt 0.591720 0.212731
vt 0.591720 0.171707
vt 0.104905 0.543041
vt 0.711913 0.171708
vt 0.711914 0.212731
vt 0.672967 0.212731
vt 0.672968 0.171707
vt 0.784971 0.633647
vt 0.783448 0.548657
vt 0.785105 0.547015
vt 0.788295 0.633565
vt 0.192210 0.545507
vt 0.192185 0.542140
vt 0.276249 0.541788
vt 0.276257 0.545160
vt 0.192630 0.633618
vt 0.276424 0.633557
vt 0.611638 0.634098
vt 0.612223 0.546180
vt 0.699271 0.547194
vt 0.698676 0.634235
vt 0.699240 0.988975
vt 0.611898 0.989967
vt 0.611870 0.986600
vt 0.699165 0.985642
vt 0.908320 0.171708
vt 0.908319 0.212731
vt 0.867696 0.212731
vt 0.867696 0.171708
vt 0.612254 0.542825
vt 0.699352 0.543871
vt 0.192164 0.986222
vt 0.275923 0.986551
vt 0.275910 0.989909
vt 0.192143 0.989577
vt 0.527760 0.990403
vt 0.527751 0.987031
vt 0.828750 0.212731
vt 0.828750 0.171707
vt 0.528346 0.545628
vt 0.528364 0.542265
vt 0.527931 0.633880
vt 0.443630 0.987078
vt 0.443624 0.990452
vt 0.789804 0.212731
vt 0.789804 0.171707
vt 0.444399 0.545285
vt 0.444411 0.541917
vt 0.444129 0.633684
vt 0.359685 0.986832
vt 0.359673 0.990197
vt 0.750859 0.212731
vt 0.750859 0.171707
vt 0.360354 0.545100
vt 0.360357 0.541725
vt 0.360281 0.633571
vt 0.785238 0.985985
vt 0.783580 0.984334
vt 0.948943 0.171707
vt 0.948943 0.212731
vt 0.711913 0.007614
vt 0.711913 0.048637
vt 0.672968 0.048638
vt 0.672968 0.007614
vt 0.750859 0.007614
vt 0.750859 0.048638
vt 0.789804 0.007614
vt 0.789805 0.048638
vt 0.828750 0.007614
vt 0.828750 0.048638
vt 0.867696 0.007614
vt 0.867695 0.048637
vt 0.908319 0.007614
vt 0.908319 0.048638
vt 0.948943 0.007614
vt 0.948943 0.048638
vt 0.785448 0.899015
vt 0.788792 0.899110
vt 0.698726 0.898297
vt 0.611379 0.898408
vt 0.527525 0.898611
vt 0.443677 0.898611
vt 0.359950 0.898533
vt 0.276280 0.898399
vt 0.192602 0.898301
vt 0.105317 0.898326
vt 0.018450 0.899171
vt 0.015101 0.899273
vt 0.632344 0.007614
vt 0.632344 0.048637
vt 0.591720 0.048638
vt 0.591720 0.007614
vt 0.711913 0.089661
vt 0.672968 0.089661
vt 0.750859 0.089661
vt 0.789804 0.089661
vt 0.828750 0.089661
vt 0.867695 0.089661
vt 0.908319 0.089661
vt 0.948943 0.089661
vt 0.786818 0.810211
vt 0.790181 0.810211
vt 0.698962 0.810213
vt 0.611066 0.810215
vt 0.527218 0.810217
vt 0.443643 0.810219
vt 0.360156 0.810221
vt 0.276676 0.810223
vt 0.193042 0.810225
vt 0.105200 0.810227
vt 0.016884 0.810229
vt 0.013524 0.810229
vt 0.632344 0.089661
vt 0.591720 0.089661
vt 0.711913 0.130684
vt 0.672968 0.130684
vt 0.750859 0.130684
vt 0.789804 0.130684
vt 0.828750 0.130684
vt 0.867696 0.130684
vt 0.908319 0.130684
vt 0.948943 0.130684
vt 0.786111 0.721581
vt 0.789477 0.721545
vt 0.698780 0.722045
vt 0.611379 0.722109
vt 0.527608 0.722046
vt 0.443895 0.721957
vt 0.360216 0.721906
vt 0.276522 0.721877
vt 0.192749 0.721825
vt 0.105286 0.721709
vt 0.017650 0.721105
vt 0.014269 0.721059
vt 0.632344 0.130684
vt 0.591720 0.130684
s 1
usemtl 1001
f 1/1/1 2/2/1 3/3/1
f 3/3/1 4/4/1 1/1/1
f 5/5/2 6/6/2 7/7/2
f 7/7/2 8/8/2 5/5/2
f 2/2/1 9/9/1 10/10/1
f 10/10/1 3/3/1 2/2/1
f 8/8/2 7/7/2 11/11/2
f 11/11/2 12/12/2 8/8/2
f 9/9/1 13/13/1 14/14/1
f 14/14/1 10/10/1 9/9/1
f 12/12/2 11/11/2 15/15/2
f 15/15/2 16/16/2 12/12/2
f 13/13/1 17/17/1 18/18/1
f 18/18/1 14/14/1 13/13/1
f 16/16/2 15/15/2 19/19/2
f 19/19/2 20/20/2 16/16/2
f 17/17/1 21/21/1 22/22/1
f 22/22/1 18/18/1 17/17/1
f 20/20/2 19/19/2 23/23/2
f 23/23/2 24/24/2 20/20/2
f 21/21/1 25/25/1 26/26/1
f 26/26/1 22/22/1 21/21/1
f 24/24/2 23/23/2 27/27/2
f 27/27/2 28/28/2 24/24/2
f 6/6/2 29/29/2 30/30/2
f 30/30/2 7/7/2 6/6/2
f 7/7/2 30/30/2 31/31/2
f 31/31/2 11/11/2 7/7/2
f 11/11/2 31/31/2 32/32/2
f 32/32/2 15/15/2 11/11/2
f 15/15/2 32/32/2 33/33/2
f 33/33/2 19/19/2 15/15/2
f 19/19/2 33/33/2 34/34/2
f 34/34/2 23/23/2 19/19/2
f 23/23/2 34/34/2 35/35/2
f 35/35/2 27/27/2 23/23/2
f 36/36/1 22/22/1 26/26/1
f 26/26/1 37/37/1 36/36/1
f 38/38/1 18/18/1 22/22/1
f 22/22/1 36/36/1 38/38/1
f 39/39/1 14/14/1 18/18/1
f 18/18/1 38/38/1 39/39/1
f 40/40/1 10/10/1 14/14/1
f 14/14/1 39/39/1 40/40/1
f 41/41/1 3/3/1 10/10/1
f 10/10/1 40/40/1 41/41/1
f 42/42/1 4/4/1 3/3/1
f 3/3/1 41/41/1 42/42/1
f 43/43/3 44/44/4 45/45/5
f 45/45/5 46/46/6 43/43/3
f 47/46/7 48/45/8 49/47/9
f 49/47/9 50/48/10 47/46/7
f 51/49/11 49/47/9 52/50/12
f 52/50/12 53/51/13 51/49/11
f 54/52/14 55/53/15 56/54/16
f 56/54/16 57/55/17 54/52/14
f 58/56/18 59/57/19 60/58/20
f 60/58/20 61/59/21 58/56/18
f 62/60/22 63/61/23 64/62/24
f 64/62/24 65/63/25 62/60/22
f 66/64/26 67/65/27 68/66/28
f 68/66/28 69/67/29 66/64/26
f 70/68/30 71/69/31 59/57/19
f 59/57/19 72/70/32 70/68/30
f 73/71/33 64/62/24 74/72/34
f 74/72/34 75/73/35 73/71/33
f 76/74/36 77/75/37 67/65/27
f 67/65/27 78/76/38 76/74/36
f 79/77/39 80/78/40 81/79/41
f 81/79/41 82/80/42 79/77/39
f 83/80/43 84/79/44 78/76/38
f 78/76/38 85/81/45 83/80/43
f 86/82/46 87/83/47 88/84/48
f 88/84/48 89/85/49 86/82/46
f 90/86/50 91/87/51 92/88/52
f 92/88/52 93/89/53 90/86/50
f 94/90/54 95/91/55 96/92/56
f 96/92/56 97/93/57 94/90/54
f 98/93/58 99/92/59 100/94/60
f 100/94/60 101/95/61 98/93/58
f 102/96/62 103/97/63 104/98/64
f 104/98/64 105/99/65 102/96/62
f 106/100/66 107/101/67 95/91/55
f 95/91/55 108/102/68 106/100/66
f 109/103/69 100/94/60 110/104/70
f 110/104/70 111/105/71 109/103/69
f 112/105/72 113/104/73 103/97/63
f 103/97/63 114/106/74 112/105/72
f 115/107/75 102/96/62 116/108/76
f 116/108/76 117/109/77 115/107/75
f 118/110/78 119/111/79 120/112/80
f 120/112/80 121/113/81 118/110/78
f 122/114/82 120/112/80 123/115/83
f 123/115/83 124/116/84 122/114/82
f 125/117/85 126/118/86 108/102/68
f 108/102/68 127/119/87 125/117/85
f 128/120/87 86/82/46 129/121/88
f 129/121/88 130/122/89 128/120/87
f 131/123/90 132/124/91 133/125/92
f 133/125/92 134/126/93 131/123/90
f 25/25/1 135/127/94 136/128/94
f 136/128/94 26/26/1 25/25/1
f 114/106/74 103/97/63 102/96/62
f 102/96/62 115/107/75 114/106/74
f 28/28/2 27/27/2 137/129/93
f 137/129/93 134/126/93 28/28/2
f 138/130/26 93/89/53 92/88/52
f 92/88/52 139/131/45 138/130/26
f 140/132/54 141/133/54 128/120/87
f 128/120/87 142/134/87 140/132/54
f 143/135/95 65/63/25 144/136/96
f 144/136/96 145/137/10 143/135/95
f 135/127/97 25/25/1 146/138/39
f 146/138/39 147/139/98 135/127/97
f 141/133/54 87/83/47 86/82/46
f 86/82/46 128/120/87 141/133/54
f 28/28/2 134/126/93 133/125/92
f 133/125/92 148/140/99 28/28/2
f 65/63/25 64/62/24 73/71/33
f 73/71/33 144/136/96 65/63/25
f 149/141/100 1/1/1 4/4/1
f 4/4/1 150/142/100 149/141/100
f 149/141/3 80/78/40 79/77/39
f 79/77/39 1/1/1 149/141/3
f 67/65/27 66/64/26 85/81/45
f 85/81/45 78/76/38 67/65/27
f 58/56/18 5/5/2 72/70/32
f 72/70/32 59/57/19 58/56/18
f 58/56/18 151/143/18 6/6/2
f 6/6/2 5/5/2 58/56/18
f 56/54/16 152/144/74 153/145/75
f 153/145/75 57/55/17 56/54/16
f 2/2/1 1/1/1 79/77/39
f 79/77/39 154/146/101 2/2/1
f 66/64/26 155/147/26 156/148/45
f 156/148/45 85/81/45 66/64/26
f 5/5/2 8/8/2 157/149/99
f 157/149/99 72/70/32 5/5/2
f 152/144/74 158/150/74 159/151/75
f 159/151/75 153/145/75 152/144/74
f 9/9/1 2/2/1 154/146/101
f 154/146/101 160/152/101 9/9/1
f 155/147/26 161/153/26 162/154/45
f 162/154/45 156/148/45 155/147/26
f 8/8/2 12/12/2 163/155/99
f 163/155/99 157/149/99 8/8/2
f 158/150/74 164/156/74 165/157/75
f 165/157/75 159/151/75 158/150/74
f 13/13/1 9/9/1 160/152/101
f 160/152/101 166/158/101 13/13/1
f 161/153/26 167/159/26 168/160/45
f 168/160/45 162/154/45 161/153/26
f 12/12/2 16/16/2 169/161/99
f 169/161/99 163/155/99 12/12/2
f 164/156/74 170/162/74 171/163/75
f 171/163/75 165/157/75 164/156/74
f 17/17/1 13/13/1 166/158/101
f 166/158/101 172/164/101 17/17/1
f 167/159/26 173/165/26 174/166/45
f 174/166/45 168/160/45 167/159/26
f 16/16/2 20/20/2 175/167/99
f 175/167/99 169/161/99 16/16/2
f 170/162/74 176/168/74 177/169/75
f 177/169/75 171/163/75 170/162/74
f 21/21/1 17/17/1 172/164/101
f 172/164/101 178/170/101 21/21/1
f 173/165/26 179/171/26 180/172/45
f 180/172/45 174/166/45 173/165/26
f 20/20/2 24/24/2 181/173/99
f 181/173/99 175/167/99 20/20/2
f 176/168/74 182/174/74 183/175/75
f 183/175/75 177/169/75 176/168/74
f 25/25/1 21/21/1 178/170/101
f 178/170/101 146/138/39 25/25/1
f 179/171/26 138/130/26 139/131/45
f 139/131/45 180/172/45 179/171/26
f 24/24/2 28/28/2 148/140/99
f 148/140/99 181/173/99 24/24/2
f 182/174/74 114/106/74 115/107/75
f 115/107/75 183/175/75 182/174/74
f 184/176/102 185/177/81 29/29/2
f 29/29/2 186/178/103 184/176/102
f 185/177/81 187/179/81 30/30/2
f 30/30/2 29/29/2 185/177/81
f 187/179/81 188/180/81 31/31/2
f 31/31/2 30/30/2 187/179/81
f 188/180/81 189/181/81 32/32/2
f 32/32/2 31/31/2 188/180/81
f 189/181/81 190/182/81 33/33/2
f 33/33/2 32/32/2 189/181/81
f 190/182/81 191/183/81 34/34/2
f 34/34/2 33/33/2 190/182/81
f 191/183/81 121/113/81 35/35/2
f 35/35/2 34/34/2 191/183/81
f 121/113/81 120/112/80 122/114/93
f 122/114/93 35/35/2 121/113/81
f 95/91/55 94/90/54 127/119/87
f 127/119/87 108/102/68 95/91/55
f 109/103/69 37/37/1 101/95/104
f 101/95/104 100/94/60 109/103/69
f 192/184/105 36/36/1 37/37/1
f 37/37/1 109/103/69 192/184/105
f 193/185/105 38/38/1 36/36/1
f 36/36/1 192/184/105 193/185/105
f 194/186/105 39/39/1 38/38/1
f 38/38/1 193/185/105 194/186/105
f 195/187/105 40/40/1 39/39/1
f 39/39/1 194/186/105 195/187/105
f 196/188/105 41/41/1 40/40/1
f 40/40/1 195/187/105 196/188/105
f 197/189/105 42/42/1 41/41/1
f 41/41/1 196/188/105 197/189/105
f 44/44/4 43/43/100 42/42/1
f 42/42/1 197/189/105 44/44/4
f 51/49/11 198/190/95 50/48/10
f 50/48/10 49/47/9 51/49/11
f 151/143/18 186/178/103 29/29/2
f 29/29/2 6/6/2 151/143/18
f 27/27/2 35/35/2 122/114/93
f 122/114/93 137/129/93 27/27/2
f 94/90/54 140/132/54 142/134/87
f 142/134/87 127/119/87 94/90/54
f 37/37/1 26/26/1 136/128/94
f 136/128/94 101/95/104 37/37/1
f 43/43/100 150/142/100 4/4/1
f 4/4/1 42/42/1 43/43/100
f 198/190/95 143/135/95 145/137/10
f 145/137/10 50/48/10 198/190/95
f 152/144/74 56/54/16 199/191/106
f 199/191/106 200/192/72 152/144/74
f 201/192/107 202/191/108 44/44/4
f 44/44/4 197/189/69 201/192/107
f 185/177/109 184/176/110 203/193/111
f 203/193/111 204/194/78 185/177/109
f 205/195/77 206/196/112 57/55/17
f 57/55/17 153/145/75 205/195/77
f 155/147/26 66/64/26 69/67/29
f 69/67/29 207/197/29 155/147/26
f 208/198/30 70/68/30 72/70/32
f 72/70/32 157/149/99 208/198/30
f 144/136/96 73/71/33 209/199/113
f 209/199/113 210/200/7 144/136/96
f 211/200/114 212/199/115 80/78/40
f 80/78/40 149/141/3 211/200/114
f 135/127/97 147/139/98 213/201/116
f 213/201/116 214/202/58 135/127/97
f 215/202/57 216/201/117 87/83/47
f 87/83/47 141/133/54 215/202/57
f 198/190/95 51/49/11 217/203/118
f 217/203/118 218/204/22 198/190/95
f 219/205/21 220/206/119 184/176/110
f 184/176/110 186/178/18 219/205/21
f 137/129/82 122/114/82 124/116/84
f 124/116/84 221/207/84 137/129/82
f 222/208/89 125/117/85 127/119/87
f 127/119/87 142/134/87 222/208/89
f 145/137/10 144/136/96 210/200/7
f 210/200/7 223/209/7 145/137/10
f 224/209/114 211/200/114 149/141/3
f 149/141/3 150/142/3 224/209/114
f 136/128/97 135/127/97 214/202/58
f 214/202/58 225/210/120 136/128/97
f 226/210/57 215/202/57 141/133/54
f 141/133/54 140/132/54 226/210/57
f 151/143/18 58/56/18 61/59/21
f 61/59/21 227/211/21 151/143/18
f 228/212/121 62/60/22 65/63/25
f 65/63/25 143/135/95 228/212/121
f 154/146/101 79/77/39 82/80/42
f 82/80/42 229/213/42 154/146/101
f 230/213/43 83/80/43 85/81/45
f 85/81/45 156/148/45 230/213/43
f 158/150/74 152/144/74 200/192/72
f 200/192/72 231/214/72 158/150/74
f 232/214/71 201/192/107 197/189/69
f 197/189/69 196/188/69 232/214/71
f 160/152/101 154/146/101 229/213/42
f 229/213/42 233/215/42 160/152/101
f 234/215/43 230/213/43 156/148/45
f 156/148/45 162/154/45 234/215/43
f 161/153/26 155/147/26 207/197/29
f 207/197/29 235/216/29 161/153/26
f 236/217/30 208/198/30 157/149/99
f 157/149/99 163/155/99 236/217/30
f 187/179/81 185/177/109 204/194/78
f 204/194/78 237/218/122 187/179/81
f 238/219/77 205/195/77 153/145/75
f 153/145/75 159/151/75 238/219/77
f 164/156/74 158/150/74 231/214/72
f 231/214/72 239/220/72 164/156/74
f 240/220/71 232/214/71 196/188/69
f 196/188/69 195/187/69 240/220/71
f 166/158/101 160/152/101 233/215/42
f 233/215/42 241/221/42 166/158/101
f 242/221/43 234/215/43 162/154/45
f 162/154/45 168/160/45 242/221/43
f 167/159/26 161/153/26 235/216/29
f 235/216/29 243/222/29 167/159/26
f 244/223/30 236/217/30 163/155/99
f 163/155/99 169/161/99 244/223/30
f 188/180/81 187/179/81 237/218/122
f 237/218/122 245/224/78 188/180/81
f 246/225/77 238/219/77 159/151/75
f 159/151/75 165/157/75 246/225/77
f 170/162/74 164/156/74 239/220/72
f 239/220/72 247/226/123 170/162/74
f 248/226/71 240/220/71 195/187/69
f 195/187/69 194/186/69 248/226/71
f 172/164/101 166/158/101 241/221/42
f 241/221/42 249/227/42 172/164/101
f 250/227/43 242/221/43 168/160/45
f 168/160/45 174/166/45 250/227/43
f 173/165/26 167/159/26 243/222/29
f 243/222/29 251/228/29 173/165/26
f 252/229/30 244/223/30 169/161/99
f 169/161/99 175/167/99 252/229/30
f 189/181/81 188/180/81 245/224/78
f 245/224/78 253/230/122 189/181/81
f 254/231/77 246/225/77 165/157/75
f 165/157/75 171/163/75 254/231/77
f 176/168/74 170/162/74 247/226/123
f 247/226/123 255/232/123 176/168/74
f 256/232/71 248/226/71 194/186/69
f 194/186/69 193/185/69 256/232/71
f 178/170/101 172/164/101 249/227/42
f 249/227/42 257/233/42 178/170/101
f 258/233/124 250/227/43 174/166/45
f 174/166/45 180/172/45 258/233/124
f 179/171/26 173/165/26 251/228/29
f 251/228/29 259/234/29 179/171/26
f 260/235/30 252/229/30 175/167/99
f 175/167/99 181/173/99 260/235/30
f 190/182/81 189/181/81 253/230/122
f 253/230/122 261/236/125 190/182/81
f 262/237/77 254/231/77 171/163/75
f 171/163/75 177/169/75 262/237/77
f 182/174/74 176/168/74 255/232/123
f 255/232/123 263/238/123 182/174/74
f 264/238/71 256/232/71 193/185/69
f 193/185/69 192/184/69 264/238/71
f 146/138/39 178/170/101 257/233/42
f 257/233/42 265/239/42 146/138/39
f 266/239/124 258/233/124 180/172/45
f 180/172/45 139/131/45 266/239/124
f 138/130/26 179/171/26 259/234/29
f 259/234/29 267/240/29 138/130/26
f 268/241/30 260/235/30 181/173/99
f 181/173/99 148/140/99 268/241/30
f 191/183/81 190/182/81 261/236/125
f 261/236/125 269/242/78 191/183/81
f 270/243/77 262/237/77 177/169/75
f 177/169/75 183/175/75 270/243/77
f 114/106/74 182/174/74 263/238/123
f 263/238/123 112/105/72 114/106/74
f 111/105/71 264/238/71 192/184/69
f 192/184/69 109/103/69 111/105/71
f 139/131/45 92/88/52 271/244/126
f 271/244/126 266/239/124 139/131/45
f 265/239/42 272/244/127 147/139/98
f 147/139/98 146/138/39 265/239/42
f 148/140/99 133/125/92 273/245/128
f 273/245/128 268/241/30 148/140/99
f 267/240/29 274/246/129 93/89/53
f 93/89/53 138/130/26 267/240/29
f 121/113/81 191/183/81 269/242/78
f 269/242/78 118/110/78 121/113/81
f 117/109/77 270/243/77 183/175/75
f 183/175/75 115/107/75 117/109/77
f 143/135/95 198/190/95 218/204/22
f 218/204/22 228/212/121 143/135/95
f 227/211/21 219/205/21 186/178/18
f 186/178/18 151/143/18 227/211/21
f 142/134/87 128/120/87 130/122/89
f 130/122/89 222/208/89 142/134/87
f 221/207/84 131/123/90 134/126/93
f 134/126/93 137/129/82 221/207/84
f 101/95/61 136/128/97 225/210/120
f 225/210/120 98/93/58 101/95/61
f 97/93/57 226/210/57 140/132/54
f 140/132/54 94/90/54 97/93/57
f 50/48/10 145/137/10 223/209/7
f 223/209/7 47/46/7 50/48/10
f 46/46/6 224/209/114 150/142/3
f 150/142/3 43/43/3 46/46/6
f 275/247/130 52/50/12 49/47/9
f 49/47/9 48/45/8 275/247/130
f 276/247/131 45/45/5 44/44/4
f 44/44/4 202/191/108 276/247/131
f 277/247/132 199/191/106 56/54/16
f 56/54/16 55/53/15 277/247/132
f 278/248/133 203/193/111 184/176/110
f 184/176/110 220/206/119 278/248/133
f 279/249/134 217/203/118 51/49/11
f 51/49/11 53/51/13 279/249/134
f 280/250/135 54/52/14 57/55/17
f 57/55/17 206/196/112 280/250/135
f 281/251/136 74/72/34 64/62/24
f 64/62/24 63/61/23 281/251/136
f 282/252/137 60/58/20 59/57/19
f 59/57/19 71/69/31 282/252/137
f 283/253/138 68/66/28 67/65/27
f 67/65/27 77/75/37 283/253/138
f 284/254/139 76/74/36 78/76/38
f 78/76/38 84/79/44 284/254/139
f 285/254/140 81/79/41 80/78/40
f 80/78/40 212/199/115 285/254/140
f 286/254/141 209/199/113 73/71/33
f 73/71/33 75/73/35 286/254/141
f 287/255/142 213/201/116 147/139/98
f 147/139/98 272/244/127 287/255/142
f 288/255/143 271/244/126 92/88/52
f 92/88/52 91/87/51 288/255/143
f 289/255/144 88/84/48 87/83/47
f 87/83/47 216/201/117 289/255/144
f 290/256/145 110/104/70 100/94/60
f 100/94/60 99/92/59 290/256/145
f 291/256/146 96/92/56 95/91/55
f 95/91/55 107/101/67 291/256/146
f 292/256/147 104/98/64 103/97/63
f 103/97/63 113/104/73 292/256/147
f 293/257/148 123/115/83 120/112/80
f 120/112/80 119/111/79 293/257/148
f 294/258/149 116/108/76 102/96/62
f 102/96/62 105/99/65 294/258/149
f 295/259/150 106/100/66 108/102/68
f 108/102/68 126/118/86 295/259/150
f 296/260/151 90/86/50 93/89/53
f 93/89/53 274/246/129 296/260/151
f 297/261/152 273/245/128 133/125/92
f 133/125/92 132/124/91 297/261/152
f 298/262/153 129/121/88 86/82/46
f 86/82/46 89/85/49 298/262/153
f 299/263/1 300/264/1 301/265/1
f 301/265/1 302/266/1 299/263/1
f 303/267/1 304/268/1 302/266/1
f 302/266/1 301/265/1 303/267/1
f 305/269/1 306/270/1 304/268/1
f 304/268/1 303/267/1 305/269/1
f 307/271/1 308/272/1 306/270/1
f 306/270/1 305/269/1 307/271/1
f 309/273/1 310/274/1 311/275/1
f 311/275/1 312/276/1 309/273/1
f 313/277/1 314/278/1 310/274/1
f 310/274/1 309/273/1 313/277/1
f 315/279/1 316/280/1 314/278/1
f 314/278/1 313/277/1 315/279/1
f 317/281/1 318/282/1 316/280/1
f 316/280/1 315/279/1 317/281/1
f 319/283/154 320/284/154 321/285/154
f 321/285/154 322/286/154 319/283/154
f 323/287/155 324/288/155 325/289/155
f 325/289/155 326/290/155 323/287/155
f 327/291/154 328/292/154 329/293/154
f 329/293/154 330/294/154 327/291/154
f 331/295/155 332/296/155 333/297/155
f 333/297/155 334/298/155 331/295/155
f 335/299/156 336/300/156 337/301/156
f 337/301/156 338/302/156 335/299/156
f 339/303/154 340/304/154 328/292/154
f 328/292/154 327/291/154 339/303/154
f 334/298/155 333/297/155 341/305/155
f 341/305/155 342/306/155 334/298/155
f 343/307/154 344/308/154 340/304/154
f 340/304/154 339/303/154 343/307/154
f 342/306/155 341/305/155 345/309/155
f 345/309/155 346/310/155 342/306/155
f 347/311/154 348/312/154 344/308/154
f 344/308/154 343/307/154 347/311/154
f 346/310/155 345/309/155 349/313/155
f 349/313/155 350/314/155 346/310/155
f 351/315/154 352/316/154 353/317/154
f 353/317/154 354/318/154 351/315/154
f 355/319/155 356/320/155 357/321/155
f 357/321/155 358/322/155 355/319/155
f 359/323/154 360/324/154 352/316/154
f 352/316/154 351/315/154 359/323/154
f 358/322/155 357/321/155 361/325/155
f 361/325/155 362/326/155 358/322/155
f 363/286/154 321/285/154 360/324/154
f 360/324/154 359/323/154 363/286/154
f 362/326/155 361/325/155 324/288/155
f 324/288/155 323/287/155 362/326/155
f 364/327/157 365/328/157 366/329/157
f 366/329/157 367/330/157 364/327/157
f 368/331/157 369/332/157 370/333/158
f 370/333/158 371/334/159 368/331/157
f 372/335/160 373/336/160 374/337/1
f 374/337/1 375/338/1 372/335/160
f 376/339/160 372/335/160 375/338/1
f 375/338/1 377/340/1 376/339/160
f 378/341/160 376/339/160 377/340/1
f 377/340/1 379/342/1 378/341/160
f 380/343/160 378/341/160 379/342/1
f 379/342/1 381/344/1 380/343/160
f 382/345/160 383/346/160 384/347/1
f 384/347/1 385/348/1 382/345/160
f 386/349/160 382/345/160 385/348/1
f 385/348/1 387/350/1 386/349/160
f 388/351/160 386/349/160 387/350/1
f 387/350/1 389/352/1 388/351/160
f 390/353/160 388/351/160 389/352/1
f 389/352/1 391/354/1 390/353/160
f 392/355/156 393/356/161 394/357/162
f 394/357/162 395/358/156 392/355/156
f 396/328/1 397/334/1 398/359/1
f 398/359/1 399/360/1 396/328/1
f 400/356/1 401/301/1 402/361/1
f 402/361/1 403/362/1 400/356/1
f 404/363/1 405/364/1 403/362/1
f 403/362/1 402/361/1 404/363/1
f 406/365/1 407/366/1 405/364/1
f 405/364/1 404/363/1 406/365/1
f 408/367/1 409/368/1 407/366/1
f 407/366/1 406/365/1 408/367/1
f 410/369/1 411/370/1 412/371/1
f 412/371/1 413/372/1 410/369/1
f 414/373/1 415/374/1 411/370/1
f 411/370/1 410/369/1 414/373/1
f 399/360/1 398/359/1 415/374/1
f 415/374/1 414/373/1 399/360/1
f 416/289/1 417/288/1 418/375/1
f 418/375/1 419/376/1 416/289/1
f 417/288/1 420/325/1 421/377/1
f 421/377/1 418/375/1 417/288/1
f 420/325/1 422/321/1 423/378/1
f 423/378/1 421/377/1 420/325/1
f 422/321/1 424/320/1 425/379/1
f 425/379/1 423/378/1 422/321/1
f 426/313/1 427/309/1 428/380/1
f 428/380/1 429/381/1 426/313/1
f 427/309/1 430/305/1 431/382/1
f 431/382/1 428/380/1 427/309/1
f 430/305/1 432/297/1 433/383/1
f 433/383/1 431/382/1 430/305/1
f 434/296/1 435/384/1 433/383/1
f 433/383/1 432/297/1 434/296/1
f 436/385/157 437/289/157 438/376/163
f 438/376/163 439/386/157 436/385/157
f 368/331/157 371/334/159 365/328/157
f 365/328/157 364/327/157 368/331/157
f 440/387/156 441/384/164 442/296/156
f 442/296/156 443/388/156 440/387/156
f 338/302/156 337/301/156 393/356/161
f 393/356/161 392/355/156 338/302/156
f 444/264/154 329/293/154 328/292/154
f 328/292/154 445/265/154 444/264/154
f 446/266/165 447/361/165 448/301/165
f 448/301/165 449/263/165 446/266/165
f 450/263/156 337/301/156 336/300/156
f 336/300/156 451/264/156 450/263/156
f 452/268/165 453/363/165 447/361/165
f 447/361/165 446/266/165 452/268/165
f 445/265/154 328/292/154 340/304/154
f 340/304/154 454/267/154 445/265/154
f 455/270/165 456/365/165 453/363/165
f 453/363/165 452/268/165 455/270/165
f 454/267/154 340/304/154 344/308/154
f 344/308/154 457/269/154 454/267/154
f 458/272/165 459/367/165 456/365/165
f 456/365/165 455/270/165 458/272/165
f 457/269/154 344/308/154 348/312/154
f 348/312/154 460/271/154 457/269/154
f 461/274/165 462/369/165 463/372/165
f 463/372/165 464/275/165 461/274/165
f 465/276/154 353/317/154 352/316/154
f 352/316/154 466/273/154 465/276/154
f 467/278/165 468/373/165 462/369/165
f 462/369/165 461/274/165 467/278/165
f 466/273/154 352/316/154 360/324/154
f 360/324/154 469/277/154 466/273/154
f 470/280/165 471/360/165 468/373/165
f 468/373/165 467/278/165 470/280/165
f 469/277/154 360/324/154 321/285/154
f 321/285/154 472/279/154 469/277/154
f 473/282/165 474/328/165 471/360/165
f 471/360/165 470/280/165 473/282/165
f 472/279/154 321/285/154 320/284/154
f 320/284/154 475/281/154 472/279/154
f 476/281/157 366/329/157 365/328/157
f 365/328/157 477/282/157 476/281/157
f 478/336/166 479/334/167 480/333/168
f 481/333/158 482/337/169 483/336/170
f 484/389/171 485/376/171 486/375/171
f 486/375/171 487/390/171 484/389/171
f 488/335/172 489/359/172 490/334/172
f 490/334/172 491/336/172 488/335/172
f 487/390/171 486/375/171 492/377/171
f 492/377/171 493/391/171 487/390/171
f 494/339/172 495/374/172 489/359/172
f 489/359/172 488/335/172 494/339/172
f 493/391/171 492/377/171 496/378/171
f 496/378/171 497/392/171 493/391/171
f 498/341/172 499/370/172 495/374/172
f 495/374/172 494/339/172 498/341/172
f 497/392/171 496/378/171 500/379/171
f 500/379/171 501/393/171 497/392/171
f 502/343/172 503/371/172 499/370/172
f 499/370/172 498/341/172 502/343/172
f 504/394/171 505/381/171 506/380/171
f 506/380/171 507/395/171 504/394/171
f 508/345/172 509/366/172 510/368/172
f 510/368/172 511/346/172 508/345/172
f 507/395/171 506/380/171 512/382/171
f 512/382/171 513/396/171 507/395/171
f 514/349/172 515/364/172 509/366/172
f 509/366/172 508/345/172 514/349/172
f 513/396/171 512/382/171 516/383/171
f 516/383/171 517/397/171 513/396/171
f 518/351/172 519/362/172 515/364/172
f 515/364/172 514/349/172 518/351/172
f 517/397/171 516/383/171 520/384/171
f 520/384/171 521/398/171 517/397/171
f 522/353/173 523/354/174 394/357/162
f 394/357/162 393/356/161 522/353/173
f 524/353/172 525/356/172 519/362/172
f 519/362/172 518/351/172 524/353/172
f 439/386/157 438/376/163 370/333/158
f 370/333/158 369/332/157 439/386/157
f 526/389/175 482/337/169 481/333/158
f 527/333/158 528/376/176 529/389/177
f 530/390/178 375/338/1 374/337/1
f 374/337/1 531/389/178 530/390/178
f 532/391/178 377/340/1 375/338/1
f 375/338/1 530/390/178 532/391/178
f 533/392/178 379/342/1 377/340/1
f 377/340/1 532/391/178 533/392/178
f 534/393/178 381/344/1 379/342/1
f 379/342/1 533/392/178 534/393/178
f 535/395/178 385/348/1 384/347/1
f 384/347/1 536/394/178 535/395/178
f 537/396/178 387/350/1 385/348/1
f 385/348/1 535/395/178 537/396/178
f 538/397/178 389/352/1 387/350/1
f 387/350/1 537/396/178 538/397/178
f 539/398/178 391/354/1 389/352/1
f 389/352/1 538/397/178 539/398/178
f 540/398/179 441/384/164 394/357/162
f 394/357/162 523/354/174 540/398/179
f 440/387/156 395/358/156 394/357/162
f 394/357/162 441/384/164 440/387/156
f 541/399/156 542/400/156 543/401/156
f 543/401/156 544/402/156 541/399/156
f 545/400/155 546/399/155 547/403/155
f 547/403/155 548/404/155 545/400/155
f 549/405/2 550/406/2 551/407/2
f 551/407/2 552/408/2 549/405/2
f 553/409/154 554/410/154 555/411/154
f 555/411/154 556/412/154 553/409/154
f 557/403/1 558/399/1 559/402/1
f 559/402/1 560/413/1 557/403/1
f 561/414/154 562/415/154 563/416/154
f 563/416/154 564/417/154 561/414/154
f 565/418/157 566/419/157 567/420/157
f 567/420/157 568/421/157 565/418/157
f 569/422/1 570/423/1 571/424/1
f 571/424/1 572/425/1 569/422/1
f 573/426/155 574/422/155 575/425/155
f 575/425/155 576/427/155 573/426/155
f 577/428/155 578/429/155 579/430/155
f 579/430/155 580/431/155 577/428/155
f 581/432/2 582/433/2 583/434/2
f 583/434/2 584/435/2 581/432/2
f 585/436/154 586/437/154 587/438/154
f 587/438/154 588/439/154 585/436/154
f 589/440/1 590/441/180 591/430/180
f 591/430/180 592/429/1 589/440/1
f 593/442/2 594/443/2 595/444/2
f 595/444/2 596/445/2 593/442/2
f 583/434/2 582/433/2 597/446/2
f 597/446/2 598/447/2 583/434/2
f 588/439/154 587/438/154 599/448/154
f 599/448/154 600/449/154 588/439/154
f 592/429/1 601/450/1 602/451/1
f 602/451/1 589/440/1 592/429/1
f 603/452/155 604/450/155 578/429/155
f 578/429/155 577/428/155 603/452/155
f 605/453/2 598/447/2 597/446/2
f 597/446/2 606/454/2 605/453/2
f 600/449/154 599/448/154 607/455/154
f 607/455/154 608/456/154 600/449/154
f 601/450/1 609/457/1 610/458/1
f 610/458/1 602/451/1 601/450/1
f 611/459/155 612/457/155 604/450/155
f 604/450/155 603/452/155 611/459/155
f 613/460/2 605/453/2 606/454/2
f 606/454/2 614/461/2 613/460/2
f 608/456/154 607/455/154 615/462/154
f 615/462/154 616/463/154 608/456/154
f 609/457/1 617/464/1 618/465/1
f 618/465/1 610/458/1 609/457/1
f 619/466/155 620/464/155 612/457/155
f 612/457/155 611/459/155 619/466/155
f 594/443/2 613/460/2 614/461/2
f 614/461/2 595/444/2 594/443/2
f 616/463/154 615/462/154 562/415/154
f 562/415/154 561/414/154 616/463/154
f 617/464/1 572/425/1 571/424/1
f 571/424/1 618/465/1 617/464/1
f 576/427/155 575/425/155 620/464/155
f 620/464/155 619/466/155 576/427/155
f 580/431/155 579/430/155 621/419/155
f 621/419/155 622/418/155 580/431/155
f 623/467/2 581/432/2 584/435/2
f 584/435/2 624/468/2 623/467/2
f 625/469/154 626/470/154 586/437/154
f 586/437/154 585/436/154 625/469/154
f 627/420/180 628/419/180 591/430/180
f 591/430/180 590/441/180 627/420/180
f 548/404/155 547/403/155 574/422/155
f 574/422/155 573/426/155 548/404/155
f 593/442/2 596/445/2 551/407/2
f 551/407/2 550/406/2 593/442/2
f 564/417/154 563/416/154 554/410/154
f 554/410/154 553/409/154 564/417/154
f 569/422/1 557/403/1 560/413/1
f 560/413/1 570/423/1 569/422/1
f 629/471/154 630/472/154 631/473/154
f 631/473/154 632/474/154 629/471/154
f 633/475/154 634/476/154 630/472/154
f 630/472/154 629/471/154 633/475/154
f 635/477/154 636/478/154 634/476/154
f 634/476/154 633/475/154 635/477/154
f 637/479/154 638/480/154 636/478/154
f 636/478/154 635/477/154 637/479/154
f 639/481/154 640/482/154 638/480/154
f 638/480/154 637/479/154 639/481/154
f 641/483/154 642/484/154 640/482/154
f 640/482/154 639/481/154 641/483/154
f 643/485/154 644/486/154 642/484/154
f 642/484/154 641/483/154 643/485/154
f 645/468/157 646/487/157 647/488/157
f 647/488/157 648/467/157 645/468/157
f 649/435/155 650/489/155 651/487/155
f 651/487/155 652/468/155 649/435/155
f 653/434/155 654/490/155 650/489/155
f 650/489/155 649/435/155 653/434/155
f 655/447/155 656/491/155 654/490/155
f 654/490/155 653/434/155 655/447/155
f 657/453/155 658/492/155 656/491/155
f 656/491/155 655/447/155 657/453/155
f 659/460/155 660/493/155 658/492/155
f 658/492/155 657/453/155 659/460/155
f 661/443/155 662/494/155 660/493/155
f 660/493/155 659/460/155 661/443/155
f 663/442/155 664/495/155 662/494/155
f 662/494/155 661/443/155 663/442/155
f 665/406/155 666/496/155 664/495/155
f 664/495/155 663/442/155 665/406/155
f 667/405/155 668/497/155 666/496/155
f 666/496/155 665/406/155 667/405/155
f 669/405/156 670/408/156 671/498/156
f 671/498/156 672/497/156 669/405/156
f 673/499/154 674/500/154 675/501/154
f 675/501/154 676/502/154 673/499/154
f 632/474/154 631/473/154 674/500/154
f 674/500/154 673/499/154 632/474/154
f 630/472/154 677/503/154 678/504/154
f 678/504/154 631/473/154 630/472/154
f 634/476/154 679/505/154 677/503/154
f 677/503/154 630/472/154 634/476/154
f 636/478/154 680/506/154 679/505/154
f 679/505/154 634/476/154 636/478/154
f 638/480/154 681/507/154 680/506/154
f 680/506/154 636/478/154 638/480/154
f 640/482/154 682/508/154 681/507/154
f 681/507/154 638/480/154 640/482/154
f 642/484/154 683/509/154 682/508/154
f 682/508/154 640/482/154 642/484/154
f 644/486/154 684/510/154 683/509/154
f 683/509/154 642/484/154 644/486/154
f 646/487/157 685/511/157 686/512/157
f 686/512/157 647/488/157 646/487/157
f 650/489/155 687/513/155 688/511/155
f 688/511/155 651/487/155 650/489/155
f 654/490/155 689/514/155 687/513/155
f 687/513/155 650/489/155 654/490/155
f 656/491/155 690/515/155 689/514/155
f 689/514/155 654/490/155 656/491/155
f 658/492/155 691/516/155 690/515/155
f 690/515/155 656/491/155 658/492/155
f 660/493/155 692/517/155 691/516/155
f 691/516/155 658/492/155 660/493/155
f 662/494/155 693/518/155 692/517/155
f 692/517/155 660/493/155 662/494/155
f 664/495/155 694/519/155 693/518/155
f 693/518/155 662/494/155 664/495/155
f 666/496/155 695/520/155 694/519/155
f 694/519/155 664/495/155 666/496/155
f 668/497/155 696/521/155 695/520/155
f 695/520/155 666/496/155 668/497/155
f 697/521/156 672/497/156 671/498/156
f 671/498/156 698/522/156 697/521/156
f 674/500/154 699/523/154 700/524/154
f 700/524/154 675/501/154 674/500/154
f 631/473/154 678/504/154 699/523/154
f 699/523/154 674/500/154 631/473/154
f 677/503/154 701/525/154 702/526/154
f 702/526/154 678/504/154 677/503/154
f 679/505/154 703/527/154 701/525/154
f 701/525/154 677/503/154 679/505/154
f 680/506/154 704/528/154 703/527/154
f 703/527/154 679/505/154 680/506/154
f 681/507/154 705/529/154 704/528/154
f 704/528/154 680/506/154 681/507/154
f 682/508/154 706/530/154 705/529/154
f 705/529/154 681/507/154 682/508/154
f 683/509/154 707/531/154 706/530/154
f 706/530/154 682/508/154 683/509/154
f 684/510/154 708/532/154 707/531/154
f 707/531/154 683/509/154 684/510/154
f 685/511/157 709/533/157 710/534/157
f 710/534/157 686/512/157 685/511/157
f 687/513/155 711/535/155 712/533/155
f 712/533/155 688/511/155 687/513/155
f 689/514/155 713/536/155 711/535/155
f 711/535/155 687/513/155 689/514/155
f 690/515/155 714/537/155 713/536/155
f 713/536/155 689/514/155 690/515/155
f 691/516/155 715/538/155 714/537/155
f 714/537/155 690/515/155 691/516/155
f 692/517/155 716/539/155 715/538/155
f 715/538/155 691/516/155 692/517/155
f 693/518/155 717/540/155 716/539/155
f 716/539/155 692/517/155 693/518/155
f 694/519/155 718/541/155 717/540/155
f 717/540/155 693/518/155 694/519/155
f 695/520/155 719/542/155 718/541/155
f 718/541/155 694/519/155 695/520/155
f 696/521/155 720/543/155 719/542/155
f 719/542/155 695/520/155 696/521/155
f 721/543/156 697/521/156 698/522/156
f 698/522/156 722/544/156 721/543/156
f 699/523/154 723/545/154 724/546/154
f 724/546/154 700/524/154 699/523/154
f 678/504/154 702/526/154 723/545/154
f 723/545/154 699/523/154 678/504/154
f 701/525/154 561/414/154 564/417/154
f 564/417/154 702/526/154 701/525/154
f 703/527/154 616/463/154 561/414/154
f 561/414/154 701/525/154 703/527/154
f 704/528/154 608/456/154 616/463/154
f 616/463/154 703/527/154 704/528/154
f 705/529/154 600/449/154 608/456/154
f 608/456/154 704/528/154 705/529/154
f 706/530/154 588/439/154 600/449/154
f 600/449/154 705/529/154 706/530/154
f 707/531/154 585/436/154 588/439/154
f 588/439/154 706/530/154 707/531/154
f 708/532/154 625/469/154 585/436/154
f 585/436/154 707/531/154 708/532/154
f 709/533/157 565/418/157 568/421/157
f 568/421/157 710/534/157 709/533/157
f 711/535/155 580/431/155 622/418/155
f 622/418/155 712/533/155 711/535/155
f 713/536/155 577/428/155 580/431/155
f 580/431/155 711/535/155 713/536/155
f 714/537/155 603/452/155 577/428/155
f 577/428/155 713/536/155 714/537/155
f 715/538/155 611/459/155 603/452/155
f 603/452/155 714/537/155 715/538/155
f 716/539/155 619/466/155 611/459/155
f 611/459/155 715/538/155 716/539/155
f 717/540/155 576/427/155 619/466/155
f 619/466/155 716/539/155 717/540/155
f 718/541/155 573/426/155 576/427/155
f 576/427/155 717/540/155 718/541/155
f 719/542/155 548/404/155 573/426/155
f 573/426/155 718/541/155 719/542/155
f 720/543/155 545/400/155 548/404/155
f 548/404/155 719/542/155 720/543/155
f 542/400/156 721/543/156 722/544/156
f 722/544/156 543/401/156 542/400/156
f 723/545/154 553/409/154 556/412/154
f 556/412/154 724/546/154 723/545/154
f 702/526/154 564/417/154 553/409/154
f 553/409/154 723/545/154 702/526/154
