# Blender 3.6.2
# www.blender.org
mtllib table.mtl
o 3d-model.001
v 0.745701 4.465725 7.381900
v -0.435524 4.506575 7.381900
v -1.587049 4.240275 7.381900
v 1.876126 4.120550 7.381900
v -2.630450 3.685050 7.381900
v 2.878675 3.494575 7.381900
v -3.494575 2.878675 7.381900
v 3.685050 2.630450 7.381899
v -4.120550 1.876100 7.381900
v 4.240275 1.587050 7.381899
v -4.465724 0.745700 7.381900
v 4.506576 0.435525 7.381899
v -4.506575 -0.435525 7.381900
v 4.465725 -0.745700 7.381899
v -4.240274 -1.587050 7.381900
v 4.120551 -1.876125 7.381899
v -3.685050 -2.630450 7.381900
v 3.494576 -2.878675 7.381899
v -2.878675 -3.494575 7.381900
v 2.630450 -3.685050 7.381900
v -1.876124 -4.120550 7.381900
v 1.587051 -4.240275 7.381900
v -0.745699 -4.465725 7.381900
v 0.435526 -4.506575 7.381900
v -3.494575 2.878675 7.185050
v -4.120550 1.876100 7.185050
v 0.435526 -4.506575 7.185050
v 1.587051 -4.240275 7.185050
v -0.745699 -4.465725 7.185050
v -3.685050 -2.630450 7.185050
v -2.878675 -3.494575 7.185050
v -1.876124 -4.120550 7.185050
v 2.630450 -3.685050 7.185050
v 3.494576 -2.878675 7.185050
v -1.587049 4.240275 7.185050
v -0.435524 4.506575 7.185050
v -2.630450 3.685050 7.185050
v 4.506576 0.435525 7.185050
v 4.240275 1.587050 7.185050
v -4.465724 0.745700 7.185050
v -4.506575 -0.435525 7.185050
v 4.465725 -0.745700 7.185050
v 0.745701 4.465725 7.185050
v 1.876126 4.120550 7.185050
v 2.878675 3.494575 7.185050
v 3.685050 2.630450 7.185050
v -4.240274 -1.587050 7.185050
v 4.120551 -1.876125 7.185050
v 1.118275 0.000000 3.449225
v 1.389825 0.000000 2.872150
v 1.389825 0.196850 2.872150
v 1.118275 0.196850 3.449225
v 0.449501 0.000000 7.185050
v 0.449501 0.196850 7.185050
v 0.196851 0.196850 7.185050
v 0.196851 0.000000 7.185050
v 1.520825 0.000000 2.204225
v 1.198800 0.000000 2.773350
v 1.198800 0.196850 2.773350
v 1.520825 0.196850 2.204225
v 3.346450 0.196850 -0.000000
v 3.346450 0.000000 -0.000000
v 0.196850 0.000000 -0.000000
v 0.196850 0.196850 -0.000000
v 0.572700 0.000000 5.279325
v 0.688975 0.000000 4.746000
v 0.688975 0.196850 4.746000
v 0.572700 0.196850 5.279325
v 2.805000 0.000000 0.591850
v 2.805000 0.196850 0.591850
v 0.449500 0.196850 0.591850
v 0.449500 0.000000 0.591850
v 0.449500 0.196850 4.635425
v 0.708550 0.196850 4.656200
v 0.890750 0.196850 4.045025
v 0.668925 0.196850 3.899350
v 0.449500 0.196850 3.796100
v 0.920375 0.196850 3.365000
v 0.449500 0.196850 3.143425
v 0.483950 0.196850 5.910875
v 0.442800 0.196850 6.547300
v 3.346450 0.196850 0.376950
v 2.729025 0.196850 0.663425
v 2.882300 0.196850 0.814300
v 2.288100 0.196850 1.146300
v 2.452225 0.196850 1.285250
v 1.884600 0.196850 1.660850
v 2.058700 0.196850 1.787125
v 1.703900 0.196850 2.317075
v 0.442800 0.000000 6.547300
v 0.483950 0.000000 5.910875
v 0.708550 0.000000 4.656200
v 0.890750 0.000000 4.045025
v 2.729025 0.000000 0.663425
v 2.288100 0.000000 1.146300
v 0.920375 0.000000 3.365000
v 0.449500 0.000000 3.143425
v 3.346450 0.000000 0.376950
v 2.882300 0.000000 0.814300
v 1.884600 0.000000 1.660850
v 2.058700 0.000000 1.787125
v 2.452225 0.000000 1.285250
v 0.449500 0.000000 4.635425
v 0.668925 0.000000 3.899350
v 0.449500 0.000000 3.796100
v 1.703900 0.000000 2.317075
v 0.196850 -3.149600 -0.000000
v 0.000000 -3.149600 0.000000
v 0.000000 0.000000 0.000000
v 0.196850 0.000000 -0.000000
v 0.000000 -1.323975 2.204225
v 0.000000 -1.001950 2.773350
v 0.196850 -1.001950 2.773350
v 0.196850 -1.323975 2.204225
v 0.000000 -1.192975 2.872150
v 0.000000 -1.507050 2.317075
v 0.196850 -1.507050 2.317075
v 0.196850 -1.192975 2.872150
v 0.000000 -1.861850 1.787125
v 0.196850 -1.861850 1.787125
v 0.000001 0.000000 7.185050
v 0.196851 0.000000 7.185050
v 0.000001 -0.252650 7.185050
v 0.196851 -0.252650 7.185050
v 0.000000 -0.921425 3.449225
v 0.196850 -0.921425 3.449225
v 0.000000 -0.693900 4.045025
v 0.196850 -0.693900 4.045025
v 0.000000 -0.472075 3.899350
v 0.000000 -0.252650 4.635425
v 0.196850 -0.252650 4.635425
v 0.196850 -0.472075 3.899350
v 0.000000 -0.252650 3.796100
v 0.196850 -0.252650 3.796100
v 0.196850 -0.723525 3.365000
v 0.000000 -0.723525 3.365000
v 0.000000 -0.252650 3.143425
v 0.196850 -0.252650 3.143425
v 0.000000 -0.252650 0.591850
v 0.196850 -0.252650 0.591850
v 0.000000 -0.492125 4.746000
v 0.000000 -0.511700 4.656200
v 0.196850 -0.511700 4.656200
v 0.196850 -0.492125 4.746000
v 0.000000 -2.255375 1.285250
v 0.196850 -2.255375 1.285250
v 0.000000 -2.685450 0.814300
v 0.196850 -2.685450 0.814300
v 0.000000 -1.687750 1.660850
v 0.196850 -1.687750 1.660850
v 0.000000 -0.375850 5.279325
v 0.196850 -0.375850 5.279325
v 0.000000 -2.608150 0.591850
v 0.196850 -2.608150 0.591850
v 0.000000 -0.245950 6.547300
v 0.000000 -0.287100 5.910875
v 0.000000 -3.149600 0.376950
v 0.000000 -2.532175 0.663425
v 0.000000 -2.091250 1.146300
v 0.196850 -0.245950 6.547300
v 0.196850 -0.287100 5.910875
v 0.196850 -2.091250 1.146300
v 0.196850 -2.532175 0.663425
v 0.196850 -3.149600 0.376950
v 0.000000 0.483950 5.910875
v 0.000000 0.442800 6.547300
v 0.196850 0.442800 6.547300
v 0.196850 0.483950 5.910875
v 0.000000 2.882300 0.814300
v 0.196850 2.882300 0.814300
v 0.196850 3.346450 0.376950
v 0.000000 3.346450 0.376950
v 0.000000 3.346450 0.000000
v 0.196850 3.346450 -0.000000
v 0.196850 0.196850 -0.000000
v 0.000000 0.196850 0.000000
v 0.000000 1.198800 2.773350
v 0.000000 1.520825 2.204225
v 0.196850 1.520825 2.204225
v 0.196850 1.198800 2.773350
v 0.000000 1.703900 2.317075
v 0.000000 1.389825 2.872150
v 0.196850 1.389825 2.872150
v 0.196850 1.703900 2.317075
v 0.000000 2.058700 1.787125
v 0.196850 2.058700 1.787125
v 0.000001 0.196850 7.185050
v 0.196851 0.196850 7.185050
v 0.196851 0.449500 7.185050
v 0.000001 0.449500 7.185050
v 0.000000 1.118275 3.449225
v 0.196850 1.118275 3.449225
v 0.000000 0.890750 4.045025
v 0.196850 0.890750 4.045025
v 0.000000 0.449500 4.635425
v 0.000000 0.668925 3.899350
v 0.196850 0.668925 3.899350
v 0.196850 0.449500 4.635425
v 0.000000 0.449500 3.796100
v 0.196850 0.449500 3.796100
v 0.196850 0.449500 3.143425
v 0.000000 0.449500 3.143425
v 0.000000 0.920375 3.365000
v 0.196850 0.920375 3.365000
v 0.000000 0.449500 0.591850
v 0.196850 0.449500 0.591850
v 0.000000 2.452225 1.285250
v 0.196850 2.452225 1.285250
v 0.000000 1.884600 1.660850
v 0.196850 1.884600 1.660850
v 0.000000 0.708550 4.656200
v 0.000000 0.572700 5.279325
v 0.000000 0.688975 4.746000
v 0.000000 2.805000 0.591850
v 0.000000 2.729025 0.663425
v 0.000000 2.288100 1.146300
v 0.196850 0.572700 5.279325
v 0.196850 0.688975 4.746000
v 0.196850 0.708550 4.656200
v 0.196850 2.805000 0.591850
v 0.196850 2.729025 0.663425
v 0.196850 2.288100 1.146300
v -0.921425 0.196850 3.449225
v -1.192975 0.196850 2.872150
v -1.192975 0.000000 2.872150
v -0.921425 0.000000 3.449225
v -0.252649 0.196850 7.185050
v -0.252649 0.000000 7.185050
v 0.000001 0.000000 7.185050
v 0.000001 0.196850 7.185050
v -1.323975 0.196850 2.204225
v -1.001950 0.196850 2.773350
v -1.001950 0.000000 2.773350
v -1.323975 0.000000 2.204225
v -3.149600 0.000000 0.000000
v -3.149600 0.196850 0.000000
v 0.000000 0.196850 0.000000
v 0.000000 0.000000 0.000000
v -0.375850 0.196850 5.279325
v -0.492125 0.196850 4.746000
v -0.492125 0.000000 4.746000
v -0.375850 0.000000 5.279325
v -2.608150 0.196850 0.591850
v -2.608150 0.000000 0.591850
v -0.252650 0.000000 0.591850
v -0.252650 0.196850 0.591850
v -0.252650 0.000000 4.635425
v -0.511700 0.000000 4.656200
v -0.693900 0.000000 4.045025
v -0.472075 0.000000 3.899350
v -0.252650 0.000000 3.796100
v -0.723525 0.000000 3.365000
v -0.252650 0.000000 3.143425
v -0.287100 0.000000 5.910875
v -0.245950 0.000000 6.547300
v -3.149600 0.000000 0.376950
v -2.532175 0.000000 0.663425
v -2.685450 0.000000 0.814300
v -2.091250 0.000000 1.146300
v -2.255375 0.000000 1.285250
v -1.687750 0.000000 1.660850
v -1.861850 0.000000 1.787125
v -1.507050 0.000000 2.317075
v -0.245950 0.196850 6.547300
v -0.287100 0.196850 5.910875
v -0.511700 0.196850 4.656200
v -0.693900 0.196850 4.045025
v -2.532175 0.196850 0.663425
v -2.091250 0.196850 1.146300
v -0.723525 0.196850 3.365000
v -0.252650 0.196850 3.143425
v -3.149600 0.196850 0.376950
v -2.685450 0.196850 0.814300
v -1.687750 0.196850 1.660850
v -1.861850 0.196850 1.787125
v -2.255375 0.196850 1.285250
v -0.252650 0.196850 4.635425
v -0.472075 0.196850 3.899350
v -0.252650 0.196850 3.796100
v -1.507050 0.196850 2.317075
vn -0.0000 -0.0000 1.0000
vn -0.8819 0.4596 0.1052
vn -0.7719 0.6356 0.0072
vn -0.7718 0.6358 -0.0000
vn 0.0964 -0.9953 -0.0072
vn 0.2986 -0.9486 -0.1051
vn 0.0962 -0.9954 -0.0000
vn -0.1645 -0.9864 -0.0072
vn 0.0430 -0.9935 -0.1052
vn -0.1647 -0.9863 -0.0000
vn -0.6722 -0.7329 0.1052
vn -0.8138 -0.5812 0.0072
vn -0.8139 -0.5810 -0.0000
vn -0.4142 -0.9102 -0.0072
vn -0.2156 -0.9708 -0.1052
vn -0.4144 -0.9101 -0.0000
vn 0.5812 -0.8138 -0.0072
vn 0.7329 -0.6722 -0.1052
vn 0.5810 -0.8139 -0.0000
vn -0.3503 0.9366 0.0072
vn -0.1481 0.9834 0.1052
vn -0.3505 0.9366 -0.0000
vn -0.7717 0.6360 0.0071
vn -0.6199 0.7776 0.1052
vn -0.5808 0.8140 0.0072
vn -0.3975 0.9115 0.1052
vn -0.5810 0.8139 -0.0000
vn 0.9486 0.2986 0.1051
vn 0.9953 0.0964 0.0072
vn 0.9954 0.0962 -0.0000
vn -0.9935 -0.0430 0.1052
vn -0.9864 0.1645 0.0072
vn -0.9863 0.1647 -0.0000
vn -0.9708 0.2156 0.1052
vn -0.9102 0.4142 0.0072
vn -0.9101 0.4144 -0.0000
vn 0.9935 0.0430 0.1052
vn 0.9864 -0.1645 0.0072
vn 0.9863 -0.1647 -0.0000
vn -0.0000 -0.0000 -1.0000
vn 0.3507 -0.9365 -0.0072
vn 0.5340 -0.8389 -0.1052
vn 0.3505 -0.9366 -0.0000
vn -0.9486 -0.2986 0.1051
vn -0.9953 -0.0964 0.0072
vn -0.9954 -0.0962 -0.0000
vn -0.0960 0.9954 0.0072
vn 0.1115 0.9882 0.1052
vn -0.0962 0.9954 -0.0000
vn -0.8389 -0.5340 0.1052
vn -0.9365 -0.3507 0.0072
vn -0.9366 -0.3505 -0.0000
vn 0.4146 0.9100 0.0072
vn 0.5906 0.8000 0.1052
vn 0.4144 0.9101 -0.0000
vn 0.6722 0.7329 0.1052
vn 0.8138 0.5812 0.0072
vn 0.8139 0.5810 -0.0000
vn 0.1649 0.9863 0.0072
vn 0.3635 0.9257 0.1052
vn 0.1647 0.9863 -0.0000
vn -0.6357 -0.7719 -0.0072
vn -0.4596 -0.8819 -0.1052
vn -0.6358 -0.7718 -0.0000
vn 0.8389 0.5340 0.1052
vn 0.9365 0.3507 0.0072
vn 0.9366 0.3505 -0.0000
vn 0.8819 -0.4596 0.1052
vn 0.7719 -0.6357 0.0072
vn 0.7718 -0.6358 -0.0000
vn 0.9708 -0.2156 0.1052
vn 0.9102 -0.4142 0.0072
vn 0.9101 -0.4144 -0.0000
vn 0.8882 -0.0000 0.4594
vn 0.9195 -0.0111 0.3930
vn 0.9202 -0.0000 0.3915
vn -0.8819 0.0283 -0.4706
vn -0.8514 0.0036 -0.5245
vn -0.8513 -0.0000 -0.5247
vn 0.9770 -0.0000 0.2130
vn 0.9839 -0.0127 0.1784
vn 0.9844 -0.0000 0.1762
vn -0.0000 1.0000 -0.0000
vn 0.9948 -0.0000 0.1019
vn 0.9995 -0.0111 0.0286
vn 0.9996 -0.0000 0.0270
vn 0.9469 -0.0000 0.3214
vn 0.9679 -0.0111 0.2511
vn 0.9684 -0.0000 0.2495
vn -0.7546 0.0282 -0.6556
vn -0.7127 0.0037 -0.7014
vn -0.7126 -0.0000 -0.7016
vn -0.6857 -0.0000 -0.7279
vn -0.7111 -0.0120 -0.7029
vn -0.9048 -0.0000 -0.4258
vn -0.8883 0.0036 -0.4593
vn -0.8882 -0.0000 -0.4594
vn 0.9999 -0.0000 -0.0105
vn 1.0000 -0.0000 -0.0000
vn 0.9946 -0.0111 0.1036
vn 0.6858 -0.0000 0.7278
vn 0.7126 -0.0000 0.7016
vn -0.8441 0.0283 -0.5354
vn -0.8096 0.0037 -0.5870
vn -0.8095 -0.0000 -0.5871
vn 0.7632 -0.0000 0.6462
vn 0.8085 -0.0111 0.5884
vn 0.8095 -0.0000 0.5871
vn -0.0000 -1.0000 -0.0000
vn 0.7621 -0.0111 0.6474
vn -0.8016 0.0283 -0.5972
vn -0.7633 0.0037 -0.6460
vn -0.7632 -0.0000 -0.6462
vn 0.8504 -0.0111 0.5261
vn 0.8513 -0.0000 0.5247
vn -1.0000 -0.0000 -0.0000
vn 0.9771 -0.0000 0.2130
vn 0.9463 -0.0111 0.3230
vn -0.9583 -0.0000 -0.2857
vn -0.4258 -0.0000 0.9048
vn 0.4258 -0.0000 -0.9048
vn 0.8874 -0.0111 0.4609
vn 0.0283 0.8819 -0.4706
vn 0.0036 0.8514 -0.5245
vn -0.0000 0.8513 -0.5247
vn -0.0000 -0.8513 0.5247
vn -0.0111 -0.8874 0.4609
vn -0.0000 -0.8882 0.4594
vn -0.0000 -0.8095 0.5871
vn -0.0111 -0.8504 0.5261
vn -0.0111 -0.9195 0.3930
vn -0.0000 -0.9202 0.3915
vn -0.0111 -0.9463 0.3230
vn -0.0000 -0.9469 0.3214
vn -0.0000 0.9583 -0.2857
vn -0.0000 0.4258 0.9048
vn -0.0000 -0.4258 -0.9048
vn -0.0000 -0.9684 0.2495
vn -0.0000 -0.9771 0.2130
vn -0.0000 -0.7632 0.6462
vn -0.0111 -0.8085 0.5884
vn -0.0000 -0.7126 0.7016
vn -0.0111 -0.7621 0.6474
vn 0.0283 0.8441 -0.5354
vn 0.0037 0.8096 -0.5870
vn -0.0000 0.8095 -0.5871
vn -0.0000 -0.9770 0.2130
vn -0.0127 -0.9839 0.1784
vn -0.0000 -0.9844 0.1762
vn -0.0000 0.9048 -0.4258
vn 0.0036 0.8883 -0.4593
vn -0.0000 0.8882 -0.4594
vn -0.0000 -0.9996 0.0270
vn -0.0000 -0.9999 -0.0105
vn -0.0111 -0.9946 0.1036
vn -0.0000 -0.9948 0.1019
vn 0.0282 0.7546 -0.6556
vn 0.0037 0.7127 -0.7014
vn -0.0000 0.7126 -0.7016
vn 0.0283 0.8016 -0.5972
vn 0.0037 0.7633 -0.6460
vn -0.0000 0.7632 -0.6462
vn -0.0000 0.6857 -0.7279
vn -0.0120 0.7111 -0.7029
vn -0.0111 -0.9679 0.2511
vn -0.0111 -0.9995 0.0286
vn -0.0000 -0.6858 0.7278
vn -0.0000 0.9996 0.0270
vn -0.0111 0.9949 0.1002
vn -0.0000 0.9948 0.1019
vn -0.0111 0.7114 0.7027
vn -0.0000 0.6858 0.7278
vn -0.0000 0.7126 0.7016
vn 0.0282 -0.8576 -0.5136
vn 0.0037 -0.8881 -0.4596
vn -0.0000 -0.8882 -0.4594
vn -0.0000 0.8882 0.4594
vn -0.0110 0.8521 0.5232
vn -0.0000 0.8513 0.5247
vn -0.0111 0.8104 0.5857
vn -0.0000 0.8095 0.5871
vn -0.0000 0.9202 0.3915
vn -0.0111 0.8889 0.4579
vn -0.0000 0.9469 0.3214
vn -0.0110 0.9208 0.3899
vn -0.0000 -0.9583 -0.2857
vn -0.0000 -0.4258 0.9048
vn -0.0000 0.4258 -0.9048
vn -0.0111 0.7642 0.6449
vn -0.0000 0.7632 0.6462
vn -0.0111 0.7137 0.7003
vn 0.0283 -0.8166 -0.5764
vn 0.0037 -0.8512 -0.5248
vn -0.0000 -0.8513 -0.5247
vn 0.0282 -0.8937 -0.4478
vn -0.0000 -0.9048 -0.4258
vn -0.0000 0.9999 -0.0105
vn -0.0111 0.9996 0.0253
vn -0.0111 0.9846 0.1745
vn -0.0000 0.9844 0.1762
vn -0.0000 0.9770 0.2130
vn -0.0000 0.9771 0.2130
vn -0.0340 0.9730 0.2283
vn -0.0000 0.9684 0.2495
vn -0.0133 -0.7108 -0.7033
vn -0.0000 -0.6857 -0.7279
vn -0.0000 -0.7126 -0.7016
vn -0.0111 0.9474 0.3198
vn 0.0283 -0.7213 -0.6921
vn 0.0036 -0.7631 -0.6463
vn -0.0000 -0.7632 -0.6462
vn 0.0283 -0.7711 -0.6361
vn 0.0037 -0.8094 -0.5873
vn -0.0000 -0.8095 -0.5871
vn -0.8882 -0.0000 0.4594
vn -0.9195 0.0111 0.3930
vn -0.9202 -0.0000 0.3915
vn 0.8819 -0.0283 -0.4706
vn 0.8514 -0.0036 -0.5245
vn 0.8513 -0.0000 -0.5247
vn -0.9770 -0.0000 0.2130
vn -0.9839 0.0127 0.1784
vn -0.9844 -0.0000 0.1762
vn -0.9948 -0.0000 0.1019
vn -0.9995 0.0111 0.0286
vn -0.9996 -0.0000 0.0270
vn -0.9469 -0.0000 0.3214
vn -0.9679 0.0111 0.2511
vn -0.9684 -0.0000 0.2495
vn 0.7546 -0.0282 -0.6556
vn 0.7127 -0.0037 -0.7014
vn 0.7126 -0.0000 -0.7016
vn 0.6857 -0.0000 -0.7279
vn 0.7111 0.0120 -0.7029
vn 0.9048 -0.0000 -0.4258
vn 0.8883 -0.0036 -0.4593
vn 0.8882 -0.0000 -0.4594
vn -0.9999 -0.0000 -0.0105
vn -0.9946 0.0111 0.1036
vn -0.6858 -0.0000 0.7278
vn -0.7126 -0.0000 0.7016
vn 0.8441 -0.0283 -0.5354
vn 0.8096 -0.0037 -0.5870
vn 0.8095 -0.0000 -0.5871
vn -0.7632 -0.0000 0.6462
vn -0.8085 0.0111 0.5884
vn -0.8095 -0.0000 0.5871
vn -0.7621 0.0111 0.6474
vn 0.8016 -0.0283 -0.5972
vn 0.7633 -0.0037 -0.6460
vn 0.7632 -0.0000 -0.6462
vn -0.8504 0.0111 0.5261
vn -0.8513 -0.0000 0.5247
vn -0.9771 -0.0000 0.2130
vn -0.9463 0.0111 0.3230
vn 0.9583 -0.0000 -0.2857
vn 0.4258 -0.0000 0.9048
vn -0.4258 -0.0000 -0.9048
vn -0.8874 0.0111 0.4609
vn -0.9100 0.4146 -0.0072
vn -0.8000 0.5906 -0.1052
vn 0.1481 -0.9834 0.1052
vn 0.3503 -0.9366 0.0072
vn -0.1115 -0.9882 0.1052
vn 0.0960 -0.9954 0.0072
vn -0.6360 -0.7717 -0.0072
vn -0.7776 -0.6199 -0.1052
vn -0.3635 -0.9257 0.1052
vn -0.1649 -0.9863 0.0072
vn 0.6199 -0.7776 0.1052
vn 0.7717 -0.6360 0.0071
vn -0.2986 0.9486 -0.1051
vn -0.0964 0.9953 -0.0072
vn -0.7329 0.6722 -0.1052
vn -0.5812 0.8138 -0.0072
vn -0.5340 0.8389 -0.1052
vn -0.3507 0.9365 -0.0072
vn 0.9366 0.3503 -0.0072
vn 0.9834 0.1481 -0.1052
vn -0.9954 -0.0960 -0.0072
vn -0.9882 0.1115 -0.1052
vn -0.9863 0.1649 -0.0072
vn -0.9257 0.3635 -0.1052
vn 0.9954 0.0960 -0.0072
vn 0.9882 -0.1115 -0.1052
vn 0.3975 -0.9115 0.1052
vn 0.5808 -0.8140 0.0072
vn -0.9366 -0.3503 -0.0072
vn -0.9834 -0.1481 -0.1052
vn -0.0430 0.9935 -0.1052
vn 0.1645 0.9864 -0.0072
vn -0.8140 -0.5808 -0.0072
vn -0.9115 -0.3975 -0.1052
vn 0.4596 0.8819 -0.1052
vn 0.6358 0.7718 -0.0000
vn 0.6357 0.7719 -0.0072
vn 0.6360 0.7717 -0.0072
vn 0.7776 0.6199 -0.1052
vn 0.2156 0.9708 -0.1052
vn 0.4142 0.9102 -0.0072
vn -0.5906 -0.8000 0.1052
vn -0.4146 -0.9100 0.0072
vn 0.8140 0.5808 -0.0072
vn 0.9115 0.3975 -0.1052
vn 0.9100 -0.4146 -0.0072
vn 0.8000 -0.5906 -0.1052
vn 0.9863 -0.1649 -0.0072
vn 0.9257 -0.3635 -0.1052
vn 0.8889 0.0111 0.4579
vn -0.8881 -0.0037 -0.4596
vn -0.8576 -0.0282 -0.5136
vn 0.9949 0.0111 0.1002
vn 0.9474 0.0111 0.3198
vn -0.7631 -0.0036 -0.6463
vn -0.7213 -0.0283 -0.6921
vn -0.7108 0.0133 -0.7033
vn -0.8937 -0.0282 -0.4478
vn 0.9996 0.0111 0.0253
vn 0.9846 0.0111 0.1745
vn 0.7114 0.0111 0.7027
vn -0.8512 -0.0037 -0.5248
vn -0.8166 -0.0283 -0.5764
vn 0.7642 0.0111 0.6449
vn 0.7137 0.0111 0.7003
vn -0.8094 -0.0037 -0.5872
vn -0.7711 -0.0283 -0.6361
vn 0.8104 0.0111 0.5857
vn 0.9730 0.0340 0.2283
vn 0.9208 0.0110 0.3899
vn 0.8521 0.0110 0.5232
vn -0.0037 0.8881 -0.4596
vn -0.0282 0.8576 -0.5136
vn 0.0110 -0.8521 0.5232
vn 0.0111 -0.8104 0.5857
vn 0.0111 -0.8889 0.4579
vn 0.0110 -0.9208 0.3899
vn 0.0340 -0.9730 0.2283
vn 0.0111 -0.7642 0.6449
vn 0.0111 -0.7137 0.7003
vn -0.0037 0.8512 -0.5248
vn -0.0283 0.8166 -0.5764
vn -0.0282 0.8937 -0.4478
vn 0.0111 -0.9996 0.0253
vn 0.0111 -0.9846 0.1745
vn -0.0036 0.7631 -0.6463
vn -0.0283 0.7213 -0.6921
vn -0.0037 0.8094 -0.5873
vn -0.0283 0.7711 -0.6361
vn 0.0133 0.7108 -0.7033
vn 0.0111 -0.9474 0.3198
vn 0.0111 -0.9949 0.1002
vn 0.0111 -0.7114 0.7027
vn 0.0111 0.9995 0.0286
vn -0.0036 -0.8514 -0.5245
vn -0.0283 -0.8819 -0.4706
vn 0.0111 0.8874 0.4609
vn 0.0111 0.8504 0.5261
vn 0.0111 0.9195 0.3930
vn 0.0111 0.9463 0.3230
vn 0.0111 0.8085 0.5884
vn 0.0111 0.7621 0.6474
vn -0.0037 -0.8096 -0.5870
vn -0.0283 -0.8441 -0.5354
vn -0.0036 -0.8883 -0.4593
vn 0.0111 0.9946 0.1036
vn 0.0127 0.9839 0.1784
vn 0.0120 -0.7111 -0.7029
vn 0.0111 0.9679 0.2511
vn -0.0037 -0.7127 -0.7014
vn -0.0282 -0.7546 -0.6556
vn -0.0037 -0.7633 -0.6460
vn -0.0283 -0.8016 -0.5972
vn -0.8889 -0.0111 0.4579
vn 0.8881 0.0037 -0.4596
vn 0.8576 0.0282 -0.5136
vn -0.9949 -0.0111 0.1002
vn -0.9474 -0.0111 0.3198
vn 0.7631 0.0036 -0.6463
vn 0.7213 0.0283 -0.6921
vn 0.7108 -0.0133 -0.7033
vn 0.8937 0.0282 -0.4478
vn -0.9996 -0.0111 0.0253
vn -0.9846 -0.0111 0.1745
vn -0.7114 -0.0111 0.7027
vn 0.8512 0.0037 -0.5248
vn 0.8166 0.0283 -0.5764
vn -0.7642 -0.0111 0.6449
vn -0.7137 -0.0111 0.7003
vn 0.8094 0.0037 -0.5873
vn 0.7711 0.0283 -0.6361
vn -0.8104 -0.0111 0.5857
vn -0.9730 -0.0340 0.2283
vn -0.9208 -0.0110 0.3899
vn -0.8521 -0.0110 0.5232
vt 0.018100 2.330300
vt 0.118100 1.295300
vt 0.171300 2.831800
vt 0.449000 3.276600
vt 0.722200 0.449000
vt 0.832400 3.634400
vt 1.295300 3.880700
vt 1.668600 0.018100
vt 1.806200 3.998800
vt 2.330300 3.980700
vt 2.703500 0.118100
vt 2.831800 3.827600
vt 3.276600 3.549900
vt 3.549900 0.722200
vt 3.634400 3.166500
vt 3.880700 2.703500
vt 3.980700 1.668600
vt 3.998800 2.192600
vt 0.899200 0.000000
vt 0.374800 0.087300
vt 0.374800 0.000000
vt 1.235400 0.000000
vt 1.759800 0.087300
vt 1.235400 0.087300
vt 1.805100 0.000000
vt 2.329500 0.087300
vt 1.805100 0.087300
vt 3.088100 0.000000
vt 2.563700 0.087300
vt 2.563700 0.000000
vt 2.234000 0.000000
vt 2.758400 0.087300
vt 2.234000 0.087300
vt -0.164500 0.000000
vt 0.359900 0.087300
vt -0.164500 0.087300
vt -1.235400 0.087300
vt -1.759800 0.000000
vt -1.235400 0.000000
vt 0.164500 0.087300
vt -0.359900 0.000000
vt 0.164500 0.000000
vt -0.563600 0.087300
vt -1.088000 0.000000
vt -0.563600 0.000000
vt -2.136300 0.000000
vt -2.660700 0.087300
vt -2.660700 0.000000
vt 2.191300 0.000000
vt 1.666900 0.087300
vt 1.666900 0.000000
vt 1.590500 0.000000
vt 1.066200 0.087300
vt 1.066200 0.000000
vt -1.666900 0.000000
vt -2.191300 0.087300
vt -2.191300 0.000000
vt -0.118100 1.295300
vt -0.018100 2.330300
vt -0.171300 2.831800
vt -0.449000 3.276600
vt -0.364500 0.832400
vt -0.722200 0.449000
vt -0.832400 3.634400
vt -1.295300 3.880700
vt -1.167000 0.171300
vt -1.668600 0.018100
vt -1.806200 3.998800
vt -2.330300 3.980700
vt -2.192600 0.000000
vt -2.703500 0.118100
vt -2.831800 3.827600
vt -3.276600 3.549900
vt -3.166500 0.364500
vt -3.549900 0.722200
vt -3.634400 3.166500
vt -3.880700 2.703500
vt -3.827600 1.167000
vt -3.980700 1.668600
vt -3.998800 2.192600
vt 0.563600 0.000000
vt 1.088000 0.087300
vt 0.563600 0.087300
vt 2.660700 0.000000
vt 2.136300 0.087300
vt 2.136300 0.000000
vt -1.805100 0.087300
vt -2.329500 0.000000
vt -1.805100 0.000000
vt 2.966500 0.000000
vt 2.442100 0.087300
vt 2.442100 0.000000
vt -2.492700 0.087300
vt -3.017100 0.000000
vt -2.492700 0.000000
vt -2.563700 0.000000
vt -3.088100 0.087300
vt -3.088100 0.000000
vt -2.234000 0.087300
vt -2.758400 0.000000
vt -2.234000 0.000000
vt 2.492700 0.000000
vt 3.017100 0.087300
vt 2.492700 0.087300
vt -2.442100 0.000000
vt -2.966500 0.087300
vt -2.966500 0.000000
vt -0.374800 0.000000
vt -0.899200 0.087300
vt -0.899200 0.000000
vt -1.066200 0.000000
vt -1.590500 0.087300
vt -1.590500 0.000000
vt 0.000000 1.361700
vt -0.087300 1.078800
vt 0.000000 1.078800
vt -1.285300 0.087300
vt -1.397400 0.000000
vt -1.285300 0.000000
vt 0.000000 1.234300
vt 0.087300 1.524400
vt 0.000000 1.524400
vt 0.000000 0.000000
vt 1.397400 0.087300
vt 0.000000 0.087300
vt 0.000000 0.806100
vt -0.087300 0.563900
vt 0.000000 0.563900
vt -0.240200 0.087300
vt -0.240200 0.000000
vt -1.285300 1.131200
vt -1.089500 1.393100
vt -1.187900 1.457800
vt -0.988600 1.657500
vt -1.285300 1.503600
vt -1.076400 1.694800
vt -1.285300 1.793100
vt -1.397400 3.187800
vt -1.288300 0.282900
vt -1.270000 0.565300
vt -1.230600 0.845500
vt -1.179000 1.082100
vt -1.170400 1.122000
vt -1.285300 2.925200
vt 0.000000 3.020500
vt -0.240200 2.925200
vt -0.273900 2.893400
vt -0.205900 2.826500
vt -0.469600 2.679200
vt -0.396700 2.617500
vt -0.648600 2.450900
vt -0.571300 2.394900
vt -0.810000 2.209800
vt -0.728800 2.159800
vt -0.952800 1.957300
vt -0.868100 1.913500
vt 0.000000 3.187800
vt 0.000000 0.482200
vt -0.087300 0.199200
vt 0.000000 0.199200
vt 0.000000 1.023800
vt -0.087300 0.740800
vt 0.000000 0.740800
vt 0.000000 1.661800
vt 0.087300 1.951900
vt 0.000000 1.951900
vt 0.000000 1.831200
vt 0.087300 1.784900
vt 0.087300 1.831200
vt 0.000000 1.075200
vt 0.087300 1.365300
vt 0.000000 1.365300
vt 0.000000 0.296400
vt -0.087300 0.013500
vt 0.000000 0.013500
vt 0.000000 2.925200
vt -0.087300 1.793100
vt 0.000000 1.793100
vt 0.000000 0.666000
vt -0.087300 0.383100
vt 0.000000 0.383100
vt -0.087300 2.071400
vt 0.000000 1.788500
vt 0.000000 2.071400
vt 0.000000 1.385700
vt 0.087300 1.675800
vt 0.000000 1.675800
vt 0.000000 1.815000
vt -0.087300 1.532000
vt 0.000000 1.532000
vt 1.089500 1.393100
vt 1.285300 1.131200
vt 1.187900 1.457800
vt 0.988600 1.657500
vt 1.285300 1.503600
vt 1.076400 1.694800
vt 1.285300 1.793100
vt 1.397400 3.187800
vt 1.288300 0.282900
vt 1.397400 0.000000
vt 1.230600 0.845500
vt 1.179000 1.082100
vt 1.170400 1.122000
vt 1.285300 2.925200
vt 0.240200 2.925200
vt 0.205900 2.826500
vt 0.273900 2.893400
vt 0.396700 2.617500
vt 0.469600 2.679200
vt 0.648600 2.450900
vt 0.571300 2.394900
vt 0.810000 2.209800
vt 0.728800 2.159800
vt 0.868100 1.913500
vt 0.952800 1.957300
vt 0.000000 1.948300
vt -0.087300 1.665300
vt 0.000000 1.665300
vt 0.000000 1.528400
vt 0.087300 1.818600
vt 0.000000 1.818600
vt 0.000000 1.672200
vt -0.087300 1.389300
vt 0.000000 1.389300
vt 0.087300 3.187800
vt -0.087300 3.020500
vt 0.000000 0.846900
vt -0.087300 0.806100
vt 0.000000 1.195700
vt -0.087300 0.912800
vt 0.000000 0.912800
vt 0.000000 0.716800
vt 0.087300 1.057600
vt 0.000000 1.057600
vt 0.000000 1.503600
vt -0.087300 1.131200
vt 0.000000 1.131200
vt 0.087300 1.695600
vt -0.000000 1.803200
vt -0.000000 1.695600
vt -0.087300 1.926500
vt -0.087300 1.695600
vt 0.000000 1.520900
vt -0.087300 1.237900
vt 0.000000 1.237900
vt 1.285300 0.000000
vt 1.270000 0.565300
vt 0.000000 0.289400
vt 0.087300 0.572300
vt 0.000000 0.572300
vt 0.087300 2.805500
vt 0.000000 3.088500
vt 0.000000 2.805500
vt 0.000000 2.212600
vt -0.087300 1.922500
vt 0.000000 1.922500
vt 0.000000 1.926000
vt 0.087300 2.209000
vt 0.000000 2.209000
vt 0.000000 2.166700
vt 0.087300 2.449600
vt 0.000000 2.449600
vt -0.087300 0.000000
vt -0.112100 0.000000
vt 0.000000 1.673800
vt 0.087300 1.956700
vt 0.000000 1.956700
vt 0.000000 1.411300
vt 0.087300 1.694200
vt 0.000000 1.694200
vt 0.000000 1.456800
vt -0.087300 1.116100
vt 0.000000 1.116100
vt 0.087300 1.503600
vt -0.087300 0.538800
vt 0.000000 0.431200
vt 0.000000 0.538800
vt 0.000000 0.662100
vt 0.087300 0.431200
vt 0.087300 0.662100
vt 0.087300 2.925200
vt 0.000000 2.394300
vt 0.087300 2.677200
vt 0.000000 2.677200
vt 0.000000 2.607600
vt 0.087300 2.890600
vt 0.000000 2.890600
vt 0.000000 2.453200
vt -0.087300 2.163100
vt 0.000000 2.163100
vt 0.112100 1.131200
vt 0.307900 1.393100
vt 0.209400 1.457800
vt 0.408800 1.657500
vt 0.112100 1.503600
vt 0.321000 1.694800
vt 0.112100 1.793100
vt 0.109100 0.282900
vt 0.127400 0.565300
vt 0.112100 0.000000
vt 0.166800 0.845500
vt 0.218300 1.082100
vt 0.227000 1.122000
vt 0.112100 2.925200
vt 1.397400 3.020500
vt 1.157100 2.925200
vt 1.123400 2.893400
vt 1.191400 2.826500
vt 0.927800 2.679200
vt 1.000600 2.617500
vt 0.748800 2.450900
vt 0.826000 2.394900
vt 0.587400 2.209800
vt 0.668600 2.159800
vt 0.444500 1.957300
vt 0.529300 1.913500
vt 0.000000 1.960300
vt -0.087300 1.670200
vt 0.000000 1.670200
vt 0.000000 -0.001200
vt 0.087300 0.281800
vt 0.000000 0.281800
vt 0.000000 0.577500
vt 0.087300 0.860500
vt 0.000000 0.860500
vt 0.000000 0.861600
vt 0.087300 1.103800
vt 0.000000 1.103800
vt 0.087300 1.144600
vt 0.000000 1.144600
vt -0.112100 0.087300
vt -1.157100 0.000000
vt 0.000000 2.801900
vt -0.087300 2.848200
vt -0.087300 2.801900
vt 0.000000 1.140100
vt 0.087300 1.423000
vt 0.000000 1.423000
vt -0.307900 1.393100
vt -0.112100 1.131200
vt -0.209400 1.457800
vt -0.408800 1.657500
vt -0.112100 1.503600
vt -0.321000 1.694800
vt -0.112100 1.793100
vt -0.109100 0.282900
vt -0.166800 0.845500
vt -0.218300 1.082100
vt -0.227000 1.122000
vt -0.112100 2.925200
vt -1.157100 2.925200
vt -1.397400 3.020500
vt -1.191400 2.826500
vt -1.123400 2.893400
vt -1.000600 2.617500
vt -0.927800 2.679200
vt -0.748800 2.450900
vt -0.826000 2.394900
vt -0.587400 2.209800
vt -0.668600 2.159800
vt -0.529300 1.913500
vt -0.444500 1.957300
vt 0.000000 2.894200
vt -0.087300 2.604100
vt 0.000000 2.604100
vt 0.000000 2.680800
vt -0.087300 2.390700
vt 0.000000 2.390700
vt 0.000000 1.806200
vt 0.364500 0.832400
vt 1.167000 0.171300
vt 2.192600 0.000000
vt 3.166500 0.364500
vt 3.827600 1.167000
vt 0.899200 0.087300
vt 1.759800 0.000000
vt 2.329500 0.000000
vt 3.088100 0.087300
vt 2.758400 0.000000
vt 0.359900 0.000000
vt -1.759800 0.087300
vt -0.359900 0.087300
vt -1.088000 0.087300
vt -2.136300 0.087300
vt 2.191300 0.087300
vt 1.590500 0.087300
vt -1.666900 0.087300
vt 1.088000 0.000000
vt 2.660700 0.087300
vt -2.329500 0.087300
vt 2.966500 0.087300
vt -3.017100 0.087300
vt -2.563700 0.087300
vt -2.758400 0.087300
vt 3.017100 0.000000
vt -2.442100 0.087300
vt -0.374800 0.087300
vt -1.066200 0.087300
vt -0.087300 1.361700
vt -1.397400 0.087300
vt 0.087300 1.234300
vt -0.087300 0.482200
vt -0.087300 1.023800
vt 0.087300 1.661800
vt 0.000000 1.784900
vt 0.087300 1.075200
vt -0.087300 0.296400
vt -0.087300 2.925200
vt -0.087300 0.666000
vt -0.087300 1.788500
vt 0.087300 1.385700
vt -0.087300 1.815000
vt -0.087300 1.948300
vt 0.087300 1.528400
vt -0.087300 1.672200
vt 0.087300 0.000000
vt -0.087300 3.187800
vt -0.087300 0.846900
vt -0.087300 1.195700
vt 0.087300 0.716800
vt -0.087300 1.503600
vt 0.087300 1.803200
vt -0.000000 1.926500
vt -0.087300 1.520900
vt 0.087300 0.289400
vt 0.087300 3.088500
vt 0.087300 3.020500
vt -0.087300 2.212600
vt 0.087300 1.926000
vt 0.087300 2.166700
vt 0.087300 1.673800
vt 0.087300 1.411300
vt -0.087300 1.456800
vt 0.087300 1.131200
vt -0.087300 0.431200
vt 0.087300 1.793100
vt 0.087300 2.394300
vt 0.087300 2.607600
vt -0.087300 2.453200
vt -0.087300 1.960300
vt 0.087300 -0.001200
vt 0.087300 0.577500
vt 0.087300 0.861600
vt -1.157100 0.087300
vt 0.000000 2.848200
vt 0.087300 1.140100
vt -0.127400 0.565300
vt -0.087300 2.894200
vt -0.087300 2.680800
s 0
usemtl wire_224198087.001
f 1/1/1 3/2/1 4/3/1
f 3/2/1 6/4/1 4/3/1
f 6/4/1 7/5/1 8/6/1
f 7/5/1 10/7/1 8/6/1
f 10/7/1 11/8/1 12/9/1
f 11/8/1 14/10/1 12/9/1
f 14/10/1 15/11/1 16/12/1
f 15/11/1 18/13/1 16/12/1
f 18/13/1 19/14/1 20/15/1
f 19/14/1 22/16/1 20/15/1
f 22/16/1 23/17/1 24/18/1
f 26/19/2 7/20/3 25/21/4
f 27/22/5 22/23/6 24/24/7
f 29/25/8 24/26/9 23/27/10
f 31/28/11 17/29/12 30/30/13
f 32/31/14 23/32/15 21/33/16
f 33/34/17 18/35/18 20/36/19
f 3/37/20 36/38/21 35/39/22
f 7/40/23 37/41/24 25/42/4
f 5/43/25 35/44/26 37/45/27
f 39/46/28 12/47/29 38/48/30
f 41/49/31 11/50/32 40/51/33
f 40/52/34 9/53/35 26/54/36
f 38/55/37 14/56/38 42/57/39
f 35/58/40 43/59/40 44/60/40
f 35/58/40 45/61/40 37/62/40
f 25/63/40 45/61/40 46/64/40
f 25/63/40 39/65/40 26/66/40
f 40/67/40 39/65/40 38/68/40
f 40/67/40 42/69/40 41/70/40
f 47/71/40 42/69/40 48/72/40
f 47/71/40 34/73/40 30/74/40
f 31/75/40 34/73/40 33/76/40
f 31/75/40 28/77/40 32/78/40
f 29/79/40 28/77/40 27/80/40
f 28/81/41 20/82/42 22/83/43
f 47/84/44 13/85/45 41/86/46
f 2/87/47 43/88/48 36/89/49
f 30/90/50 15/91/51 47/92/52
f 4/93/53 45/94/54 44/95/55
f 45/96/56 8/97/57 46/98/58
f 1/99/59 44/100/60 43/101/61
f 31/102/62 21/103/63 19/104/64
f 46/105/65 10/106/66 39/107/67
f 48/108/68 18/109/69 34/110/70
f 42/111/71 16/112/72 48/113/73
f 1/1/1 2/369/1 3/2/1
f 3/2/1 5/370/1 6/4/1
f 6/4/1 5/370/1 7/5/1
f 7/5/1 9/371/1 10/7/1
f 10/7/1 9/371/1 11/8/1
f 11/8/1 13/372/1 14/10/1
f 14/10/1 13/372/1 15/11/1
f 15/11/1 17/373/1 18/13/1
f 18/13/1 17/373/1 19/14/1
f 19/14/1 21/374/1 22/16/1
f 22/16/1 21/374/1 23/17/1
f 26/19/260 9/375/36 7/20/261
f 27/22/262 28/376/43 22/23/263
f 29/25/264 27/377/7 24/26/265
f 31/28/266 19/378/64 17/29/267
f 32/31/268 29/379/10 23/32/269
f 33/34/270 34/380/70 18/35/271
f 3/37/272 2/381/49 36/38/273
f 7/40/274 5/382/27 37/41/275
f 5/43/276 3/383/22 35/44/277
f 39/46/278 10/384/67 12/47/279
f 41/49/280 13/385/46 11/50/281
f 40/52/282 11/386/33 9/53/283
f 38/55/284 12/387/30 14/56/285
f 35/58/40 36/369/40 43/59/40
f 35/58/40 44/60/40 45/61/40
f 25/63/40 37/62/40 45/61/40
f 25/63/40 46/64/40 39/65/40
f 40/67/40 26/66/40 39/65/40
f 40/67/40 38/68/40 42/69/40
f 47/71/40 41/70/40 42/69/40
f 47/71/40 48/72/40 34/73/40
f 31/75/40 30/74/40 34/73/40
f 31/75/40 33/76/40 28/77/40
f 29/79/40 32/78/40 28/77/40
f 28/81/286 33/388/19 20/82/287
f 47/84/288 15/389/52 13/85/289
f 2/87/290 1/390/61 43/88/291
f 30/90/292 17/391/13 15/91/293
f 4/93/294 6/392/295 45/94/296
f 45/96/297 6/393/295 8/97/298
f 1/99/299 4/394/55 44/100/300
f 31/102/301 32/395/16 21/103/302
f 46/105/303 8/396/58 10/106/304
f 48/108/305 16/397/73 18/109/306
f 42/111/307 14/398/39 16/112/308
usemtl wire_134006006
f 50/114/74 52/115/75 49/116/76
f 54/117/1 56/118/1 53/119/1
f 58/120/77 60/121/78 57/122/79
f 62/123/40 64/124/40 61/125/40
f 66/126/80 68/127/81 65/128/82
f 70/129/1 72/119/1 69/130/1
f 73/131/83 75/132/83 76/133/83
f 76/133/83 52/134/83 77/135/83
f 77/135/83 78/136/83 79/137/83
f 77/135/83 64/138/83 73/131/83
f 73/131/83 81/139/83 80/140/83
f 81/139/83 55/118/83 54/119/83
f 73/131/83 68/141/83 67/142/83
f 73/131/83 67/142/83 74/143/83
f 64/138/83 71/144/83 82/145/83
f 82/145/83 70/146/83 83/147/83
f 84/148/83 83/147/83 85/149/83
f 86/150/83 85/149/83 87/151/83
f 88/152/83 87/151/83 60/153/83
f 89/154/83 60/153/83 59/155/83
f 51/156/83 59/155/83 78/136/83
f 51/156/83 78/136/83 52/134/83
f 64/138/83 82/145/83 61/157/83
f 91/158/84 81/159/85 90/160/86
f 93/161/87 74/162/88 92/163/89
f 95/164/90 83/165/91 94/166/92
f 69/167/93 83/168/94 70/169/93
f 96/170/95 59/171/96 58/172/97
f 90/173/86 54/174/98 53/175/98
f 72/176/99 79/177/99 97/178/99
f 65/179/82 80/180/100 91/181/84
f 82/182/101 99/183/102 98/184/101
f 57/185/103 87/186/104 100/187/105
f 102/188/106 88/189/107 101/190/108
f 93/191/109 103/192/109 104/193/109
f 49/194/109 104/193/109 105/195/109
f 96/196/109 105/195/109 97/197/109
f 63/198/109 105/195/109 103/192/109
f 103/192/109 90/199/109 63/198/109
f 90/199/109 56/200/109 63/198/109
f 65/201/109 103/192/109 66/202/109
f 66/202/109 103/192/109 92/203/109
f 72/204/109 63/198/109 69/205/109
f 69/205/109 62/157/109 98/145/109
f 69/205/109 99/206/109 94/207/109
f 94/207/109 102/208/109 95/209/109
f 100/210/109 102/208/109 101/211/109
f 57/212/109 101/211/109 106/213/109
f 57/212/109 50/214/109 58/215/109
f 96/196/109 50/214/109 49/194/109
f 99/216/102 86/217/110 102/218/106
f 100/219/111 85/220/112 95/221/113
f 101/222/108 89/223/114 106/224/115
f 56/123/116 64/225/116 63/157/116
f 62/157/99 82/226/99 98/145/99
f 92/227/89 67/228/117 66/126/117
f 49/229/76 75/230/118 93/231/87
f 103/232/119 76/233/119 104/234/119
f 105/235/99 73/236/99 103/237/99
f 76/238/120 105/239/120 104/240/120
f 96/240/121 79/241/121 78/242/121
f 106/243/115 51/244/122 50/245/74
f 224/114/215 226/115/216 223/116/217
f 228/117/1 230/118/1 227/119/1
f 232/120/218 234/121/219 231/122/220
f 236/123/40 238/124/40 235/125/40
f 240/126/221 242/127/222 239/128/223
f 244/129/1 246/119/1 243/130/1
f 247/131/109 249/132/109 250/133/109
f 250/133/109 226/134/109 251/135/109
f 251/135/109 252/136/109 253/137/109
f 251/135/109 238/138/109 247/131/109
f 247/131/109 255/139/109 254/140/109
f 255/139/109 229/118/109 228/119/109
f 247/131/109 242/141/109 241/142/109
f 247/131/109 241/142/109 248/143/109
f 238/138/109 245/144/109 256/145/109
f 256/145/109 244/146/109 257/147/109
f 258/148/109 257/147/109 259/149/109
f 260/150/109 259/149/109 261/151/109
f 262/152/109 261/151/109 234/153/109
f 263/154/109 234/153/109 233/155/109
f 225/156/109 233/155/109 252/136/109
f 225/156/109 252/136/109 226/134/109
f 238/138/109 256/145/109 235/157/109
f 265/158/224 255/159/225 264/160/226
f 267/161/227 248/162/228 266/163/229
f 269/164/230 257/165/231 268/166/232
f 243/167/233 257/168/234 244/169/233
f 270/170/235 233/171/236 232/172/237
f 264/173/226 228/174/238 227/175/238
f 246/176/116 253/177/116 271/178/116
f 239/179/223 254/180/239 265/181/224
f 256/182/240 273/183/241 272/184/240
f 231/185/242 261/186/243 274/187/244
f 276/188/245 262/189/246 275/190/247
f 267/191/83 277/192/83 278/193/83
f 223/194/83 278/193/83 279/195/83
f 270/196/83 279/195/83 271/197/83
f 237/198/83 279/195/83 277/192/83
f 277/192/83 264/199/83 237/198/83
f 264/199/83 230/200/83 237/198/83
f 239/201/83 277/192/83 240/202/83
f 240/202/83 277/192/83 266/203/83
f 246/204/83 237/198/83 243/205/83
f 243/205/83 236/157/83 272/145/83
f 243/205/83 273/206/83 268/207/83
f 268/207/83 276/208/83 269/209/83
f 274/210/83 276/208/83 275/211/83
f 231/212/83 275/211/83 280/213/83
f 231/212/83 224/214/83 232/215/83
f 270/196/83 224/214/83 223/194/83
f 273/216/241 260/217/248 276/218/245
f 274/219/249 259/220/250 269/221/251
f 275/222/247 263/223/252 280/224/253
f 230/123/99 238/225/99 237/157/99
f 236/157/116 256/226/116 272/145/116
f 266/227/229 241/228/254 240/126/254
f 223/229/217 249/230/255 267/231/227
f 277/232/256 250/233/256 278/234/256
f 279/235/116 247/236/116 277/237/116
f 250/238/257 279/239/257 278/240/257
f 270/240/258 253/241/258 252/242/258
f 280/243/253 225/244/259 224/245/215
f 50/114/309 51/399/74 52/115/76
f 54/117/1 55/400/1 56/118/1
f 58/120/310 59/401/97 60/121/311
f 62/123/40 63/200/40 64/124/40
f 66/126/80 67/228/80 68/127/82
f 70/129/1 71/117/1 72/119/1
f 73/131/83 74/143/83 75/132/83
f 76/133/83 75/132/83 52/134/83
f 77/135/83 52/134/83 78/136/83
f 77/135/83 79/137/83 64/138/83
f 73/131/83 64/138/83 81/139/83
f 81/139/83 64/138/83 55/118/83
f 73/131/83 80/140/83 68/141/83
f 64/138/83 79/137/83 71/144/83
f 82/145/83 71/144/83 70/146/83
f 84/148/83 82/145/83 83/147/83
f 86/150/83 84/148/83 85/149/83
f 88/152/83 86/150/83 87/151/83
f 89/154/83 88/152/83 60/153/83
f 51/156/83 89/154/83 59/155/83
f 91/158/312 80/402/84 81/159/86
f 93/161/313 75/403/87 74/162/89
f 95/164/314 85/404/113 83/165/315
f 69/167/93 94/405/92 83/168/316
f 96/170/95 78/406/95 59/171/317
f 90/173/318 81/407/86 54/174/98
f 72/176/99 71/408/99 79/177/99
f 65/179/319 68/409/82 80/180/84
f 82/182/101 84/410/102 99/183/320
f 57/185/321 60/411/79 87/186/322
f 102/188/323 86/412/106 88/189/108
f 93/191/109 92/203/109 103/192/109
f 49/194/109 93/191/109 104/193/109
f 96/196/109 49/194/109 105/195/109
f 63/198/109 97/197/109 105/195/109
f 103/192/109 91/247/109 90/199/109
f 90/199/109 53/246/109 56/200/109
f 65/201/109 91/247/109 103/192/109
f 72/204/109 97/197/109 63/198/109
f 69/205/109 63/198/109 62/157/109
f 69/205/109 98/145/109 99/206/109
f 94/207/109 99/206/109 102/208/109
f 100/210/109 95/209/109 102/208/109
f 57/212/109 100/210/109 101/211/109
f 57/212/109 106/213/109 50/214/109
f 96/196/109 58/215/109 50/214/109
f 99/216/324 84/413/102 86/217/106
f 100/219/325 87/414/105 85/220/326
f 101/222/327 88/415/108 89/223/115
f 56/123/116 55/416/116 64/225/116
f 62/157/99 61/417/99 82/226/99
f 92/227/328 74/418/89 67/228/117
f 49/229/329 52/419/76 75/230/87
f 103/232/119 73/420/119 76/233/119
f 105/235/99 77/421/99 73/236/99
f 76/238/120 77/422/120 105/239/120
f 96/240/121 97/423/121 79/241/121
f 106/243/330 89/424/115 51/244/74
f 224/114/373 225/399/215 226/115/217
f 228/117/1 229/400/1 230/118/1
f 232/120/374 233/401/237 234/121/375
f 236/123/40 237/200/40 238/124/40
f 240/126/221 241/228/221 242/127/223
f 244/129/1 245/117/1 246/119/1
f 247/131/109 248/143/109 249/132/109
f 250/133/109 249/132/109 226/134/109
f 251/135/109 226/134/109 252/136/109
f 251/135/109 253/137/109 238/138/109
f 247/131/109 238/138/109 255/139/109
f 255/139/109 238/138/109 229/118/109
f 247/131/109 254/140/109 242/141/109
f 238/138/109 253/137/109 245/144/109
f 256/145/109 245/144/109 244/146/109
f 258/148/109 256/145/109 257/147/109
f 260/150/109 258/148/109 259/149/109
f 262/152/109 260/150/109 261/151/109
f 263/154/109 262/152/109 234/153/109
f 225/156/109 263/154/109 233/155/109
f 265/158/376 254/402/224 255/159/226
f 267/161/377 249/403/227 248/162/229
f 269/164/378 259/404/251 257/165/379
f 243/167/233 268/405/232 257/168/380
f 270/170/235 252/406/235 233/171/381
f 264/173/382 255/407/226 228/174/238
f 246/176/116 245/408/116 253/177/116
f 239/179/383 242/409/223 254/180/224
f 256/182/240 258/410/241 273/183/384
f 231/185/385 234/411/220 261/186/386
f 276/188/387 260/412/245 262/189/247
f 267/191/83 266/203/83 277/192/83
f 223/194/83 267/191/83 278/193/83
f 270/196/83 223/194/83 279/195/83
f 237/198/83 271/197/83 279/195/83
f 277/192/83 265/247/83 264/199/83
f 264/199/83 227/246/83 230/200/83
f 239/201/83 265/247/83 277/192/83
f 246/204/83 271/197/83 237/198/83
f 243/205/83 237/198/83 236/157/83
f 243/205/83 272/145/83 273/206/83
f 268/207/83 273/206/83 276/208/83
f 274/210/83 269/209/83 276/208/83
f 231/212/83 274/210/83 275/211/83
f 231/212/83 280/213/83 224/214/83
f 270/196/83 232/215/83 224/214/83
f 273/216/388 258/413/241 260/217/245
f 274/219/389 261/414/244 259/220/390
f 275/222/391 262/415/247 263/223/253
f 230/123/99 229/416/99 238/225/99
f 236/157/116 235/417/116 256/226/116
f 266/227/392 248/418/229 241/228/254
f 223/229/393 226/419/217 249/230/227
f 277/232/256 247/420/256 250/233/256
f 279/235/116 251/421/116 247/236/116
f 250/238/257 251/422/257 279/239/257
f 270/240/258 271/423/258 253/241/258
f 280/243/394 263/424/253 225/244/215
usemtl wire_224086086
f 108/123/40 110/124/40 107/125/40
f 112/120/123 114/121/124 111/122/125
f 116/243/126 118/244/127 115/245/128
f 119/222/129 117/223/130 116/224/126
f 121/123/83 110/225/83 109/157/83
f 124/117/1 121/118/1 123/119/1
f 115/114/128 126/115/131 125/116/132
f 125/229/132 128/230/133 127/231/134
f 130/232/135 132/233/135 129/234/135
f 133/235/109 131/236/109 130/237/109
f 132/238/136 133/239/136 129/240/136
f 136/240/137 138/241/137 135/242/137
f 139/176/109 138/177/109 137/178/109
f 142/227/138 144/228/139 141/126/139
f 145/188/140 120/189/141 119/190/129
f 147/216/142 146/217/143 145/218/140
f 111/185/144 150/186/145 149/187/146
f 141/126/147 152/127/148 151/128/149
f 154/129/1 139/119/1 153/130/1
f 121/200/116 155/199/116 123/246/116
f 155/199/116 130/192/116 156/247/116
f 133/195/116 109/198/116 137/197/116
f 139/204/116 109/198/116 153/205/116
f 153/205/116 108/157/116 157/145/116
f 153/205/116 147/206/116 158/207/116
f 158/207/116 145/208/116 159/209/116
f 149/210/116 145/208/116 119/211/116
f 111/212/116 119/211/116 116/213/116
f 111/212/116 115/214/116 112/215/116
f 136/196/116 115/214/116 125/194/116
f 136/196/116 133/195/116 137/197/116
f 129/193/116 125/194/116 127/191/116
f 130/192/116 127/191/116 142/203/116
f 130/192/116 141/202/116 151/201/116
f 156/247/116 130/192/116 151/201/116
f 136/170/150 113/171/151 112/172/152
f 155/173/153 124/174/154 123/175/154
f 151/179/149 161/180/155 156/181/156
f 159/164/157 163/165/158 158/166/159
f 149/219/160 162/220/161 159/221/162
f 153/167/163 163/168/164 154/169/163
f 127/161/134 143/162/165 142/163/138
f 131/131/99 128/132/99 132/133/99
f 132/133/99 126/134/99 134/135/99
f 134/135/99 135/136/99 138/137/99
f 134/135/99 110/138/99 131/131/99
f 131/131/99 160/139/99 161/140/99
f 160/139/99 122/118/99 124/119/99
f 131/131/99 152/141/99 144/142/99
f 131/131/99 144/142/99 143/143/99
f 110/138/99 140/144/99 164/145/99
f 164/145/99 154/146/99 163/147/99
f 148/148/99 163/147/99 162/149/99
f 146/150/99 162/149/99 150/151/99
f 120/152/99 150/151/99 114/153/99
f 117/154/99 114/153/99 113/155/99
f 118/156/99 113/155/99 135/136/99
f 118/156/99 135/136/99 126/134/99
f 110/138/99 164/145/99 107/157/99
f 108/157/109 164/226/109 157/145/109
f 156/158/156 160/159/166 155/160/153
f 164/182/167 147/183/142 157/184/167
f 108/123/40 109/200/40 110/124/40
f 112/120/331 113/401/152 114/121/332
f 116/243/333 117/424/126 118/244/128
f 119/222/334 120/415/129 117/223/126
f 121/123/83 122/416/83 110/225/83
f 124/117/1 122/400/1 121/118/1
f 115/114/335 118/399/128 126/115/132
f 125/229/336 126/419/132 128/230/134
f 130/232/135 131/420/135 132/233/135
f 133/235/109 134/421/109 131/236/109
f 132/238/136 134/422/136 133/239/136
f 136/240/137 137/423/137 138/241/137
f 139/176/109 140/408/109 138/177/109
f 142/227/337 143/418/138 144/228/139
f 145/188/338 146/412/140 120/189/129
f 147/216/339 148/413/142 146/217/140
f 111/185/340 114/411/125 150/186/341
f 141/126/147 144/228/147 152/127/149
f 154/129/1 140/117/1 139/119/1
f 121/200/116 109/198/116 155/199/116
f 155/199/116 109/198/116 130/192/116
f 133/195/116 130/192/116 109/198/116
f 139/204/116 137/197/116 109/198/116
f 153/205/116 109/198/116 108/157/116
f 153/205/116 157/145/116 147/206/116
f 158/207/116 147/206/116 145/208/116
f 149/210/116 159/209/116 145/208/116
f 111/212/116 149/210/116 119/211/116
f 111/212/116 116/213/116 115/214/116
f 136/196/116 112/215/116 115/214/116
f 136/196/116 125/194/116 133/195/116
f 129/193/116 133/195/116 125/194/116
f 130/192/116 129/193/116 127/191/116
f 130/192/116 142/203/116 141/202/116
f 136/170/150 135/406/150 113/171/342
f 155/173/343 160/407/153 124/174/154
f 151/179/344 152/409/149 161/180/156
f 159/164/345 162/404/162 163/165/346
f 149/219/347 150/414/146 162/220/348
f 153/167/163 158/405/159 163/168/349
f 127/161/350 128/403/134 143/162/138
f 131/131/99 143/143/99 128/132/99
f 132/133/99 128/132/99 126/134/99
f 134/135/99 126/134/99 135/136/99
f 134/135/99 138/137/99 110/138/99
f 131/131/99 110/138/99 160/139/99
f 160/139/99 110/138/99 122/118/99
f 131/131/99 161/140/99 152/141/99
f 110/138/99 138/137/99 140/144/99
f 164/145/99 140/144/99 154/146/99
f 148/148/99 164/145/99 163/147/99
f 146/150/99 148/148/99 162/149/99
f 120/152/99 146/150/99 150/151/99
f 117/154/99 120/152/99 114/153/99
f 118/156/99 117/154/99 113/155/99
f 108/157/109 107/417/109 164/226/109
f 156/158/351 161/402/156 160/159/153
f 164/182/167 148/410/142 147/183/352
usemtl wire_087224198
f 166/248/168 168/249/169 165/250/170
f 170/251/171 172/252/172 169/253/173
f 172/145/83 174/225/83 173/157/83
f 176/123/40 174/124/40 175/125/40
f 178/254/174 180/255/175 177/256/176
f 182/257/177 184/258/178 181/259/179
f 181/260/179 186/261/180 185/262/181
f 176/157/109 188/263/109 187/123/109
f 188/125/1 190/264/1 187/123/1
f 191/265/182 183/266/183 182/267/177
f 193/268/184 192/269/185 191/270/182
f 196/271/186 198/272/186 195/273/186
f 195/237/83 200/274/83 199/235/83
f 200/275/187 196/276/187 199/277/187
f 202/278/188 204/279/188 201/280/188
f 202/178/83 206/281/83 205/176/83
f 185/282/181 208/283/189 207/284/190
f 207/285/190 170/286/191 169/287/173
f 209/288/192 179/289/193 178/290/194
f 195/291/116 193/292/116 196/293/116
f 196/293/116 191/294/116 199/295/116
f 199/295/116 203/296/116 202/297/116
f 199/295/116 176/157/116 195/291/116
f 195/291/116 166/298/116 165/299/116
f 166/298/116 187/123/116 190/300/116
f 195/291/116 212/301/116 213/302/116
f 195/291/116 213/302/116 211/303/116
f 176/157/116 205/304/116 172/305/116
f 172/305/116 214/306/116 215/307/116
f 169/308/116 215/307/116 216/309/116
f 207/310/116 216/309/116 209/311/116
f 185/312/116 209/311/116 178/313/116
f 181/314/116 178/313/116 177/315/116
f 182/316/116 177/315/116 203/296/116
f 182/316/116 203/296/116 191/294/116
f 176/157/116 172/305/116 173/198/116
f 177/317/195 204/318/196 203/319/196
f 190/320/197 167/321/198 166/322/168
f 165/323/170 217/324/199 212/325/200
f 212/326/200 218/327/201 213/328/201
f 213/328/202 219/329/203 211/330/204
f 206/331/1 214/332/1 205/264/1
f 215/333/205 220/334/206 221/335/207
f 211/336/204 194/337/208 193/338/184
f 194/339/99 198/340/99 197/341/99
f 192/342/99 197/341/99 200/343/99
f 204/344/99 200/343/99 201/345/99
f 175/157/99 200/343/99 198/340/99
f 198/340/99 167/346/99 175/157/99
f 167/346/99 188/123/99 175/157/99
f 217/347/99 198/340/99 218/348/99
f 218/348/99 198/340/99 219/349/99
f 206/350/99 175/157/99 220/351/99
f 220/351/99 174/138/99 171/352/99
f 220/351/99 170/353/99 221/354/99
f 221/354/99 208/355/99 222/356/99
f 210/357/99 208/355/99 186/358/99
f 179/359/99 186/358/99 184/360/99
f 179/359/99 183/361/99 180/362/99
f 204/344/99 183/361/99 192/342/99
f 215/363/209 222/364/210 216/365/211
f 216/366/212 210/367/213 209/368/214
f 166/248/353 167/425/168 168/249/170
f 170/251/173 171/426/172 172/252/172
f 172/145/83 171/427/83 174/225/83
f 176/123/40 173/200/40 174/124/40
f 178/254/354 179/428/194 180/255/355
f 182/257/356 183/429/177 184/258/179
f 181/260/357 184/430/179 186/261/181
f 176/157/109 175/417/109 188/263/109
f 188/125/1 189/331/1 190/264/1
f 191/265/358 192/431/182 183/266/177
f 193/268/359 194/432/184 192/269/182
f 196/271/186 197/433/186 198/272/186
f 195/237/83 198/434/83 200/274/83
f 200/275/187 197/435/187 196/276/187
f 202/278/188 203/276/188 204/279/188
f 202/178/83 201/436/83 206/281/83
f 185/282/360 186/437/181 208/283/190
f 207/285/361 208/438/190 170/286/173
f 209/288/362 210/439/214 179/289/363
f 195/291/116 211/303/116 193/292/116
f 196/293/116 193/292/116 191/294/116
f 199/295/116 191/294/116 203/296/116
f 199/295/116 202/297/116 176/157/116
f 195/291/116 176/157/116 166/298/116
f 166/298/116 176/157/116 187/123/116
f 195/291/116 165/299/116 212/301/116
f 176/157/116 202/297/116 205/304/116
f 172/305/116 205/304/116 214/306/116
f 169/308/116 172/305/116 215/307/116
f 207/310/116 169/308/116 216/309/116
f 185/312/116 207/310/116 209/311/116
f 181/314/116 185/312/116 178/313/116
f 182/316/116 181/314/116 177/315/116
f 177/317/364 180/440/176 204/318/196
f 190/320/197 189/441/197 167/321/168
f 165/323/365 168/442/170 217/324/200
f 212/326/366 217/443/200 218/327/201
f 213/328/202 218/327/202 219/329/204
f 206/331/1 220/444/1 214/332/1
f 215/333/367 214/445/206 220/334/206
f 211/336/368 219/446/204 194/337/184
f 194/339/99 219/349/99 198/340/99
f 192/342/99 194/339/99 197/341/99
f 204/344/99 192/342/99 200/343/99
f 175/157/99 201/345/99 200/343/99
f 198/340/99 168/447/99 167/346/99
f 167/346/99 189/264/99 188/123/99
f 217/347/99 168/447/99 198/340/99
f 206/350/99 201/345/99 175/157/99
f 220/351/99 175/157/99 174/138/99
f 220/351/99 171/352/99 170/353/99
f 221/354/99 170/353/99 208/355/99
f 210/357/99 222/356/99 208/355/99
f 179/359/99 210/357/99 186/358/99
f 179/359/99 184/360/99 183/361/99
f 204/344/99 180/362/99 183/361/99
f 215/363/369 221/448/207 222/364/370
f 216/366/371 222/449/211 210/367/372
