o convex_0
v -0.129151 0.325181 0.089672
v -0.183611 0.167243 0.214881
v -0.150947 0.167243 0.214881
v -0.134605 0.232606 0.013416
v -0.194505 0.401457 0.122350
v -0.194505 0.270778 -0.002910
v -0.129151 0.281668 0.214881
v -0.134605 0.385110 0.040643
v -0.194505 0.259842 0.247559
v -0.134605 0.374220 0.176753
v -0.194505 0.194480 0.062445
v -0.194505 0.357874 0.013416
v -0.134605 0.319748 -0.002910
v -0.134605 0.189046 0.089672
v -0.150947 0.167243 0.253010
v -0.199946 0.243519 0.209431
v -0.156395 0.259842 0.258486
v -0.194505 0.368764 0.182204
v -0.194505 0.167243 0.247559
v -0.134605 0.401457 0.122350
v -0.129151 0.232606 0.198530
v -0.194505 0.396000 0.062445
v -0.199946 0.303402 0.084222
v -0.183611 0.265298 0.258486
v -0.194505 0.232606 0.013416
v -0.134605 0.205393 0.040643
f 11 25 26 
f 12 8 13 
f 1 4 13 
f 4 6 13 
f 8 1 13 
f 6 12 13 
f 3 2 14 
f 2 11 14 
f 2 3 15 
f 3 14 15 
f 7 10 17 
f 15 7 17 
f 10 5 18 
f 16 9 18 
f 5 16 18 
f 11 2 19 
f 2 15 19 
f 9 16 19 
f 16 11 19 
f 7 1 20 
f 1 8 20 
f 10 7 20 
f 5 10 20 
f 1 7 21 
f 7 15 21 
f 15 14 21 
f 8 12 22 
f 5 20 22 
f 20 8 22 
f 12 6 23 
f 16 5 23 
f 11 16 23 
f 22 12 23 
f 5 22 23 
f 17 10 24 
f 15 17 24 
f 10 18 24 
f 18 9 24 
f 19 15 24 
f 9 19 24 
f 6 4 25 
f 23 6 25 
f 11 23 25 
f 4 1 26 
f 14 11 26 
f 1 21 26 
f 21 14 26 
f 25 4 26 
o convex_1
v 0.115933 0.172686 1.315159
v -0.085548 0.129117 1.217151
v -0.096436 0.123669 1.222589
v -0.091004 0.189030 1.336936
v 0.017897 0.194478 1.217151
v 0.099590 0.123669 1.336936
v 0.099590 0.123669 1.222589
v -0.096436 0.123669 1.336936
v -0.101891 0.183582 1.228040
v 0.077791 0.189030 1.347849
v 0.094134 0.189030 1.228040
v -0.118234 0.134565 1.309708
v -0.080093 0.129117 1.347849
v 0.115933 0.134565 1.244379
v -0.085548 0.189030 1.217151
v -0.118234 0.172686 1.266168
v -0.080093 0.189030 1.347849
v 0.083247 0.129117 1.347849
v 0.088702 0.129117 1.217151
v -0.112779 0.129117 1.238928
v 0.115933 0.172686 1.244379
v -0.107324 0.178127 1.331498
f 39 43 48 
f 29 28 33 
f 32 29 33 
f 29 32 34 
f 32 27 36 
f 36 27 37 
f 31 36 37 
f 34 32 39 
f 27 32 40 
f 32 33 40 
f 28 29 41 
f 30 31 41 
f 31 28 41 
f 29 35 41 
f 35 30 41 
f 30 35 42 
f 31 30 43 
f 36 31 43 
f 39 36 43 
f 32 36 44 
f 39 32 44 
f 36 39 44 
f 28 31 45 
f 33 28 45 
f 37 33 45 
f 31 37 45 
f 29 34 46 
f 35 29 46 
f 34 38 46 
f 42 35 46 
f 38 42 46 
f 37 27 47 
f 33 37 47 
f 27 40 47 
f 40 33 47 
f 38 34 48 
f 34 39 48 
f 30 42 48 
f 42 38 48 
f 43 30 48 
o convex_2
v -0.031101 0.248943 1.064615
v 0.039700 0.238047 1.102754
v 0.017907 0.205387 1.249799
v 0.017907 0.265286 1.178995
v -0.014763 0.194478 1.249799
v 0.039700 0.227165 1.070089
v -0.014763 0.265286 1.178995
v -0.042002 0.227165 1.070089
v 0.023353 0.254384 1.075545
v 0.017907 0.194478 1.217116
v -0.042002 0.238047 1.102754
f 49 56 59 
f 51 50 52 
f 51 52 55 
f 53 51 55 
f 49 54 56 
f 52 50 57 
f 50 54 57 
f 54 49 57 
f 55 52 57 
f 49 55 57 
f 50 51 58 
f 51 53 58 
f 54 50 58 
f 53 56 58 
f 56 54 58 
f 55 49 59 
f 53 55 59 
f 56 53 59 
o convex_3
v -0.129166 0.085400 0.351079
v -0.232635 -0.252097 0.351081
v -0.205401 -0.464480 0.334746
v -0.129166 -0.317400 0.356529
v -0.205401 0.085400 0.340193
v -0.129166 -0.328329 0.334746
v -0.232635 0.058267 0.356526
v -0.129166 0.085400 0.340193
v -0.205401 -0.116054 0.334746
v -0.232635 -0.252097 0.356526
v -0.129166 0.074526 0.356529
v -0.199942 -0.464480 0.340193
v -0.232635 0.058267 0.351081
f 64 68 72 
f 60 63 65 
f 60 64 66 
f 64 60 67 
f 60 65 67 
f 67 65 68 
f 62 61 68 
f 65 62 68 
f 64 67 68 
f 61 62 69 
f 66 61 69 
f 63 66 69 
f 63 60 70 
f 66 63 70 
f 60 66 70 
f 62 65 71 
f 65 63 71 
f 69 62 71 
f 63 69 71 
f 61 66 72 
f 66 64 72 
f 68 61 72 
o convex_4
v 0.132296 -0.551736 0.160444
v -0.129151 -0.824077 0.154998
v -0.129151 -0.824077 0.165890
v 0.132296 -0.824077 0.165890
v -0.129151 -0.551736 0.165890
v 0.132296 -0.824077 0.154998
v -0.129151 -0.551736 0.160444
v 0.132296 -0.551736 0.165890
f 77 76 80 
f 75 74 76 
f 74 75 77 
f 75 76 77 
f 74 73 78 
f 76 74 78 
f 73 76 78 
f 73 74 79 
f 77 73 79 
f 74 77 79 
f 76 73 80 
f 73 77 80 
o convex_5
v 0.197658 0.401457 0.084226
v 0.143198 0.189031 0.089673
v 0.143198 0.194479 0.062413
v 0.143198 0.401457 0.122278
v 0.197658 0.243530 0.209464
v 0.197658 0.270770 -0.002961
v 0.143198 0.336061 0.002486
v 0.132296 0.248978 0.209464
v 0.197658 0.368769 0.182204
v 0.197658 0.189031 0.111382
v 0.143198 0.341509 0.198569
v 0.132296 0.308843 0.073330
v 0.143198 0.254426 0.002486
v 0.197658 0.357853 0.013382
v 0.143198 0.385113 0.040642
v 0.197658 0.205374 0.040642
v 0.132296 0.227166 0.198569
v 0.132296 0.287093 0.209464
v 0.197658 0.325165 0.204017
v 0.197658 0.194479 0.138621
v 0.143198 0.374217 0.176756
v 0.197658 0.396009 0.138621
v 0.143198 0.194479 0.138621
v 0.132296 0.270770 0.084226
f 97 92 104 
f 81 85 86 
f 85 81 89 
f 82 83 90 
f 86 85 90 
f 87 86 93 
f 92 87 93 
f 81 86 94 
f 86 87 94 
f 94 87 95 
f 84 81 95 
f 87 92 95 
f 92 84 95 
f 81 94 95 
f 90 83 96 
f 86 90 96 
f 83 93 96 
f 93 86 96 
f 83 82 97 
f 85 88 97 
f 88 92 97 
f 88 85 98 
f 84 92 98 
f 92 88 98 
f 85 89 99 
f 89 91 99 
f 98 85 99 
f 91 98 99 
f 90 85 100 
f 85 97 100 
f 91 89 101 
f 84 98 101 
f 98 91 101 
f 81 84 102 
f 89 81 102 
f 84 101 102 
f 101 89 102 
f 82 90 103 
f 97 82 103 
f 90 100 103 
f 100 97 103 
f 93 83 104 
f 92 93 104 
f 83 97 104 
o convex_6
v 0.181311 0.281627 0.220367
v 0.132296 0.118222 0.214916
v 0.148637 0.243495 0.209464
v 0.159532 0.265264 0.258486
v 0.192207 0.118222 0.253030
v 0.132296 0.118222 0.258486
v 0.192207 0.123676 0.220367
v 0.132296 0.281627 0.214916
v 0.197658 0.270702 0.209464
v 0.186756 0.259826 0.258486
v 0.181311 0.118222 0.214916
f 113 111 115 
f 106 109 110 
f 107 106 112 
f 108 105 112 
f 106 110 112 
f 110 108 112 
f 109 111 113 
f 112 105 113 
f 107 112 113 
f 105 108 114 
f 110 109 114 
f 108 110 114 
f 113 105 114 
f 109 113 114 
f 106 107 115 
f 109 106 115 
f 111 109 115 
f 107 113 115 
o convex_7
v 0.257573 -0.023395 0.400099
v -0.237989 -0.023395 0.356537
v -0.248915 -0.023395 0.361988
v 0.230309 0.058307 0.356537
v -0.232577 0.058307 0.443669
v -0.232577 0.058307 0.356537
v 0.230309 -0.023395 0.443669
v 0.230309 0.058307 0.443669
v -0.232577 -0.023395 0.443669
v 0.235772 -0.023395 0.356537
v -0.254428 -0.017941 0.405541
f 124 120 126 
f 118 117 116 
f 117 118 121 
f 119 117 121 
f 120 119 121 
f 118 116 122 
f 120 122 123 
f 116 119 123 
f 119 120 123 
f 122 116 123 
f 118 122 124 
f 122 120 124 
f 116 117 125 
f 117 119 125 
f 119 116 125 
f 121 118 126 
f 120 121 126 
f 118 124 126 
o convex_8
v 0.322935 -0.399127 0.672444
v 0.355616 0.139911 0.726912
v 0.350165 0.139911 0.726912
v 0.322935 0.139911 0.672444
v 0.355616 -0.399127 0.677893
v 0.322935 -0.404565 0.716009
v 0.355616 -0.393689 0.726912
v 0.350165 0.139911 0.672444
v 0.322935 0.145349 0.716009
v 0.355616 0.145349 0.677893
v 0.350165 -0.393689 0.672444
f 134 131 137 
f 130 127 132 
f 127 131 132 
f 128 129 133 
f 131 128 133 
f 132 131 133 
f 129 132 133 
f 127 130 134 
f 129 128 135 
f 132 129 135 
f 130 132 135 
f 128 131 136 
f 134 130 136 
f 131 134 136 
f 135 128 136 
f 130 135 136 
f 131 127 137 
f 127 134 137 
o convex_9
v 0.208552 -0.470104 0.171337
v 0.132296 -0.824077 0.111422
v 0.192205 -0.824077 0.111422
v 0.203103 -0.470104 0.111422
v 0.132296 -0.551736 0.165888
v 0.203103 -0.824008 0.165888
v 0.132296 -0.824077 0.165888
v 0.132296 -0.551736 0.111422
v 0.208552 -0.579040 0.111422
v 0.203103 -0.824008 0.111422
v 0.208552 -0.595360 0.171337
f 147 146 148 
f 140 139 141 
f 138 141 142 
f 139 140 144 
f 138 142 144 
f 142 139 144 
f 140 143 144 
f 141 139 145 
f 142 141 145 
f 139 142 145 
f 140 141 146 
f 141 138 146 
f 143 140 147 
f 140 146 147 
f 138 144 148 
f 144 143 148 
f 146 138 148 
f 143 147 148 
o convex_10
v -0.297997 -0.491813 0.002496
v -0.238087 -0.284842 0.122315
v -0.238087 -0.284842 0.111402
v -0.238087 -0.589864 0.122315
v -0.297997 -0.284842 0.122315
v -0.238087 -0.404719 -0.002961
v -0.297997 -0.589864 0.122315
v -0.297997 -0.350230 0.018830
v -0.238087 -0.540809 0.029731
v -0.297997 -0.573502 0.067844
v -0.238087 -0.306668 0.062387
v -0.297997 -0.404719 -0.002961
v -0.238087 -0.469987 -0.002961
v -0.297997 -0.306668 0.062387
v -0.238087 -0.350230 0.018830
v -0.238087 -0.584370 0.089623
v -0.297997 -0.540809 0.029731
f 157 158 165 
f 151 150 152 
f 150 151 153 
f 152 150 153 
f 151 152 154 
f 153 149 155 
f 152 153 155 
f 149 153 156 
f 154 152 157 
f 155 149 158 
f 151 154 159 
f 149 156 160 
f 156 154 160 
f 154 157 161 
f 157 149 161 
f 149 160 161 
f 160 154 161 
f 153 151 162 
f 156 153 162 
f 151 159 162 
f 159 156 162 
f 154 156 163 
f 159 154 163 
f 156 159 163 
f 152 155 164 
f 157 152 164 
f 155 158 164 
f 158 157 164 
f 149 157 165 
f 158 149 165 
o convex_11
v -0.276206 -0.235823 0.149549
v -0.205407 -0.279393 0.285719
v -0.227195 -0.279393 0.291167
v -0.281662 -0.284842 0.214924
v -0.205407 -0.268501 0.160445
v -0.205407 -0.230374 0.176789
v -0.265308 -0.246716 0.236688
v -0.281662 -0.279393 0.269375
v -0.281662 -0.268501 0.160445
v -0.205407 -0.284842 0.214924
v -0.205407 -0.241277 0.225792
v -0.205407 -0.230374 0.149549
v -0.259874 -0.284842 0.291167
v -0.259874 -0.230374 0.176789
f 171 177 179 
f 167 170 171 
f 172 166 173 
f 166 170 174 
f 170 169 174 
f 169 173 174 
f 173 166 174 
f 169 170 175 
f 170 167 175 
f 168 167 176 
f 167 171 176 
f 172 168 176 
f 170 166 177 
f 171 170 177 
f 167 168 178 
f 168 172 178 
f 173 169 178 
f 172 173 178 
f 175 167 178 
f 169 175 178 
f 166 172 179 
f 176 171 179 
f 172 176 179 
f 177 166 179 
o convex_12
v -0.232641 0.145473 1.146309
v 0.230339 0.238050 1.162648
v 0.230339 0.238050 1.135426
v 0.230339 0.129116 1.108190
v -0.232595 0.227152 1.091851
v -0.232641 0.238050 1.162648
v 0.230339 0.172717 1.168104
v -0.232595 0.129116 1.091851
v 0.230339 0.227152 1.091851
v 0.230339 0.129116 1.091851
v -0.232641 0.172717 1.168104
v 0.230339 0.150943 1.157199
v -0.232641 0.238050 1.135426
v -0.232595 0.129116 1.108190
v 0.230339 0.194459 1.168104
v -0.232641 0.150943 1.157199
f 180 191 195 
f 182 181 183 
f 181 182 185 
f 183 181 186 
f 187 184 188 
f 182 183 188 
f 184 182 188 
f 188 183 189 
f 183 187 189 
f 187 188 189 
f 185 180 190 
f 186 190 191 
f 180 183 191 
f 183 186 191 
f 182 184 192 
f 185 182 192 
f 180 185 192 
f 187 180 192 
f 184 187 192 
f 183 180 193 
f 180 187 193 
f 187 183 193 
f 181 185 194 
f 186 181 194 
f 185 190 194 
f 190 186 194 
f 190 180 195 
f 191 190 195 
o convex_13
v -0.232635 0.101882 0.263889
v -0.232635 -0.132332 0.111476
v -0.205413 -0.132332 0.111476
v -0.216300 -0.121419 0.345635
v -0.205413 0.101882 0.106015
v -0.205408 0.090969 0.345635
v -0.232635 0.069189 0.078741
v -0.205408 -0.132332 0.329281
v -0.205413 -0.099639 0.078741
v -0.216300 0.090969 0.345635
v -0.232635 -0.028797 0.225773
v -0.232635 -0.099639 0.078741
v -0.232635 0.101882 0.106015
v -0.205413 0.069189 0.078741
v -0.205408 0.101882 0.329281
f 203 209 210 
f 197 196 202 
f 197 198 203 
f 199 197 203 
f 201 199 203 
f 198 197 204 
f 203 198 204 
f 196 199 205 
f 199 201 205 
f 196 197 206 
f 197 199 206 
f 199 196 206 
f 197 202 207 
f 204 197 207 
f 202 204 207 
f 196 200 208 
f 202 196 208 
f 200 202 208 
f 202 200 209 
f 203 204 209 
f 204 202 209 
f 200 196 210 
f 201 203 210 
f 196 205 210 
f 205 201 210 
f 209 200 210 
o convex_14
v -0.129146 0.101882 0.171337
v -0.129146 0.063755 0.078750
v -0.205373 0.047413 0.078760
v 0.132263 0.063755 0.089644
v -0.205373 0.101882 0.105984
v 0.132263 0.101882 0.105975
v -0.205373 0.096433 0.171337
v 0.132263 0.096427 0.127753
v 0.132263 0.090984 0.089644
v -0.129146 0.047413 0.084197
v -0.129146 0.096433 0.171337
v -0.205373 0.090984 0.089644
v 0.132263 0.069209 0.078750
f 212 222 223 
f 215 211 216 
f 211 215 217 
f 215 213 217 
f 214 216 218 
f 216 211 218 
f 216 214 219 
f 217 213 220 
f 217 220 221 
f 211 217 221 
f 218 211 221 
f 214 218 221 
f 220 214 221 
f 212 213 222 
f 213 215 222 
f 215 216 222 
f 216 219 222 
f 222 219 223 
f 213 212 223 
f 219 214 223 
f 220 213 223 
f 214 220 223 
o convex_15
v -0.129166 0.150897 0.242168
v -0.205407 0.085541 0.334717
v -0.129166 0.085541 0.334717
v -0.129166 0.096442 0.171337
v -0.194502 0.167243 0.247610
v -0.205407 0.096442 0.171337
v -0.150945 0.167243 0.214924
v -0.156393 0.167243 0.258477
v -0.205407 0.096442 0.340159
v -0.129166 0.091003 0.345618
v -0.183613 0.167243 0.214924
f 228 230 234 
f 226 225 227 
f 224 226 227 
f 227 225 229 
f 227 229 230 
f 224 227 230 
f 230 228 231 
f 224 230 231 
f 229 225 232 
f 228 229 232 
f 231 228 232 
f 231 232 233 
f 226 224 233 
f 225 226 233 
f 224 231 233 
f 232 225 233 
f 229 228 234 
f 230 229 234 
o convex_16
v 0.132296 -0.818631 0.154992
v -0.129151 -0.824077 0.111426
v -0.129151 -0.813185 0.111426
v 0.132296 -0.824077 0.111426
v -0.129151 -0.824077 0.154992
v 0.132296 -0.813185 0.111426
v 0.132296 -0.824077 0.154992
v -0.129151 -0.818631 0.154992
f 237 239 242 
f 236 237 238 
f 237 236 239 
f 236 238 239 
f 237 235 240 
f 238 237 240 
f 235 238 240 
f 238 235 241 
f 235 239 241 
f 239 238 241 
f 235 237 242 
f 239 235 242 
o convex_17
v 0.132296 0.063754 0.084187
v -0.129151 -0.557183 0.078741
v 0.132296 -0.557183 0.078741
v -0.129151 -0.557183 0.084187
v -0.129151 0.063754 0.078741
v -0.129151 0.063754 0.084187
v 0.132296 0.063754 0.078741
v 0.132296 -0.557183 0.084187
f 243 246 250 
f 244 245 246 
f 245 244 247 
f 244 246 247 
f 246 243 248 
f 243 247 248 
f 247 246 248 
f 243 245 249 
f 247 243 249 
f 245 247 249 
f 245 243 250 
f 246 245 250 
o convex_18
v 0.028807 0.118222 1.080952
v 0.039716 0.227158 1.091846
v 0.230339 0.221699 1.091846
v 0.230339 0.221699 1.064615
v 0.230339 0.123682 1.091846
v 0.028807 0.118222 1.064615
v 0.230339 0.118222 1.064615
v 0.028807 0.216261 1.064615
v 0.028807 0.123682 1.091846
f 258 251 259 
f 252 253 254 
f 253 252 255 
f 254 253 255 
f 255 251 257 
f 254 255 257 
f 251 256 257 
f 256 254 257 
f 252 254 258 
f 256 251 258 
f 254 256 258 
f 251 255 259 
f 255 252 259 
f 252 258 259 
o convex_19
v 0.230333 -0.257612 0.149549
v 0.279360 -0.279392 0.274819
v 0.279360 -0.284839 0.274819
v 0.132306 -0.257612 0.356508
v 0.203098 -0.317523 0.171390
v 0.181334 -0.317523 0.356508
v 0.186775 -0.224927 0.345608
v 0.186775 -0.224927 0.171350
v 0.279360 -0.241279 0.149549
v 0.132306 -0.317523 0.345608
v 0.230318 -0.317523 0.318358
v 0.279360 -0.284839 0.214929
v 0.273890 -0.235831 0.187700
v 0.268449 -0.230375 0.149549
v 0.279360 -0.268506 0.160450
v 0.181334 -0.257612 0.356508
v 0.279360 -0.257612 0.242139
f 268 272 276 
f 260 264 267 
f 263 266 267 
f 261 262 268 
f 264 265 269 
f 265 263 269 
f 267 264 269 
f 263 267 269 
f 262 261 270 
f 265 264 270 
f 268 262 271 
f 262 270 271 
f 270 264 271 
f 272 268 273 
f 260 267 273 
f 267 266 273 
f 268 260 273 
f 266 272 273 
f 264 260 274 
f 260 268 274 
f 268 271 274 
f 271 264 274 
f 263 265 275 
f 266 263 275 
f 261 266 275 
f 270 261 275 
f 265 270 275 
f 266 261 276 
f 261 268 276 
f 272 266 276 
o convex_20
v -0.287105 -0.393680 0.672444
v -0.248985 0.139920 0.726912
v -0.254433 0.150795 0.721463
v -0.287105 -0.399118 0.716009
v -0.248985 -0.393680 0.683347
v -0.287105 0.145358 0.672444
v -0.259878 0.145358 0.672444
v -0.248985 -0.393680 0.726912
v -0.287105 0.150795 0.716009
v -0.248985 0.139920 0.683347
v -0.259878 -0.393680 0.672444
v -0.259878 0.139920 0.726912
v -0.259878 -0.393680 0.726912
f 288 280 289 
f 277 280 282 
f 277 282 283 
f 280 281 284 
f 281 278 284 
f 282 280 285 
f 283 282 285 
f 279 283 285 
f 279 278 286 
f 278 281 286 
f 283 279 286 
f 281 283 286 
f 280 277 287 
f 281 280 287 
f 277 283 287 
f 283 281 287 
f 278 279 288 
f 284 278 288 
f 279 285 288 
f 285 280 288 
f 280 284 289 
f 284 288 289 
o convex_21
v 0.322935 0.031057 0.672441
v 0.284807 -0.137762 0.639763
v 0.284807 -0.137762 0.672441
v 0.322935 -0.137762 0.639763
v 0.284807 0.031057 0.639763
v 0.322935 -0.137762 0.672441
v 0.284807 0.031057 0.672441
v 0.322935 0.031057 0.639763
f 293 294 297 
f 292 291 293 
f 291 292 294 
f 293 291 294 
f 290 292 295 
f 292 293 295 
f 293 290 295 
f 292 290 296 
f 290 294 296 
f 294 292 296 
f 290 293 297 
f 294 290 297 
o convex_22
v 0.257574 0.139911 0.726912
v 0.252126 -0.399127 0.677893
v 0.263022 -0.399127 0.672444
v 0.322935 -0.404565 0.710571
v 0.322935 0.139911 0.672444
v 0.257574 0.139911 0.672444
v 0.252126 -0.393689 0.726912
v 0.322935 0.145349 0.710571
v 0.322935 -0.399127 0.672444
v 0.252126 0.145349 0.677893
v 0.252126 0.145349 0.721463
f 307 304 308 
f 299 300 301 
f 302 300 303 
f 300 299 303 
f 299 301 304 
f 301 298 304 
f 298 301 305 
f 301 302 305 
f 301 300 306 
f 302 301 306 
f 300 302 306 
f 302 303 307 
f 303 299 307 
f 299 304 307 
f 305 302 307 
f 305 307 308 
f 304 298 308 
f 298 305 308 
o convex_23
v 0.148647 -0.007055 0.737818
v 0.230339 0.145456 0.765025
v 0.230339 0.140007 0.786820
v 0.230308 -0.007055 0.710574
v 0.148647 0.140007 0.732362
v 0.148647 0.009292 0.786820
v 0.072397 -0.007055 0.710574
v 0.230308 0.123660 0.710574
v 0.230339 0.009292 0.786820
v 0.148647 0.145456 0.765025
v 0.072397 -0.007055 0.732362
f 314 318 319 
f 312 309 315 
f 312 315 316 
f 310 312 316 
f 313 310 316 
f 315 313 316 
f 310 311 317 
f 312 310 317 
f 309 312 317 
f 311 314 317 
f 314 309 317 
f 311 310 318 
f 310 313 318 
f 314 311 318 
f 313 315 318 
f 318 315 319 
f 309 314 319 
f 315 309 319 
o convex_24
v 0.056075 0.118204 0.688787
v 0.230322 0.129116 0.710570
v 0.230322 0.031073 0.710570
v 0.230322 0.129116 0.688787
v 0.056075 0.129116 0.710570
v 0.230322 0.031073 0.688787
f 320 323 325 
f 321 322 323 
f 323 320 324 
f 320 322 324 
f 322 321 324 
f 321 323 324 
f 322 320 325 
f 323 322 325 
o convex_25
v -0.227194 0.129116 1.015594
v -0.227194 0.210818 1.064615
v -0.189066 0.210818 1.048271
v -0.227194 0.129116 1.064615
v -0.232641 0.205356 1.015594
v -0.194513 0.150909 1.015594
v -0.194513 0.161809 1.064615
v -0.189066 0.205356 1.015594
f 331 330 333 
f 326 329 330 
f 327 328 330 
f 329 327 330 
f 329 326 331 
f 326 330 331 
f 328 327 332 
f 327 329 332 
f 331 328 332 
f 329 331 332 
f 330 328 333 
f 328 331 333 
o convex_26
v 0.230310 0.156348 0.808616
v -0.063733 0.145458 0.786829
v -0.063733 0.150902 0.786829
v -0.150901 0.156348 0.835843
v 0.230273 0.140014 0.835843
v 0.230310 0.140009 0.786829
v 0.230273 0.161795 0.835843
v -0.150901 0.161795 0.819507
v 0.230310 0.156348 0.797725
v -0.150901 0.150902 0.824948
f 337 341 343 
f 338 335 339 
f 335 336 339 
f 334 338 339 
f 338 334 340 
f 337 338 340 
f 336 335 341 
f 337 340 341 
f 341 340 342 
f 334 339 342 
f 339 336 342 
f 340 334 342 
f 336 341 342 
f 338 337 343 
f 335 338 343 
f 341 335 343 
o convex_27
v -0.129151 -0.813158 0.111421
v 0.132296 -0.551762 0.116868
v 0.132296 -0.551762 0.105976
v -0.129151 -0.551762 0.116868
v 0.132296 -0.813158 0.116868
v -0.129151 -0.551762 0.105976
v -0.129151 -0.813158 0.116868
v 0.132296 -0.813158 0.111421
f 346 348 351 
f 345 346 347 
f 346 345 348 
f 345 347 348 
f 346 344 349 
f 347 346 349 
f 344 347 349 
f 347 344 350 
f 344 348 350 
f 348 347 350 
f 344 346 351 
f 348 344 351 
o convex_28
v 0.230294 0.058261 0.356528
v -0.129116 -0.322920 0.345636
v -0.085553 -0.339249 0.345636
v 0.219421 0.069201 0.345636
v -0.129116 0.052791 0.356528
v 0.132296 -0.317451 0.356528
v 0.186731 -0.257607 0.345636
v -0.129116 -0.317451 0.356528
v -0.129116 0.052791 0.351082
v 0.230294 -0.252138 0.356528
v 0.132296 -0.322920 0.345636
v 0.230294 -0.252138 0.351082
v 0.066881 -0.344718 0.351082
f 362 357 364 
f 354 353 355 
f 352 355 356 
f 352 356 357 
f 354 355 358 
f 353 354 359 
f 356 353 359 
f 357 356 359 
f 355 353 360 
f 356 355 360 
f 353 356 360 
f 352 357 361 
f 354 358 362 
f 361 357 362 
f 355 352 363 
f 358 355 363 
f 352 361 363 
f 362 358 363 
f 361 362 363 
f 359 354 364 
f 357 359 364 
f 354 362 364 
o convex_29
v 0.132296 0.085538 0.351069
v -0.129151 0.096426 0.269379
v -0.129151 0.101882 0.269379
v -0.129151 0.074655 0.356529
v 0.132296 0.052860 0.351069
v 0.132296 0.096426 0.269379
v -0.129151 0.101882 0.329290
v -0.129151 0.052860 0.351069
v 0.132296 0.101882 0.329290
v 0.132296 0.101882 0.269379
v 0.132296 0.052860 0.356529
f 372 369 375 
f 367 366 368 
f 369 366 370 
f 366 367 370 
f 365 369 370 
f 367 368 371 
f 368 365 371 
f 368 366 372 
f 366 369 372 
f 365 370 373 
f 367 371 373 
f 371 365 373 
f 370 367 374 
f 373 370 374 
f 367 373 374 
f 365 368 375 
f 369 365 375 
f 368 372 375 
o convex_30
v 0.295701 -0.470011 -0.002961
v 0.295701 -0.284842 0.193124
v 0.295701 -0.284842 0.111415
v 0.230339 -0.410142 0.165888
v 0.295701 -0.589841 0.193124
v 0.235790 -0.491771 0.002490
v 0.235790 -0.306663 0.062413
v 0.235790 -0.589841 0.193124
v 0.235790 -0.284842 0.193124
v 0.295701 -0.573491 0.067864
v 0.295701 -0.372002 0.007941
v 0.235790 -0.584370 0.089649
v 0.235790 -0.404733 -0.002961
v 0.235790 -0.540821 0.029726
v 0.295701 -0.595311 0.138652
v 0.295701 -0.524501 0.018843
v 0.295701 -0.306663 0.062413
v 0.235790 -0.350243 0.018843
v 0.235790 -0.284842 0.111415
v 0.230339 -0.459101 0.127730
f 393 388 395 
f 378 377 376 
f 376 377 380 
f 380 377 383 
f 377 378 384 
f 383 377 384 
f 379 383 384 
f 376 380 385 
f 378 376 386 
f 376 381 388 
f 386 376 388 
f 385 387 389 
f 380 383 390 
f 385 380 390 
f 383 387 390 
f 387 385 390 
f 381 376 391 
f 376 385 391 
f 389 381 391 
f 385 389 391 
f 382 378 392 
f 378 386 392 
f 392 386 393 
f 379 382 393 
f 386 388 393 
f 382 392 393 
f 378 382 394 
f 382 379 394 
f 384 378 394 
f 379 384 394 
f 383 379 395 
f 387 383 395 
f 388 381 395 
f 381 389 395 
f 389 387 395 
f 379 393 395 
o convex_31
v -0.232641 -0.470038 0.607067
v -0.003854 -0.486375 0.454571
v -0.003854 -0.459141 0.454571
v 0.219445 -0.464590 0.607067
v 0.219445 -0.486369 0.579837
v 0.192186 -0.459141 0.454571
v -0.232641 -0.486369 0.558057
v -0.189007 -0.459141 0.509061
v -0.189007 -0.486375 0.465484
v 0.192186 -0.486375 0.454571
v -0.232641 -0.464590 0.607067
v -0.232641 -0.486369 0.579837
v 0.192186 -0.459141 0.514480
v 0.219445 -0.475477 0.601618
v -0.232641 -0.464590 0.558057
v 0.219445 -0.475477 0.541710
f 405 401 411 
f 397 398 401 
f 401 398 403 
f 398 397 404 
f 403 398 404 
f 400 404 405 
f 397 401 405 
f 404 397 405 
f 396 399 406 
f 402 396 406 
f 396 402 407 
f 402 404 407 
f 404 400 407 
f 399 401 408 
f 401 403 408 
f 406 399 408 
f 403 406 408 
f 399 396 409 
f 400 399 409 
f 396 407 409 
f 407 400 409 
f 404 402 410 
f 403 404 410 
f 402 406 410 
f 406 403 410 
f 399 400 411 
f 401 399 411 
f 400 405 411 
o convex_32
v 0.219446 -0.486375 0.579846
v 0.230338 -0.023395 0.607082
v 0.219446 -0.023395 0.607082
v 0.230338 -0.023395 0.541720
v 0.230338 -0.470014 0.607082
v 0.219446 -0.486375 0.541720
v 0.230338 -0.486375 0.541720
v 0.224892 -0.023395 0.541720
v 0.219446 -0.470014 0.607082
f 416 414 420 
f 414 413 415 
f 413 414 416 
f 415 413 416 
f 412 414 417 
f 416 412 418 
f 415 416 418 
f 412 417 418 
f 417 415 418 
f 414 415 419 
f 417 414 419 
f 415 417 419 
f 414 412 420 
f 412 416 420 
o convex_33
v 0.208554 0.069164 0.454584
v 0.230339 -0.023423 0.503593
v 0.230335 0.074648 0.487242
v 0.230339 -0.252103 0.427352
v 0.192211 -0.388332 0.460032
v 0.230339 -0.388332 0.503593
v 0.192211 -0.023423 0.427352
v 0.208554 0.074648 0.487242
v 0.230339 -0.023423 0.427352
v 0.192211 -0.252103 0.427352
v 0.230339 -0.388332 0.454584
v 0.192211 -0.023423 0.460032
v 0.224886 -0.388332 0.503593
v 0.230335 0.058287 0.443688
f 429 427 434 
f 424 422 426 
f 423 421 428 
f 422 423 428 
f 421 427 428 
f 423 422 429 
f 422 424 429 
f 424 427 429 
f 427 424 430 
f 425 427 430 
f 426 425 431 
f 424 426 431 
f 430 424 431 
f 425 430 431 
f 427 425 432 
f 425 428 432 
f 428 427 432 
f 426 422 433 
f 425 426 433 
f 428 425 433 
f 422 428 433 
f 421 423 434 
f 427 421 434 
f 423 429 434 
o convex_34
v -0.287115 0.036503 0.672441
v -0.319790 -0.132315 0.639763
v -0.319790 -0.132315 0.672441
v -0.287115 -0.132315 0.639763
v -0.319790 0.036503 0.639763
v -0.287115 0.036503 0.639763
v -0.319790 0.036503 0.672441
v -0.287115 -0.132315 0.672441
f 438 435 442 
f 437 436 438 
f 436 437 439 
f 438 436 439 
f 435 438 440 
f 439 435 440 
f 438 439 440 
f 437 435 441 
f 435 439 441 
f 439 437 441 
f 435 437 442 
f 437 438 442 
o convex_35
v -0.341568 0.150795 0.721463
v -0.357910 -0.399118 0.683347
v -0.357910 -0.399118 0.721463
v -0.287109 -0.399118 0.677893
v -0.352463 0.139920 0.672444
v -0.287109 0.150795 0.710571
v -0.287109 -0.399118 0.710571
v -0.287109 0.145358 0.672444
v -0.357910 0.139920 0.726912
v -0.352463 -0.393680 0.672444
v -0.352463 -0.393680 0.726912
v -0.287109 -0.393680 0.672444
v -0.357910 0.139920 0.677893
f 447 452 455 
f 445 444 446 
f 445 446 449 
f 446 448 449 
f 447 443 450 
f 443 448 450 
f 448 446 450 
f 444 445 451 
f 448 443 451 
f 446 444 452 
f 447 450 452 
f 445 449 453 
f 449 448 453 
f 451 445 453 
f 448 451 453 
f 450 446 454 
f 446 452 454 
f 452 450 454 
f 443 447 455 
f 444 451 455 
f 451 443 455 
f 452 444 455 
o convex_36
v -0.188998 0.134561 0.759587
v 0.219417 0.118222 0.661553
v 0.219417 0.123671 0.661553
v -0.232641 0.118222 0.667002
v -0.188998 0.145456 0.754137
v 0.230339 0.123671 0.732348
v 0.148583 0.145456 0.765037
v -0.232641 0.123671 0.732348
v -0.232641 0.123671 0.667002
v 0.230339 0.134561 0.710580
v 0.230339 0.118222 0.683341
v 0.148583 0.134561 0.759587
v 0.148583 0.145456 0.754137
f 462 465 468 
f 458 457 459 
f 460 456 462 
f 456 460 463 
f 461 456 463 
f 458 459 464 
f 460 458 464 
f 463 460 464 
f 459 463 464 
f 462 461 465 
f 457 458 466 
f 459 457 466 
f 463 459 466 
f 461 463 466 
f 458 465 466 
f 465 461 466 
f 456 461 467 
f 462 456 467 
f 461 462 467 
f 458 460 468 
f 460 462 468 
f 465 458 468 
o convex_37
v 0.148599 0.014740 0.786827
v -0.232603 -0.007055 0.732359
v -0.232603 -0.007055 0.737813
v -0.232603 0.041967 0.786827
v -0.227155 0.041967 0.732359
v 0.148599 -0.007055 0.732359
v -0.232603 0.003847 0.781373
v 0.148599 0.003847 0.732359
v 0.148599 0.003847 0.781373
v -0.232603 0.009289 0.786827
f 477 469 478 
f 470 471 472 
f 472 469 473 
f 470 472 473 
f 470 473 474 
f 471 470 474 
f 472 471 475 
f 473 469 476 
f 474 473 476 
f 469 474 476 
f 474 469 477 
f 471 474 477 
f 475 471 477 
f 475 477 478 
f 469 472 478 
f 472 475 478 
o convex_38
v -0.232641 0.031073 0.688787
v 0.056041 0.129116 0.710570
v 0.056041 0.129116 0.688787
v -0.232641 0.129116 0.710570
v -0.227187 0.031073 0.710570
v -0.232641 0.129116 0.688787
v 0.056041 0.118204 0.688787
f 480 483 485 
f 480 481 482 
f 482 479 483 
f 480 482 483 
f 481 479 484 
f 482 481 484 
f 479 482 484 
f 479 481 485 
f 481 480 485 
f 483 479 485 
o convex_39
v -0.199951 -0.431906 0.127761
v -0.205407 -0.595401 0.154986
v -0.199951 -0.824077 0.111430
v -0.129166 -0.824077 0.165886
v -0.129166 -0.551792 0.105987
v -0.129166 -0.551792 0.165886
v -0.199951 -0.824039 0.165879
v -0.129166 -0.824077 0.111430
v -0.205407 -0.453749 0.171329
v -0.205407 -0.431906 0.105987
v -0.205407 -0.578971 0.105987
v -0.194502 -0.595401 0.171329
f 494 492 497 
f 490 486 491 
f 489 490 491 
f 487 488 492 
f 488 489 492 
f 489 488 493 
f 490 489 493 
f 491 486 494 
f 487 492 494 
f 486 490 495 
f 487 494 495 
f 494 486 495 
f 488 487 496 
f 493 488 496 
f 490 493 496 
f 487 495 496 
f 495 490 496 
f 489 491 497 
f 492 489 497 
f 491 494 497 
o convex_40
v -0.205407 -0.426492 0.122315
v -0.297997 -0.350212 0.182226
v -0.297997 -0.350212 0.187677
v -0.297978 -0.595311 0.165873
v -0.297997 -0.284842 0.122315
v -0.205407 -0.426492 0.182226
v -0.238098 -0.589841 0.122315
v -0.238089 -0.284842 0.187677
v -0.238098 -0.589841 0.187677
v -0.297978 -0.589841 0.122315
v -0.238089 -0.284842 0.122315
v -0.297978 -0.589841 0.187677
v -0.297997 -0.284842 0.187677
v -0.205407 -0.464571 0.165873
v -0.205407 -0.410142 0.165873
f 508 505 512 
f 500 499 501 
f 499 500 502 
f 502 498 504 
f 503 505 506 
f 501 504 506 
f 505 500 506 
f 501 499 507 
f 499 502 507 
f 502 504 507 
f 504 501 507 
f 498 502 508 
f 502 505 508 
f 500 501 509 
f 506 500 509 
f 501 506 509 
f 502 500 510 
f 505 502 510 
f 500 505 510 
f 498 503 511 
f 504 498 511 
f 503 506 511 
f 506 504 511 
f 503 498 512 
f 505 503 512 
f 498 508 512 
o convex_41
v 0.072397 0.178134 0.928447
v 0.230308 0.189031 0.955673
v 0.230308 0.069201 0.955673
v 0.072397 0.189031 0.955673
v 0.230308 0.183576 0.928447
v 0.072397 0.069201 0.939341
v 0.230308 0.069201 0.928447
v 0.072397 0.069201 0.955673
f 516 518 520 
f 515 514 516 
f 513 516 517 
f 514 515 517 
f 516 514 517 
f 516 513 518 
f 513 517 519 
f 517 515 519 
f 515 518 519 
f 518 513 519 
f 515 516 520 
f 518 515 520 
o convex_42
v 0.208552 -0.546290 0.111415
v -0.205373 -0.568073 0.078741
v -0.205373 -0.573517 0.089639
v 0.208552 -0.573520 0.089642
v 0.208552 -0.546290 0.078747
v -0.205373 -0.551743 0.105974
v 0.197652 -0.578967 0.111415
v -0.205373 -0.551743 0.078741
v -0.205373 -0.573517 0.105974
v 0.208552 -0.568073 0.078747
f 522 525 530 
f 523 522 524 
f 521 524 525 
f 522 523 526 
f 521 525 526 
f 523 524 527 
f 524 521 527 
f 521 526 527 
f 525 522 528 
f 522 526 528 
f 526 525 528 
f 526 523 529 
f 523 527 529 
f 527 526 529 
f 524 522 530 
f 525 524 530 
o convex_43
v -0.183613 -0.116098 0.105975
v -0.205407 -0.551736 0.078741
v -0.129166 -0.551736 0.078741
v -0.205407 0.047413 0.078741
v -0.205407 -0.551736 0.105975
v -0.129166 0.047413 0.078741
v -0.129166 -0.551736 0.084190
v -0.205407 -0.116098 0.105975
v -0.129166 0.047413 0.084190
v -0.205407 0.047413 0.084190
f 539 534 540 
f 533 532 534 
f 532 533 535 
f 534 532 535 
f 533 534 536 
f 531 535 537 
f 535 533 537 
f 533 536 537 
f 535 531 538 
f 534 535 538 
f 536 534 539 
f 531 537 539 
f 537 536 539 
f 538 531 539 
f 538 539 540 
f 534 538 540 
o convex_44
v -0.129138 -0.355651 0.160443
v -0.047449 -0.339306 0.345581
v -0.047449 -0.350199 0.345581
v -0.178172 -0.328420 0.334724
v -0.118249 -0.322975 0.160443
v -0.091019 -0.317527 0.345581
v -0.178172 -0.322972 0.171354
v -0.112811 -0.355651 0.312921
v -0.047449 -0.355651 0.329251
v -0.129138 -0.317527 0.345581
v -0.118249 -0.355651 0.160443
f 545 549 551 
f 542 545 546 
f 543 542 546 
f 541 544 547 
f 545 541 547 
f 543 544 548 
f 544 541 548 
f 542 543 549 
f 545 542 549 
f 548 541 549 
f 543 548 549 
f 544 543 550 
f 546 545 550 
f 543 546 550 
f 547 544 550 
f 545 547 550 
f 541 545 551 
f 549 541 551 
o convex_45
v -0.232641 0.047427 0.873976
v -0.063806 0.183558 0.928437
v -0.063806 0.058342 0.928437
v -0.232641 0.183558 0.928437
v -0.232641 0.058342 0.928437
v -0.227187 0.161794 0.873976
v -0.063806 0.178107 0.906658
v -0.063806 0.058342 0.912101
v -0.194497 0.112774 0.873976
v -0.232641 0.183558 0.912101
v -0.189060 0.047427 0.901209
f 559 554 562 
f 554 553 555 
f 555 552 556 
f 554 555 556 
f 553 554 558 
f 558 554 559 
f 558 559 560 
f 552 557 560 
f 557 558 560 
f 559 552 560 
f 555 553 561 
f 552 555 561 
f 557 552 561 
f 558 557 561 
f 553 558 561 
f 556 552 562 
f 554 556 562 
f 552 559 562 
o convex_46
v -0.227147 0.036520 0.852191
v -0.227147 0.156350 0.873974
v -0.227147 0.156350 0.852191
v 0.072381 0.047417 0.873974
v -0.232641 0.036520 0.873974
v 0.072381 0.036520 0.857639
f 566 567 568 
f 565 564 566 
f 565 563 567 
f 564 565 567 
f 566 564 567 
f 563 565 568 
f 565 566 568 
f 567 563 568 
o convex_47
v 0.230339 0.199921 0.977450
v -0.232641 0.156354 0.852204
v -0.232641 0.156354 0.873993
v -0.232595 0.199921 0.977450
v -0.232595 0.161808 0.993806
v 0.230339 0.167250 0.863099
v 0.230339 0.178137 0.993806
v -0.232595 0.172687 0.868546
v 0.230294 0.167250 0.928439
v -0.232595 0.199921 0.993806
v 0.230339 0.172687 0.863099
v 0.230339 0.199921 0.993806
v 0.072357 0.161804 0.852204
v -0.232641 0.167245 0.852204
f 581 570 582 
f 574 569 575 
f 573 571 577 
f 574 575 577 
f 575 573 577 
f 569 572 578 
f 571 573 578 
f 573 575 578 
f 572 569 579 
f 569 574 579 
f 576 572 579 
f 575 569 580 
f 569 578 580 
f 578 575 580 
f 571 570 581 
f 577 571 581 
f 574 577 581 
f 579 574 581 
f 579 581 582 
f 570 571 582 
f 572 576 582 
f 571 578 582 
f 578 572 582 
f 576 579 582 
o convex_48
v 0.186743 -0.317524 0.351064
v 0.121377 -0.355647 0.160462
v 0.121377 -0.322977 0.160462
v -0.047449 -0.350199 0.345597
v 0.105036 -0.355647 0.323822
v 0.230329 -0.328418 0.280253
v 0.094132 -0.317528 0.345597
v 0.208523 -0.317524 0.171340
v -0.047449 -0.339305 0.340149
v -0.047449 -0.355647 0.329252
v 0.230329 -0.328418 0.323822
v 0.077845 -0.355647 0.340149
v 0.132280 -0.355647 0.160462
v 0.230329 -0.317524 0.323822
v 0.208523 -0.328418 0.171340
f 588 595 597 
f 586 583 589 
f 589 583 590 
f 585 589 590 
f 589 585 591 
f 586 589 591 
f 585 584 592 
f 584 587 592 
f 591 585 592 
f 586 591 592 
f 583 586 594 
f 586 592 594 
f 592 587 594 
f 593 583 594 
f 587 593 594 
f 584 585 595 
f 587 584 595 
f 585 590 595 
f 593 587 595 
f 588 593 595 
f 588 590 596 
f 590 583 596 
f 583 593 596 
f 593 588 596 
f 590 588 597 
f 595 590 597 
o convex_49
v 0.132306 0.074652 0.084214
v 0.230329 0.101878 0.269356
v 0.192198 0.118222 0.247603
v 0.132306 0.069201 0.356529
v 0.230329 0.074652 0.084214
v 0.132306 0.118222 0.214946
v 0.219420 0.069201 0.356529
v 0.230329 0.101878 0.105994
v 0.132306 0.101878 0.329257
v 0.219420 0.096423 0.340160
v 0.132306 0.101878 0.105994
v 0.230329 0.069201 0.171387
f 604 601 609 
f 598 601 603 
f 600 599 605 
f 602 598 605 
f 599 602 605 
f 603 600 605 
f 600 603 606 
f 603 601 606 
f 599 600 607 
f 604 599 607 
f 601 604 607 
f 600 606 607 
f 606 601 607 
f 598 603 608 
f 605 598 608 
f 603 605 608 
f 601 598 609 
f 598 602 609 
f 602 599 609 
f 599 604 609 
o convex_50
v 0.203108 -0.469960 0.111422
v 0.208554 -0.328449 0.193114
v 0.230339 -0.230436 0.171329
v 0.186769 -0.154150 0.111422
v 0.197661 -0.606205 0.193114
v 0.230339 -0.448189 0.122330
v 0.186769 -0.154150 0.171329
v 0.230339 -0.448233 0.182222
v 0.181318 -0.355663 0.160429
v 0.208549 -0.241322 0.111422
v 0.208554 -0.600718 0.171337
v 0.230339 -0.230436 0.149545
v 0.197661 -0.600718 0.171337
v 0.208554 -0.606205 0.193114
v 0.197661 -0.328449 0.193114
v 0.181318 -0.322962 0.171329
v 0.186769 -0.235879 0.111422
f 618 613 626 
f 611 612 616 
f 612 613 616 
f 612 611 617 
f 615 612 617 
f 610 613 619 
f 615 610 619 
f 610 615 620 
f 613 612 621 
f 612 615 621 
f 619 613 621 
f 615 619 621 
f 618 610 622 
f 614 618 622 
f 610 620 622 
f 620 614 622 
f 611 614 623 
f 617 611 623 
f 615 617 623 
f 614 620 623 
f 620 615 623 
f 614 611 624 
f 611 616 624 
f 616 613 625 
f 613 618 625 
f 618 614 625 
f 614 624 625 
f 624 616 625 
f 613 610 626 
f 610 618 626 
o convex_51
v 0.230345 -0.519081 0.345624
v 0.230345 -0.633439 0.204025
v 0.273906 -0.633439 0.204025
v 0.203109 -0.502728 0.193124
v 0.295701 -0.486375 0.253085
v 0.279347 -0.486375 0.345593
v 0.197658 -0.502728 0.323838
v 0.295701 -0.529950 0.193124
v 0.203109 -0.611644 0.247611
v 0.279347 -0.584408 0.291121
v 0.197658 -0.606188 0.193124
v 0.219443 -0.595291 0.291152
v 0.295701 -0.589864 0.193124
v 0.230345 -0.486375 0.351082
v 0.295701 -0.524523 0.285709
v 0.268455 -0.557200 0.323807
v 0.263013 -0.611644 0.269382
v 0.241238 -0.486375 0.247596
v 0.219443 -0.633439 0.225826
v 0.208560 -0.540862 0.329281
v 0.284799 -0.486375 0.236711
f 644 631 647 
f 629 628 637 
f 633 630 637 
f 630 634 637 
f 635 633 637 
f 634 631 639 
f 636 629 639 
f 629 637 639 
f 637 634 639 
f 632 631 640 
f 627 632 640 
f 630 633 640 
f 631 632 641 
f 632 636 641 
f 639 631 641 
f 636 639 641 
f 632 627 642 
f 636 632 642 
f 642 638 643 
f 629 636 643 
f 636 642 643 
f 630 640 644 
f 640 631 644 
f 628 629 645 
f 637 628 645 
f 635 637 645 
f 638 635 645 
f 643 638 645 
f 629 643 645 
f 633 635 646 
f 635 638 646 
f 627 640 646 
f 640 633 646 
f 642 627 646 
f 638 642 646 
f 634 630 647 
f 631 634 647 
f 630 644 647 
o convex_52
v -0.210862 -0.431892 0.378324
v -0.254421 -0.186820 0.367430
v -0.254421 -0.186820 0.405539
v -0.189072 -0.023395 0.421878
v -0.189072 -0.023395 0.356529
v -0.232632 -0.475481 0.421878
v -0.254421 -0.023395 0.405539
v -0.189072 -0.252138 0.421878
v -0.189072 -0.252138 0.356529
v -0.243527 -0.431892 0.378324
v -0.238083 -0.023395 0.356529
v -0.232632 -0.023395 0.421878
v -0.232632 -0.252138 0.356529
v -0.221750 -0.464551 0.372874
v -0.221750 -0.475481 0.421878
v -0.254421 -0.023395 0.367430
f 654 658 663 
f 649 650 654 
f 651 652 654 
f 650 653 654 
f 652 651 655 
f 651 653 655 
f 655 648 656 
f 652 655 656 
f 650 649 657 
f 653 650 657 
f 654 652 658 
f 652 656 658 
f 653 651 659 
f 651 654 659 
f 654 653 659 
f 657 649 660 
f 649 658 660 
f 658 656 660 
f 656 648 661 
f 653 657 661 
f 657 660 661 
f 660 656 661 
f 648 655 662 
f 655 653 662 
f 661 648 662 
f 653 661 662 
f 649 654 663 
f 658 649 663 
o convex_53
v -0.227194 -0.464587 0.558061
v -0.221749 -0.023395 0.607077
v -0.232641 -0.023395 0.607077
v -0.221749 -0.464587 0.607077
v -0.232641 -0.023395 0.558061
v -0.232641 -0.464587 0.607077
v -0.227194 -0.023395 0.558061
v -0.232641 -0.464587 0.558061
f 669 668 671 
f 665 666 667 
f 664 665 667 
f 666 665 668 
f 667 666 669 
f 664 667 669 
f 666 668 669 
f 665 664 670 
f 664 668 670 
f 668 665 670 
f 668 664 671 
f 664 669 671 
o convex_54
v 0.219445 -0.023395 0.607082
v -0.221747 -0.464587 0.601635
v -0.221747 -0.464587 0.607082
v 0.219445 -0.464587 0.601635
v -0.221747 -0.023395 0.601635
v 0.219445 -0.464587 0.607082
v -0.221747 -0.023395 0.607082
v 0.219445 -0.023395 0.601635
f 675 676 679 
f 674 673 675 
f 673 674 676 
f 675 673 676 
f 672 674 677 
f 674 675 677 
f 675 672 677 
f 674 672 678 
f 672 676 678 
f 676 674 678 
f 672 675 679 
f 676 672 679 
o convex_55
v -0.003839 -0.257608 0.454558
v 0.192192 -0.023395 0.460018
v 0.192192 -0.023395 0.356529
v -0.189048 -0.023395 0.356529
v 0.192192 -0.252152 0.356529
v -0.189048 -0.252152 0.356529
v -0.189048 -0.023395 0.449118
v 0.192192 -0.257608 0.460018
v -0.189048 -0.252152 0.449118
v -0.003839 -0.023395 0.460018
v -0.003839 -0.257608 0.460018
f 687 689 690 
f 681 682 683 
f 682 681 684 
f 683 682 684 
f 684 680 685 
f 683 684 685 
f 681 683 686 
f 683 685 686 
f 680 684 687 
f 684 681 687 
f 685 680 688 
f 686 685 688 
f 686 688 689 
f 681 686 689 
f 687 681 689 
f 680 687 690 
f 688 680 690 
f 689 688 690 
o convex_56
v 0.246677 -0.186820 0.361983
v 0.230337 -0.023395 0.427337
v 0.257573 -0.023395 0.400091
v 0.230337 -0.475481 0.427337
v 0.192211 -0.023395 0.356529
v 0.192211 -0.252138 0.427337
v 0.219447 -0.464551 0.372879
v 0.192211 -0.023395 0.427337
v 0.192211 -0.252138 0.356529
v 0.241220 -0.431892 0.372879
v 0.235781 -0.023395 0.356529
v 0.257573 -0.186820 0.400091
v 0.219447 -0.475481 0.427337
v 0.230337 -0.252138 0.356529
v 0.257573 -0.023395 0.378327
v 0.257573 -0.186820 0.378327
f 691 705 706 
f 693 692 694 
f 692 693 695 
f 694 692 696 
f 692 695 698 
f 696 692 698 
f 695 696 698 
f 696 695 699 
f 694 697 700 
f 695 693 701 
f 699 695 701 
f 693 694 702 
f 694 700 702 
f 694 696 703 
f 697 694 703 
f 696 699 703 
f 699 697 703 
f 697 699 704 
f 700 697 704 
f 691 700 704 
f 701 691 704 
f 699 701 704 
f 691 701 705 
f 701 693 705 
f 693 702 705 
f 705 702 706 
f 700 691 706 
f 702 700 706 
o convex_57
v -0.227147 0.069201 0.928447
v -0.227147 0.161797 0.993806
v -0.227147 0.161797 0.928447
v 0.072381 0.074648 0.939342
v -0.232611 0.085561 0.993806
v -0.031164 0.085561 0.993806
v 0.072381 0.069201 0.955676
v 0.072381 0.080095 0.955676
v -0.232641 0.069201 0.955676
v -0.232641 0.161797 0.928447
f 715 711 716 
f 707 709 710 
f 708 711 712 
f 707 710 713 
f 712 711 713 
f 712 713 714 
f 709 708 714 
f 710 709 714 
f 708 712 714 
f 713 710 714 
f 707 713 715 
f 713 711 715 
f 709 707 716 
f 708 709 716 
f 711 708 716 
f 707 715 716 
o convex_58
v -0.232641 -0.012497 0.688787
v 0.230339 0.031069 0.710570
v 0.230339 0.031069 0.688787
v -0.232641 0.031069 0.710570
v 0.230339 -0.012497 0.710570
v -0.232641 -0.012497 0.710570
v -0.232641 0.031069 0.688787
v 0.230339 -0.012497 0.688787
f 719 721 724 
f 718 719 720 
f 719 718 721 
f 718 720 721 
f 720 717 722 
f 717 721 722 
f 721 720 722 
f 719 717 723 
f 720 719 723 
f 717 720 723 
f 717 719 724 
f 721 717 724 
o convex_59
v -0.194526 0.058294 0.628842
v -0.232636 -0.023395 0.443682
v -0.232636 0.058285 0.443682
v -0.232641 0.063745 0.628842
v -0.183619 -0.023386 0.607056
v -0.232641 -0.017934 0.628842
v -0.189070 0.025626 0.509057
v -0.221748 0.074638 0.465468
v -0.189070 -0.023386 0.509057
v -0.221748 0.058285 0.443682
v -0.183619 -0.012483 0.628842
v -0.221748 -0.023395 0.443682
f 726 734 736 
f 727 726 728 
f 726 729 730 
f 728 726 730 
f 725 728 730 
f 727 728 732 
f 728 725 732 
f 725 731 732 
f 731 729 733 
f 731 733 734 
f 726 727 734 
f 727 732 734 
f 732 731 734 
f 730 729 735 
f 725 730 735 
f 731 725 735 
f 729 731 735 
f 729 726 736 
f 733 729 736 
f 734 733 736 
o convex_60
v -0.221747 -0.023395 0.443682
v 0.208552 0.074648 0.487248
v 0.208552 0.074648 0.465467
v -0.221747 0.074648 0.487248
v 0.208552 -0.023395 0.460025
v -0.221747 0.058294 0.443682
v 0.208552 0.058294 0.443682
v -0.221747 -0.023395 0.460025
v 0.208552 -0.023395 0.443682
v -0.221747 0.074648 0.465467
v 0.208552 0.069196 0.487248
v -0.221747 0.069196 0.487248
f 747 740 748 
f 738 739 740 
f 739 738 741 
f 737 740 742 
f 739 741 743 
f 742 739 743 
f 737 742 743 
f 740 737 744 
f 737 741 744 
f 741 737 745 
f 737 743 745 
f 743 741 745 
f 740 739 746 
f 739 742 746 
f 742 740 746 
f 738 740 747 
f 741 738 747 
f 744 741 747 
f 744 747 748 
f 740 744 748 
o convex_61
v -0.020256 0.112775 0.628842
v -0.232641 0.063754 0.487252
v -0.232641 0.080098 0.487252
v -0.232641 0.112775 0.628842
v -0.232641 0.063754 0.628842
v -0.020256 0.069210 0.487252
v -0.020256 0.080098 0.487252
v -0.020256 0.101878 0.623408
v -0.020256 0.112775 0.617961
v -0.232641 0.112775 0.617961
f 752 757 758 
f 751 750 752 
f 749 752 753 
f 752 750 753 
f 753 750 754 
f 750 751 754 
f 754 751 755 
f 749 754 755 
f 749 753 756 
f 753 754 756 
f 754 749 756 
f 752 749 757 
f 755 751 757 
f 749 755 757 
f 751 752 758 
f 757 751 758 
o convex_62
v -0.232641 -0.012502 0.683338
v 0.230339 0.123669 0.688784
v 0.230339 0.123669 0.683338
v -0.232641 0.123669 0.688784
v 0.230339 -0.012502 0.688784
v -0.232641 -0.012502 0.688784
v -0.232641 0.123669 0.683338
v 0.230339 -0.012502 0.683338
f 761 763 766 
f 760 761 762 
f 761 760 763 
f 760 762 763 
f 762 759 764 
f 759 763 764 
f 763 762 764 
f 761 759 765 
f 762 761 765 
f 759 762 765 
f 759 761 766 
f 763 759 766 
o convex_63
v -0.232641 -0.404672 0.454581
v -0.227194 -0.023395 0.498131
v -0.189066 -0.023395 0.460014
v -0.232641 -0.023395 0.421890
v -0.189066 -0.404672 0.454581
v -0.189066 -0.252139 0.421890
v -0.232641 -0.404672 0.498131
v -0.189066 -0.023395 0.421890
v -0.232641 -0.252139 0.421890
v -0.227194 -0.404672 0.498131
v -0.232641 -0.023395 0.498131
v -0.189066 -0.404672 0.460014
f 776 771 778 
f 768 769 770 
f 769 771 772 
f 771 767 772 
f 770 767 773 
f 767 771 773 
f 770 769 774 
f 769 772 774 
f 772 770 774 
f 767 770 775 
f 770 772 775 
f 772 767 775 
f 769 768 776 
f 768 773 776 
f 773 771 776 
f 768 770 777 
f 773 768 777 
f 770 773 777 
f 771 769 778 
f 769 776 778 
o convex_64
v -0.194513 0.074657 0.732359
v -0.227194 0.139996 0.786827
v -0.189066 0.145456 0.765031
v -0.232641 0.139996 0.732359
v -0.232641 0.041967 0.786827
v -0.232641 0.041967 0.732359
v -0.194513 0.090997 0.786827
v -0.189066 0.139996 0.732359
f 779 782 786 
f 780 781 782 
f 780 782 783 
f 782 779 784 
f 779 783 784 
f 783 782 784 
f 779 781 785 
f 781 780 785 
f 783 779 785 
f 780 783 785 
f 781 779 786 
f 782 781 786 
o convex_65
v -0.227170 0.014746 0.786829
v -0.150934 0.161797 0.835843
v -0.150934 0.161797 0.819507
v -0.063806 0.014746 0.808616
v -0.063806 0.150886 0.786829
v -0.232624 0.020187 0.835843
v -0.232641 0.150886 0.786829
v -0.232624 0.161797 0.835843
v -0.150934 0.025643 0.835843
v -0.063806 0.156327 0.808616
v -0.063806 0.014746 0.797725
f 791 790 797 
f 787 790 792 
f 791 787 793 
f 789 791 793 
f 787 792 793 
f 793 792 794 
f 788 789 794 
f 792 788 794 
f 789 793 794 
f 790 788 795 
f 788 792 795 
f 792 790 795 
f 789 788 796 
f 788 790 796 
f 790 791 796 
f 791 789 796 
f 790 787 797 
f 787 791 797 
o convex_66
v 0.230339 0.216265 1.064615
v -0.188998 0.199924 1.015594
v -0.232641 0.210817 1.042825
v 0.148583 0.210817 1.021045
v 0.148583 0.199924 1.026496
v -0.232641 0.210817 1.064615
v -0.232641 0.216265 1.042825
v 0.230339 0.210817 1.064615
v 0.230339 0.216265 1.042825
v -0.188998 0.210817 1.021045
f 804 801 807 
f 799 801 802 
f 799 802 803 
f 800 799 803 
f 800 803 804 
f 799 800 804 
f 803 798 804 
f 803 802 805 
f 798 803 805 
f 802 801 806 
f 801 804 806 
f 804 798 806 
f 798 805 806 
f 805 802 806 
f 801 799 807 
f 799 804 807 
o convex_67
v -0.232621 0.009286 0.628869
v -0.031148 0.118222 0.672435
v -0.031148 0.118222 0.639772
v -0.232621 0.118222 0.639772
v -0.227157 0.009286 0.683332
v -0.232621 0.118222 0.683332
v -0.031148 0.107314 0.628869
v -0.232621 0.112763 0.628869
f 814 808 815 
f 809 810 811 
f 812 809 813 
f 809 811 813 
f 811 808 813 
f 808 812 813 
f 810 809 814 
f 812 808 814 
f 809 812 814 
f 811 810 815 
f 808 811 815 
f 810 814 815 
o convex_68
v -0.238087 -0.633425 0.225833
v -0.238087 -0.393792 0.356496
v -0.238087 -0.372056 0.351042
v -0.297997 -0.290302 0.209506
v -0.238087 -0.284842 0.187710
v -0.297997 -0.589818 0.187710
v -0.281647 -0.491788 0.340152
v -0.276205 -0.312105 0.312919
v -0.297997 -0.410102 0.307483
v -0.238087 -0.589818 0.187710
v -0.259885 -0.573474 0.312936
v -0.238087 -0.284842 0.296576
v -0.297997 -0.284842 0.187710
v -0.238087 -0.519051 0.345606
v -0.281647 -0.600737 0.263956
v -0.270757 -0.410102 0.356496
v -0.297997 -0.524510 0.285686
v -0.270757 -0.633425 0.204053
v -0.281647 -0.284842 0.274796
v -0.265333 -0.480903 0.356496
v -0.276205 -0.557198 0.318372
v -0.238087 -0.595278 0.291139
v -0.297997 -0.344793 0.280249
v -0.265333 -0.611622 0.269393
v -0.276205 -0.361138 0.340152
f 838 824 840 
f 818 817 816 
f 818 816 820 
f 819 821 824 
f 820 816 825 
f 821 820 825 
f 818 820 827 
f 823 818 827 
f 821 819 828 
f 820 821 828 
f 827 820 828 
f 816 817 829 
f 817 818 831 
f 824 822 831 
f 822 824 832 
f 824 821 832 
f 821 830 832 
f 825 816 833 
f 821 825 833 
f 830 821 833 
f 823 827 834 
f 828 819 834 
f 827 828 834 
f 829 817 835 
f 817 831 835 
f 831 822 835 
f 826 829 836 
f 822 832 836 
f 832 830 836 
f 835 822 836 
f 829 835 836 
f 816 829 837 
f 829 826 837 
f 819 824 838 
f 823 834 838 
f 834 819 838 
f 833 816 839 
f 830 833 839 
f 826 836 839 
f 836 830 839 
f 816 837 839 
f 837 826 839 
f 818 823 840 
f 831 818 840 
f 824 831 840 
f 823 838 840 
o convex_69
v -0.221749 -0.540864 0.334722
v -0.238087 -0.633425 0.204034
v -0.238087 -0.622523 0.198601
v -0.205413 -0.622523 0.198601
v -0.238087 -0.497282 0.307494
v -0.205413 -0.497282 0.307494
v -0.205413 -0.589843 0.285701
v -0.238087 -0.595294 0.291149
v -0.205413 -0.600746 0.198601
v -0.238087 -0.497282 0.351082
v -0.205413 -0.508184 0.340170
v -0.216304 -0.627974 0.236725
v -0.238087 -0.600746 0.198601
f 845 849 853 
f 842 843 844 
f 843 842 845 
f 844 846 847 
f 845 842 848 
f 847 841 848 
f 844 843 849 
f 846 844 849 
f 845 846 849 
f 846 845 850 
f 848 841 850 
f 845 848 850 
f 841 847 851 
f 847 846 851 
f 850 841 851 
f 846 850 851 
f 842 844 852 
f 844 847 852 
f 848 842 852 
f 847 848 852 
f 843 845 853 
f 849 843 853 
o convex_70
v -0.227147 0.031073 0.835849
v 0.072381 0.167243 0.852187
v 0.072381 0.167243 0.841298
v -0.232641 0.167243 0.852187
v 0.072381 0.031073 0.852187
v -0.232641 0.031073 0.852187
v -0.232641 0.161792 0.835849
v 0.072381 0.156340 0.835849
v 0.072381 0.031073 0.841298
f 861 858 862 
f 855 856 857 
f 856 855 858 
f 855 857 858 
f 854 858 859 
f 858 857 859 
f 857 856 860 
f 854 859 860 
f 859 857 860 
f 856 858 861 
f 854 860 861 
f 860 856 861 
f 858 854 862 
f 854 861 862 
o convex_71
v -0.238087 -0.284842 0.231264
v -0.221749 -0.393759 0.356516
v -0.238087 -0.393759 0.356516
v -0.238087 -0.497268 0.312939
v -0.205413 -0.290290 0.231264
v -0.205413 -0.497268 0.340172
v -0.205413 -0.295738 0.307494
v -0.238087 -0.284842 0.296606
v -0.205413 -0.497268 0.312939
v -0.238087 -0.480925 0.356516
v -0.205413 -0.410081 0.351060
f 864 872 873 
f 865 863 866 
f 866 863 867 
f 865 864 869 
f 868 867 869 
f 863 865 870 
f 867 863 870 
f 865 869 870 
f 869 867 870 
f 866 867 871 
f 867 868 871 
f 868 866 871 
f 864 865 872 
f 865 866 872 
f 866 868 872 
f 872 868 873 
f 869 864 873 
f 868 869 873 
o convex_72
v 0.213998 -0.105097 0.171337
v 0.219446 0.069201 0.345618
v 0.230339 0.069201 0.263919
v 0.219446 -0.105097 0.345618
v 0.230339 -0.094195 0.171337
v 0.219446 0.063741 0.171337
v 0.213998 0.069201 0.345618
v 0.230339 0.069201 0.171337
v 0.213998 -0.105097 0.345618
v 0.213998 0.069201 0.258477
f 880 881 883 
f 876 875 877 
f 877 874 878 
f 876 877 878 
f 878 874 879 
f 875 876 880 
f 877 875 880 
f 876 878 881 
f 878 879 881 
f 880 876 881 
f 874 877 882 
f 880 874 882 
f 877 880 882 
f 879 874 883 
f 874 880 883 
f 881 879 883 
o convex_73
v -0.199954 -0.431906 0.133231
v -0.183623 -0.121438 0.334725
v -0.183623 -0.121438 0.323799
v -0.205404 -0.121438 0.334725
v -0.205402 -0.121468 0.106004
v -0.183626 -0.121468 0.106004
v -0.178175 -0.328366 0.334725
v -0.205402 -0.328366 0.323799
v -0.178175 -0.355596 0.160436
v -0.205402 -0.431906 0.106004
v -0.183626 -0.235858 0.106004
v -0.205402 -0.426406 0.171340
v -0.199954 -0.431906 0.106004
f 893 894 896 
f 885 886 887 
f 887 886 888 
f 888 886 889 
f 886 885 890 
f 885 887 890 
f 889 886 890 
f 890 887 891 
f 890 884 892 
f 889 890 892 
f 887 888 893 
f 888 889 893 
f 889 892 894 
f 893 889 894 
f 884 890 895 
f 891 887 895 
f 890 891 895 
f 887 893 895 
f 893 884 895 
f 892 884 896 
f 884 893 896 
f 894 892 896 
o convex_74
v -0.178172 -0.355651 0.160444
v 0.181318 -0.322970 0.171336
v 0.181318 -0.328424 0.171336
v 0.181318 -0.355651 0.160444
v 0.181318 -0.322970 0.160444
v -0.178172 -0.322970 0.171336
v -0.178172 -0.322970 0.160444
v -0.178172 -0.355651 0.165890
f 899 902 904 
f 898 899 900 
f 900 897 901 
f 898 900 901 
f 898 901 902 
f 899 898 902 
f 901 897 903 
f 902 901 903 
f 897 902 903 
f 900 899 904 
f 897 900 904 
f 902 897 904 
o convex_75
v -0.194513 -0.573492 0.280252
v -0.199959 -0.382932 0.334725
v -0.199959 -0.366576 0.329272
v -0.205404 -0.600715 0.171353
v -0.194513 -0.333864 0.171353
v -0.205404 -0.333864 0.171353
v -0.205404 -0.491795 0.334725
v -0.194513 -0.600715 0.171353
v -0.194513 -0.333864 0.307489
v -0.205404 -0.333864 0.312926
v -0.205404 -0.606176 0.242156
v -0.194513 -0.470061 0.334725
f 905 913 916 
f 909 908 910 
f 910 908 911 
f 909 905 912 
f 908 909 912 
f 907 906 913 
f 905 909 913 
f 909 910 913 
f 913 910 914 
f 906 907 914 
f 910 911 914 
f 911 906 914 
f 907 913 914 
f 911 908 915 
f 905 911 915 
f 912 905 915 
f 908 912 915 
f 906 911 916 
f 911 905 916 
f 913 906 916 
o convex_76
v 0.077785 0.107327 0.214911
v -0.129151 0.096436 0.127771
v -0.129151 0.096436 0.214911
v 0.132296 0.096436 0.127771
v -0.069215 0.107327 0.127771
v 0.132296 0.096436 0.214911
v -0.080117 0.107327 0.214911
v 0.066909 0.107327 0.127771
f 920 921 924 
f 919 918 920 
f 920 918 921 
f 917 919 922 
f 919 920 922 
f 920 917 922 
f 919 917 923 
f 918 919 923 
f 917 921 923 
f 921 918 923 
f 917 920 924 
f 921 917 924 
o convex_77
v -0.129151 0.101897 0.269379
v 0.050607 0.172675 0.225815
v 0.132296 0.150893 0.242145
v 0.132296 0.096450 0.214911
v -0.129151 0.096450 0.214911
v 0.132296 0.096450 0.269379
v -0.047436 0.156333 0.269379
v -0.052887 0.172675 0.214911
v -0.129151 0.150893 0.242145
v 0.050607 0.156333 0.269379
v 0.132296 0.139999 0.214911
v -0.129151 0.139999 0.214911
v -0.129151 0.096450 0.269379
f 929 930 937 
f 928 927 930 
f 929 928 930 
f 925 930 931 
f 928 929 932 
f 931 926 932 
f 931 932 933 
f 929 925 933 
f 925 931 933 
f 927 926 934 
f 930 927 934 
f 926 931 934 
f 931 930 934 
f 926 927 935 
f 927 928 935 
f 932 926 935 
f 928 932 935 
f 932 929 936 
f 933 932 936 
f 929 933 936 
f 925 929 937 
f 930 925 937 
o convex_78
v -0.227194 -0.404672 0.498158
v -0.227194 -0.023395 0.558061
v -0.232641 -0.023395 0.558061
v -0.227194 -0.404672 0.558061
v -0.189066 -0.023395 0.509047
v -0.189066 -0.404672 0.519937
v -0.232641 -0.023395 0.498158
v -0.232641 -0.404672 0.558061
v -0.189066 -0.023395 0.519937
v -0.189066 -0.404672 0.509047
v -0.232641 -0.404672 0.498158
f 945 944 948 
f 939 940 941 
f 940 939 942 
f 939 941 943 
f 941 938 943 
f 942 938 944 
f 940 942 944 
f 941 940 945 
f 938 941 945 
f 940 944 945 
f 942 939 946 
f 939 943 946 
f 943 942 946 
f 938 942 947 
f 942 943 947 
f 943 938 947 
f 944 938 948 
f 938 945 948 
o convex_79
v 0.219445 -0.105097 0.345618
v 0.186770 -0.224927 0.171337
v 0.192215 -0.224927 0.171337
v 0.213993 -0.105097 0.171337
v 0.181318 -0.110552 0.345618
v 0.186770 -0.224927 0.345618
v 0.186770 -0.126903 0.171337
v 0.219445 -0.132334 0.171337
v 0.219445 -0.132334 0.329275
v 0.181318 -0.224927 0.334717
v 0.192215 -0.224927 0.340159
f 951 957 959 
f 951 950 952 
f 949 952 953 
f 950 951 954 
f 949 953 954 
f 952 950 955 
f 953 952 955 
f 951 952 956 
f 952 949 956 
f 951 956 957 
f 956 949 957 
f 950 954 958 
f 954 953 958 
f 955 950 958 
f 953 955 958 
f 949 954 959 
f 954 951 959 
f 957 949 959 
o convex_80
v 0.192205 -0.154119 0.111419
v 0.132296 -0.546290 0.078744
v 0.208552 -0.546290 0.078744
v 0.132296 -0.154119 0.078744
v 0.208552 -0.546290 0.111419
v 0.208552 -0.241298 0.078744
v 0.132296 -0.546290 0.084191
v 0.192205 -0.154119 0.078744
v 0.208552 -0.241298 0.111419
v 0.186763 -0.235885 0.111419
v 0.132296 -0.154119 0.084191
f 969 960 970 
f 962 961 963 
f 961 962 964 
f 962 963 965 
f 964 962 965 
f 963 961 966 
f 961 964 966 
f 963 960 967 
f 965 963 967 
f 960 965 967 
f 960 964 968 
f 965 960 968 
f 964 965 968 
f 964 960 969 
f 966 964 969 
f 966 969 970 
f 960 963 970 
f 963 966 970 
o convex_81
v 0.224879 0.074648 0.095081
v 0.132306 -0.154119 0.078741
v 0.192208 -0.154119 0.078741
v 0.192208 -0.154119 0.095081
v 0.132306 0.074648 0.084189
v 0.230329 0.069184 0.078741
v 0.230329 -0.115961 0.095081
v 0.132306 0.074648 0.089633
v 0.132306 0.069184 0.078741
v 0.230329 -0.099637 0.078741
v 0.132306 -0.154119 0.084189
f 974 978 981 
f 972 973 974 
f 973 972 976 
f 975 971 976 
f 976 971 977 
f 974 973 977 
f 971 974 977 
f 974 971 978 
f 971 975 978 
f 975 972 978 
f 972 975 979 
f 976 972 979 
f 975 976 979 
f 973 976 980 
f 976 977 980 
f 977 973 980 
f 972 974 981 
f 978 972 981 
o convex_82
v 0.186769 -0.154119 0.171329
v 0.230335 0.074648 0.171329
v 0.230335 0.074648 0.095081
v 0.230335 -0.132330 0.133205
v 0.186769 -0.110542 0.095081
v 0.230335 -0.121425 0.095081
v 0.230335 -0.099637 0.171329
v 0.219439 0.063742 0.171329
v 0.186769 -0.154119 0.095081
v 0.224889 0.074648 0.095081
v 0.186769 -0.126844 0.171329
f 989 986 992 
f 984 983 985 
f 986 984 987 
f 984 985 987 
f 983 982 988 
f 985 983 988 
f 982 985 988 
f 982 983 989 
f 985 982 990 
f 982 986 990 
f 986 987 990 
f 987 985 990 
f 983 984 991 
f 984 986 991 
f 989 983 991 
f 986 989 991 
f 986 982 992 
f 982 989 992 
o convex_83
v -0.063760 0.058307 0.912105
v 0.230310 0.167243 0.928442
v 0.230310 0.167243 0.906659
v 0.230310 0.058307 0.928442
v 0.230310 0.058307 0.906659
v -0.063760 0.069216 0.928442
f 993 996 998 
f 995 994 996 
f 996 993 997 
f 993 995 997 
f 995 996 997 
f 995 993 998 
f 994 995 998 
f 996 994 998 
o convex_84
v 0.197658 -0.355676 0.193140
v 0.230339 -0.393800 0.356513
v 0.224888 -0.393800 0.356513
v 0.203109 -0.502698 0.193140
v 0.197658 -0.497240 0.329276
v 0.230339 -0.502698 0.307493
v 0.230339 -0.328434 0.280256
v 0.197658 -0.328434 0.302039
v 0.208557 -0.328434 0.193140
v 0.208557 -0.502698 0.193140
v 0.230339 -0.502698 0.351059
v 0.203109 -0.399242 0.345605
v 0.230339 -0.333893 0.334714
v 0.213998 -0.470015 0.356513
f 1010 1003 1012 
f 999 1002 1003 
f 1000 1004 1005 
f 999 1003 1006 
f 1002 999 1007 
f 1006 1005 1007 
f 999 1006 1007 
f 1004 1002 1008 
f 1005 1004 1008 
f 1002 1007 1008 
f 1007 1005 1008 
f 1003 1002 1009 
f 1004 1000 1009 
f 1002 1004 1009 
f 1006 1003 1010 
f 1001 1000 1011 
f 1000 1005 1011 
f 1005 1006 1011 
f 1010 1001 1011 
f 1006 1010 1011 
f 1000 1001 1012 
f 1009 1000 1012 
f 1003 1009 1012 
f 1001 1010 1012 
o convex_85
v 0.148599 0.123662 1.064610
v -0.232566 0.096435 1.015594
v -0.232566 0.096435 1.026499
v -0.232641 0.140005 1.064610
v -0.232641 0.123666 1.091846
v -0.227155 0.129113 1.015594
v 0.148599 0.096435 1.015594
v 0.028771 0.123666 1.091846
v 0.028771 0.134559 1.091846
v 0.148599 0.107332 1.053720
v 0.148599 0.107332 1.021050
v -0.232641 0.140005 1.091846
v 0.148599 0.123662 1.059154
f 1023 1018 1025 
f 1014 1015 1017 
f 1016 1014 1017 
f 1014 1016 1018 
f 1015 1014 1019 
f 1014 1018 1019 
f 1020 1013 1021 
f 1017 1020 1021 
f 1017 1015 1022 
f 1015 1019 1022 
f 1019 1013 1022 
f 1013 1020 1022 
f 1020 1017 1022 
f 1013 1019 1023 
f 1019 1018 1023 
f 1016 1017 1024 
f 1021 1016 1024 
f 1017 1021 1024 
f 1018 1016 1025 
f 1021 1013 1025 
f 1016 1021 1025 
f 1013 1023 1025 
o convex_86
v -0.232641 -0.007055 0.710574
v -0.227147 0.123669 0.732357
v 0.072381 -0.001604 0.732357
v -0.227147 0.123669 0.710574
v 0.072381 -0.007055 0.710574
v -0.232641 -0.007055 0.732357
f 1026 1030 1031 
f 1027 1028 1029 
f 1026 1027 1029 
f 1026 1029 1030 
f 1029 1028 1030 
f 1030 1028 1031 
f 1027 1026 1031 
f 1028 1027 1031 
o convex_87
v -0.031108 0.080094 0.966575
v 0.230339 0.178137 0.993806
v 0.230339 0.178137 0.955682
v 0.230339 0.080094 0.955682
v 0.230339 0.085545 0.993806
v -0.031108 0.091006 0.993806
v -0.031108 0.080094 0.982909
f 1037 1032 1038 
f 1034 1033 1035 
f 1032 1034 1035 
f 1035 1033 1036 
f 1036 1033 1037 
f 1034 1032 1037 
f 1033 1034 1037 
f 1032 1035 1038 
f 1035 1036 1038 
f 1036 1037 1038 
o convex_88
v 0.295701 -0.290327 0.193146
v 0.263020 -0.393776 0.356513
v 0.263020 -0.371997 0.351059
v 0.241235 -0.470021 0.193146
v 0.230339 -0.284842 0.231273
v 0.295701 -0.486375 0.302041
v 0.230339 -0.480910 0.356513
v 0.295701 -0.459132 0.193146
v 0.230339 -0.284842 0.296588
v 0.279354 -0.317570 0.312948
v 0.235790 -0.290327 0.193146
v 0.279354 -0.464556 0.351059
v 0.295701 -0.372017 0.296588
v 0.230339 -0.371997 0.351059
v 0.230339 -0.486375 0.312948
v 0.279347 -0.284842 0.280243
v 0.273909 -0.486375 0.236711
v 0.279354 -0.366592 0.340184
v 0.273903 -0.486375 0.351059
v 0.263020 -0.317570 0.323839
f 1056 1048 1058 
f 1042 1039 1046 
f 1039 1044 1046 
f 1043 1045 1047 
f 1039 1042 1049 
f 1043 1039 1049 
f 1042 1043 1049 
f 1044 1039 1051 
f 1050 1044 1051 
f 1040 1041 1052 
f 1045 1040 1052 
f 1047 1045 1052 
f 1043 1042 1053 
f 1045 1043 1053 
f 1039 1043 1054 
f 1043 1047 1054 
f 1048 1051 1054 
f 1051 1039 1054 
f 1042 1046 1055 
f 1046 1044 1055 
f 1053 1042 1055 
f 1044 1053 1055 
f 1041 1040 1056 
f 1040 1050 1056 
f 1051 1048 1056 
f 1050 1051 1056 
f 1040 1045 1057 
f 1050 1040 1057 
f 1044 1050 1057 
f 1053 1044 1057 
f 1045 1053 1057 
f 1052 1041 1058 
f 1047 1052 1058 
f 1054 1047 1058 
f 1048 1054 1058 
f 1041 1056 1058 
o convex_89
v 0.072397 0.156328 0.835849
v 0.230339 0.178137 0.906650
v 0.230339 0.052868 0.906650
v 0.230308 0.161784 0.835849
v 0.230308 0.031073 0.835849
v 0.072397 0.036529 0.873970
v 0.148647 0.178137 0.906650
v 0.072397 0.031073 0.841303
v 0.072397 0.167240 0.873970
v 0.148647 0.052868 0.906650
v 0.072397 0.167240 0.841303
v 0.230308 0.036529 0.873970
f 1064 1066 1070 
f 1060 1061 1062 
f 1059 1062 1063 
f 1062 1061 1063 
f 1061 1060 1065 
f 1059 1063 1066 
f 1064 1059 1066 
f 1059 1064 1067 
f 1064 1065 1067 
f 1064 1061 1068 
f 1065 1064 1068 
f 1061 1065 1068 
f 1060 1062 1069 
f 1062 1059 1069 
f 1065 1060 1069 
f 1059 1067 1069 
f 1067 1065 1069 
f 1063 1061 1070 
f 1061 1064 1070 
f 1066 1063 1070 
o convex_90
v -0.189066 -0.404680 0.519926
v -0.232636 -0.486375 0.443684
v -0.243534 -0.442809 0.454573
v -0.232636 -0.486375 0.558061
v -0.189066 -0.486375 0.454573
v -0.232636 -0.404680 0.558061
v -0.189066 -0.486375 0.558061
v -0.189066 -0.404680 0.454573
v -0.232636 -0.431917 0.421890
v -0.243534 -0.410134 0.454573
v -0.221744 -0.475467 0.421890
v -0.243534 -0.410134 0.514475
f 1076 1080 1082 
f 1073 1072 1074 
f 1074 1072 1075 
f 1076 1074 1077 
f 1075 1071 1077 
f 1074 1075 1077 
f 1071 1076 1077 
f 1071 1075 1078 
f 1076 1071 1078 
f 1072 1073 1079 
f 1076 1078 1080 
f 1078 1079 1080 
f 1079 1073 1080 
f 1075 1072 1081 
f 1078 1075 1081 
f 1079 1078 1081 
f 1072 1079 1081 
f 1073 1074 1082 
f 1074 1076 1082 
f 1080 1073 1082 
o convex_91
v -0.189048 -0.486366 0.454572
v 0.192192 -0.257608 0.460018
v 0.192192 -0.257608 0.454571
v 0.192192 -0.459137 0.460018
v -0.189048 -0.480902 0.465464
v -0.003839 -0.257608 0.454571
v 0.192192 -0.459137 0.454571
v -0.003876 -0.486366 0.465464
v -0.003839 -0.257608 0.460018
v -0.189048 -0.393774 0.454572
v -0.189048 -0.393774 0.460018
f 1091 1092 1093 
f 1085 1084 1086 
f 1084 1085 1088 
f 1088 1085 1089 
f 1085 1086 1089 
f 1083 1088 1089 
f 1083 1089 1090 
f 1086 1084 1090 
f 1087 1083 1090 
f 1084 1087 1090 
f 1089 1086 1090 
f 1087 1084 1091 
f 1084 1088 1091 
f 1091 1088 1092 
f 1083 1087 1092 
f 1088 1083 1092 
f 1092 1087 1093 
f 1087 1091 1093 
o convex_92
v 0.224877 0.210818 1.064615
v 0.148637 0.096435 1.015594
v 0.230339 0.096435 1.015594
v 0.148637 0.205365 1.015594
v 0.148637 0.112782 1.064615
v 0.230339 0.205365 1.015594
v 0.230339 0.112782 1.064615
v 0.148637 0.210818 1.048271
f 1099 1097 1101 
f 1096 1095 1097 
f 1095 1096 1098 
f 1097 1095 1098 
f 1096 1097 1099 
f 1094 1098 1100 
f 1098 1096 1100 
f 1099 1094 1100 
f 1096 1099 1100 
f 1098 1094 1101 
f 1097 1098 1101 
f 1094 1099 1101 
o convex_93
v 0.230339 0.074640 0.972013
v -0.232641 0.009287 0.786827
v -0.232641 0.009287 0.803178
v -0.232641 0.080094 0.955663
v 0.230339 0.014735 0.786827
v 0.230339 0.080094 0.955663
v -0.232641 0.074640 0.972013
v 0.230339 0.014735 0.819510
v -0.232641 0.014735 0.786827
v -0.188998 0.058296 0.895753
v -0.232641 0.031085 0.863106
v 0.230339 0.009287 0.797722
v -0.232641 0.080094 0.972013
v 0.148583 0.058296 0.895753
f 1111 1107 1115 
f 1103 1104 1105 
f 1102 1106 1107 
f 1105 1104 1108 
f 1106 1102 1109 
f 1103 1105 1110 
f 1106 1103 1110 
f 1106 1110 1111 
f 1105 1107 1111 
f 1110 1105 1111 
f 1102 1108 1112 
f 1108 1104 1112 
f 1109 1102 1112 
f 1104 1109 1112 
f 1104 1103 1113 
f 1103 1106 1113 
f 1106 1109 1113 
f 1109 1104 1113 
f 1102 1107 1114 
f 1107 1105 1114 
f 1108 1102 1114 
f 1105 1108 1114 
f 1107 1106 1115 
f 1106 1111 1115 
o convex_94
v -0.003892 -0.023431 0.449126
v -0.189048 -0.393743 0.454571
v -0.189048 -0.393743 0.460017
v -0.003892 -0.393743 0.460017
v -0.189048 -0.023431 0.460017
v -0.189048 -0.023431 0.449126
v -0.003892 -0.023431 0.460017
v -0.003892 -0.252121 0.449126
v -0.189048 -0.252121 0.449126
v -0.003892 -0.393743 0.454571
f 1123 1119 1125 
f 1118 1117 1119 
f 1117 1118 1120 
f 1118 1119 1120 
f 1120 1116 1121 
f 1117 1120 1121 
f 1119 1116 1122 
f 1116 1120 1122 
f 1120 1119 1122 
f 1116 1119 1123 
f 1121 1116 1123 
f 1121 1123 1124 
f 1117 1121 1124 
f 1123 1117 1124 
f 1119 1117 1125 
f 1117 1123 1125 
o convex_95
v -0.150901 0.020190 0.814061
v 0.230310 0.140009 0.808616
v 0.230310 0.140009 0.786829
v 0.230310 0.014733 0.808616
v 0.224825 0.140009 0.835843
v 0.230273 0.025634 0.835843
v -0.150901 0.031079 0.835843
v 0.224825 0.014733 0.786829
v -0.063733 0.014733 0.797725
v -0.150901 0.020190 0.830393
v -0.150901 0.025634 0.814061
v 0.224825 0.140009 0.786829
f 1136 1132 1137 
f 1128 1127 1129 
f 1127 1128 1130 
f 1127 1130 1131 
f 1129 1127 1131 
f 1131 1130 1132 
f 1128 1129 1133 
f 1133 1129 1134 
f 1129 1131 1135 
f 1132 1126 1135 
f 1131 1132 1135 
f 1134 1129 1135 
f 1126 1134 1135 
f 1126 1132 1136 
f 1134 1126 1136 
f 1134 1136 1137 
f 1130 1128 1137 
f 1132 1130 1137 
f 1128 1133 1137 
f 1133 1134 1137 
o convex_96
v -0.074683 0.107328 0.133221
v 0.039685 0.199924 0.155006
v 0.045149 0.194477 0.165899
v 0.066930 0.107328 0.127771
v -0.074683 0.107328 0.214911
v 0.077828 0.107328 0.214911
v -0.047438 0.178135 0.214911
v -0.041989 0.194477 0.133221
v 0.045149 0.178117 0.214911
v 0.034236 0.189030 0.127771
v 0.077828 0.112785 0.138672
v -0.047438 0.194477 0.160457
v -0.063785 0.123671 0.127771
v 0.061481 0.161775 0.214911
v 0.050583 0.189012 0.138672
v -0.069219 0.140013 0.214911
f 1144 1149 1153 
f 1138 1141 1142 
f 1142 1141 1143 
f 1142 1143 1144 
f 1140 1139 1146 
f 1139 1144 1146 
f 1144 1143 1146 
f 1145 1139 1147 
f 1143 1141 1148 
f 1144 1139 1149 
f 1139 1145 1149 
f 1145 1138 1149 
f 1141 1138 1150 
f 1138 1145 1150 
f 1147 1141 1150 
f 1145 1147 1150 
f 1140 1146 1151 
f 1146 1143 1151 
f 1143 1148 1151 
f 1151 1148 1152 
f 1139 1140 1152 
f 1147 1139 1152 
f 1141 1147 1152 
f 1148 1141 1152 
f 1140 1151 1152 
f 1138 1142 1153 
f 1142 1144 1153 
f 1149 1138 1153 
o convex_97
v 0.224884 -0.388332 0.541698
v 0.219445 -0.486375 0.443694
v 0.219445 -0.480914 0.427348
v 0.192211 -0.388332 0.519923
v 0.192211 -0.480914 0.541698
v 0.230338 -0.480914 0.541698
v 0.246679 -0.410136 0.454587
v 0.192211 -0.388332 0.454587
v 0.192211 -0.486375 0.454587
v 0.246679 -0.442795 0.514471
v 0.230338 -0.480914 0.427348
v 0.230338 -0.426470 0.427348
v 0.230338 -0.388332 0.454587
f 1160 1165 1166 
f 1154 1157 1158 
f 1154 1158 1159 
f 1157 1154 1161 
f 1158 1157 1161 
f 1156 1155 1162 
f 1155 1159 1162 
f 1159 1158 1162 
f 1158 1161 1162 
f 1161 1156 1162 
f 1154 1159 1163 
f 1160 1154 1163 
f 1160 1163 1164 
f 1155 1156 1164 
f 1159 1155 1164 
f 1163 1159 1164 
f 1156 1161 1165 
f 1160 1164 1165 
f 1164 1156 1165 
f 1154 1160 1166 
f 1161 1154 1166 
f 1165 1161 1166 
o convex_98
v -0.232641 0.140018 1.064615
v 0.028807 0.227150 1.075512
v 0.028807 0.227150 1.070066
v -0.232641 0.221700 1.091846
v -0.227190 0.140018 1.091846
v -0.232641 0.216258 1.064615
v -0.036581 0.227150 1.091846
v 0.028807 0.210808 1.064615
v 0.028807 0.210808 1.075512
f 1171 1174 1175 
f 1170 1167 1171 
f 1170 1169 1172 
f 1167 1170 1172 
f 1168 1169 1173 
f 1169 1170 1173 
f 1170 1171 1173 
f 1169 1168 1174 
f 1171 1167 1174 
f 1167 1172 1174 
f 1172 1169 1174 
f 1168 1173 1175 
f 1173 1171 1175 
f 1174 1168 1175 
o convex_99
v 0.230339 -0.001610 0.683332
v -0.183588 -0.023394 0.601635
v -0.183588 -0.023394 0.607089
v -0.232621 0.009286 0.628873
v -0.232621 -0.012499 0.683332
v 0.181306 -0.023394 0.601635
v 0.230339 -0.017946 0.672432
v 0.230339 -0.001610 0.628873
v -0.227138 0.009286 0.683332
v 0.181306 -0.012499 0.601635
v -0.232621 -0.017946 0.672432
v -0.183588 -0.012499 0.601635
v -0.232621 -0.017946 0.628873
f 1186 1179 1188 
f 1178 1177 1181 
f 1176 1180 1182 
f 1178 1181 1182 
f 1182 1181 1183 
f 1176 1182 1183 
f 1183 1179 1184 
f 1180 1176 1184 
f 1179 1180 1184 
f 1176 1183 1184 
f 1181 1177 1185 
f 1183 1181 1185 
f 1179 1183 1185 
f 1177 1178 1186 
f 1180 1179 1186 
f 1182 1180 1186 
f 1178 1182 1186 
f 1177 1179 1187 
f 1185 1177 1187 
f 1179 1185 1187 
f 1179 1177 1188 
f 1177 1186 1188 
o convex_100
v -0.232641 0.085541 0.993808
v 0.230294 0.205371 1.015594
v 0.230294 0.205371 0.999257
v 0.230339 0.085541 0.999255
v -0.232641 0.096450 1.015594
v -0.232641 0.205371 0.999257
v 0.230294 0.096450 1.015594
v -0.232641 0.205371 1.015594
v 0.230339 0.199917 0.993808
v -0.232641 0.199917 0.993808
v 0.230339 0.085541 0.993808
f 1189 1197 1199 
f 1189 1192 1193 
f 1190 1191 1194 
f 1189 1193 1194 
f 1192 1190 1195 
f 1193 1192 1195 
f 1190 1193 1195 
f 1193 1190 1196 
f 1190 1194 1196 
f 1194 1193 1196 
f 1191 1190 1197 
f 1190 1192 1197 
f 1194 1191 1197 
f 1194 1197 1198 
f 1189 1194 1198 
f 1197 1189 1198 
f 1192 1189 1199 
f 1197 1192 1199 
o convex_101
v 0.224888 -0.001596 0.683332
v 0.224888 -0.023387 0.487271
v 0.230339 -0.023387 0.487271
v 0.219446 0.118222 0.639744
v 0.181318 -0.023387 0.607058
v 0.219446 0.080075 0.487271
v 0.230334 0.118222 0.683332
v 0.192225 0.025628 0.509056
v 0.230334 0.080075 0.487271
v 0.230339 -0.023387 0.607058
v 0.181318 -0.012478 0.628823
v 0.192225 -0.023387 0.509056
v 0.224888 0.118222 0.683332
f 1203 1210 1212 
f 1201 1202 1204 
f 1202 1201 1205 
f 1203 1205 1207 
f 1202 1205 1208 
f 1205 1203 1208 
f 1203 1206 1208 
f 1206 1202 1208 
f 1200 1204 1209 
f 1204 1202 1209 
f 1206 1200 1209 
f 1202 1206 1209 
f 1204 1200 1210 
f 1203 1207 1210 
f 1207 1204 1210 
f 1201 1204 1211 
f 1205 1201 1211 
f 1204 1207 1211 
f 1207 1205 1211 
f 1206 1203 1212 
f 1200 1206 1212 
f 1210 1200 1212 
o convex_102
v 0.219445 0.118221 0.672440
v -0.020194 0.069205 0.487270
v -0.031108 0.107325 0.628862
v 0.219445 0.080101 0.487270
v -0.031108 0.118221 0.639756
v 0.219445 0.069205 0.492727
v -0.031108 0.112771 0.672440
v -0.020194 0.080101 0.487270
v 0.219445 0.118221 0.639756
v 0.219445 0.112771 0.672440
f 1219 1218 1222 
f 1214 1216 1218 
f 1216 1213 1218 
f 1215 1214 1219 
f 1213 1217 1219 
f 1217 1215 1219 
f 1214 1218 1219 
f 1214 1215 1220 
f 1216 1214 1220 
f 1217 1216 1220 
f 1215 1217 1220 
f 1213 1216 1221 
f 1217 1213 1221 
f 1216 1217 1221 
f 1218 1213 1222 
f 1213 1219 1222 
o convex_103
v 0.230339 -0.023395 0.541720
v 0.192211 -0.388332 0.509045
v 0.192211 -0.388332 0.519938
v 0.230339 -0.388332 0.541720
v 0.230339 -0.388332 0.503596
v 0.192211 -0.023395 0.509045
v 0.230339 -0.023395 0.503596
v 0.192211 -0.023395 0.519938
v 0.224886 -0.023395 0.541720
f 1230 1225 1231 
f 1225 1224 1226 
f 1223 1226 1227 
f 1226 1224 1227 
f 1227 1224 1228 
f 1224 1225 1228 
f 1223 1227 1229 
f 1227 1228 1229 
f 1228 1223 1229 
f 1223 1228 1230 
f 1228 1225 1230 
f 1225 1226 1231 
f 1226 1223 1231 
f 1223 1230 1231 
